<svg width="111" height="41" viewBox="0 0 110.57 40.79" fill="none" xmlns="http://www.w3.org/2000/svg">
<g id="laurel-left">
<path d="M3.02878 21.8558C5.00438 23.3769 5.05067 25.1256 4.89692 26.0438C5.18954 26.5198 5.98805 27.0106 6.44434 27.2626C5.53506 25.413 4.8589 23.3918 4.41583 21.2082C3.95293 20.9208 3.21559 20.1854 2.7345 19.6797C2.41378 19.6517 1.74422 19.5266 0.81015 18.1978C-0.504164 16.3259 0.176966 13.1886 0.176966 13.1886L0.534061 13.3752C1.24495 13.7448 1.88805 14.2673 2.40551 14.9299C3.87853 16.8223 3.55946 18.4162 3.23212 19.2056C3.38753 19.6797 3.94136 20.2806 4.30672 20.6408C3.9116 18.4722 3.74132 16.1486 3.80083 13.6757C3.45531 13.3062 2.97753 12.5596 2.66507 12.0464C2.39394 11.9531 1.84011 11.6993 1.26479 10.3518C0.454706 8.45746 1.5789 5.90806 1.5789 5.90806L1.85499 6.14509C2.40221 6.61727 2.86676 7.20702 3.19741 7.8901C4.13974 9.83854 3.59253 11.1375 3.17591 11.7459C3.22551 12.1677 3.56773 12.7687 3.81902 13.1606C3.89342 11.1058 4.11991 8.95017 4.50511 6.70125C4.38277 6.51275 3.92152 6.05364 4.18604 4.06413C4.50841 1.62671 7.08414 -0.00445557 7.08414 -0.00445557L7.21144 0.430398C7.46603 1.29637 7.57018 2.21087 7.49083 3.11977C7.22962 6.11709 5.45075 6.67326 4.77954 6.77777C4.73491 7.08571 4.67043 7.47951 4.63075 7.93116C4.55966 8.73928 4.41253 9.92439 4.31168 11.3708C4.41749 11.2756 4.5514 11.1543 4.68365 11.033C4.58446 10.7717 4.45055 10.1969 4.94486 8.82699C5.67063 6.8207 8.17031 6.03124 8.17031 6.03124L8.20006 6.4325C8.25793 7.23129 8.17857 8.03941 7.94381 8.79527C7.25111 11.0311 5.88059 11.3129 5.17466 11.2999C4.89857 11.4398 4.55305 11.6377 4.27862 11.8803C4.16289 13.8362 4.14966 16.2102 4.50345 18.7558C4.60926 18.5897 4.73987 18.3844 4.86386 18.1885C4.69357 17.8824 4.49519 17.2609 4.63902 15.8556C4.88535 13.4517 7.36518 11.7534 7.36518 11.7534L7.50406 12.177C7.77849 13.0169 7.9091 13.9127 7.85785 14.8067C7.69087 17.7312 5.99466 18.3602 5.32345 18.4946C5.08208 18.7241 4.80434 19.0227 4.59107 19.34C4.91841 21.3836 5.49043 23.5243 6.44269 25.6351C6.49228 25.4765 6.55015 25.2954 6.60636 25.1181C6.36829 24.8849 6.0145 24.3567 5.80454 22.9289C5.45406 20.5401 7.4247 18.1381 7.4247 18.1381L7.66111 18.502C8.13063 19.2243 8.47285 20.0436 8.64313 20.9189C9.192 23.7632 7.73551 24.8998 7.1172 25.2451C6.96345 25.5082 6.79978 25.8236 6.68075 26.1446C7.64789 28.1528 8.96881 30.1255 10.7609 31.9526C10.7559 31.7492 10.7493 31.4693 10.7427 31.193C10.4203 31.0699 9.86651 30.7041 9.13744 29.3118C7.94381 27.033 9.11099 23.7053 9.11099 23.7053L9.47966 23.9704C10.2104 24.4967 10.8485 25.1797 11.3263 25.9972C12.8704 28.6306 11.8124 30.4316 11.2999 31.0736C11.2255 31.4674 11.1643 31.9396 11.1775 32.3688C12.5728 33.72 14.236 34.9873 16.2182 36.122C16.1884 35.9298 16.1405 35.6144 16.0909 35.3008C15.7851 35.2654 15.1601 35.0918 14.1517 33.6883C12.6737 31.6335 13.3945 28.1472 13.3945 28.1472L13.7929 28.3488C14.5848 28.7481 15.304 29.3174 15.8842 30.0471C17.597 32.199 17.0597 34.0205 16.6315 34.866C16.5984 35.3083 16.5869 35.8812 16.6695 36.3777C18.8005 37.5497 21.287 38.5725 24.1834 39.3937C24.4314 39.4646 24.6348 39.6531 24.7273 39.8994C24.8001 40.0954 24.8513 40.3884 24.4479 40.6833C24.3521 40.7542 24.2248 40.7878 24.0611 40.7878C23.332 40.7878 22.1086 40.1178 20.5579 39.2724C19.6784 38.7908 18.6798 38.2459 17.6152 37.742L17.5606 37.7158C16.8679 37.9566 15.7966 38.1488 15.0262 38.2664C14.8163 38.5072 14.312 39.2948 12.2736 39.25C9.76236 39.194 7.7322 36.1183 7.7322 36.1183L8.15377 35.8887C8.9903 35.4333 9.90123 35.1627 10.8303 35.1291C13.2193 35.0451 14.3087 36.2862 14.7882 37.2175C14.8311 37.2287 14.8741 37.2437 14.9155 37.2623C15.3602 37.4583 16.1174 37.4135 16.7456 37.3258C15.418 36.6744 13.4309 35.5957 11.409 33.7984C10.8088 33.86 9.76732 33.7387 9.0647 33.6379C8.7572 33.8488 8.07442 34.2277 6.45757 33.7051C4.18108 32.9698 2.9891 29.6141 2.9891 29.6141L3.42225 29.5208C4.28192 29.3342 5.1697 29.3342 6.02277 29.5581C8.45631 30.1964 9.08619 31.8817 9.2449 32.841C9.62514 33.1303 10.3707 33.2721 10.908 33.3393C9.92272 32.4061 8.94071 31.2976 8.03474 29.9799C7.55531 29.2819 7.1172 28.5522 6.71877 27.7926C6.19801 27.6881 5.16309 27.0927 4.4985 26.6859C4.15793 26.753 3.43382 26.8258 2.15092 25.7284C0.345594 24.1831 0.310875 20.723 0.310875 20.723L0.725836 20.8088C1.55079 20.9786 2.34269 21.3258 3.03539 21.8595L3.02878 21.8558Z" fill="#0047BB"/>
</g>
<g id="laurel-right" transform="translate(85.8,0)">
<path d="M21.7427 21.8556C19.7671 23.3767 19.7208 25.1254 19.8746 26.0437C19.5819 26.5196 18.7834 27.0104 18.3271 27.2624C19.2364 25.4128 19.9126 23.3916 20.3556 21.208C20.8186 20.9206 21.5559 20.1853 22.037 19.6795C22.3577 19.6515 23.0273 19.5265 23.9613 18.1976C25.2756 16.3257 24.5945 13.1884 24.5945 13.1884L24.2374 13.375C23.5265 13.7446 22.8834 14.2671 22.366 14.9297C20.893 16.8221 21.212 18.416 21.5394 19.2054C21.384 19.6795 20.8301 20.2804 20.4648 20.6406C20.8599 18.472 21.0302 16.1484 20.9706 13.6755C21.3162 13.306 21.794 12.5595 22.1064 12.0462C22.3775 11.9529 22.9314 11.6991 23.5067 10.3516C24.3168 8.45728 23.1926 5.90788 23.1926 5.90788L22.9165 6.1449C22.3693 6.61708 21.9047 7.20684 21.5741 7.88992C20.6317 9.83836 21.179 11.1373 21.5956 11.7457C21.546 12.1675 21.2038 12.7685 20.9525 13.1604C20.8781 11.1056 20.6516 8.94999 20.2664 6.70107C20.3887 6.51257 20.85 6.05345 20.5854 4.06395C20.2631 1.62653 17.6873 -0.00463867 17.6873 -0.00463867L17.56 0.430215C17.3055 1.29619 17.2013 2.21069 17.2807 3.11959C17.5419 6.11691 19.3207 6.67307 19.9919 6.77759C20.0366 7.08553 20.1011 7.47933 20.1407 7.93098C20.2118 8.73909 20.359 9.92421 20.4598 11.3706C20.354 11.2754 20.2201 11.1541 20.0878 11.0328C20.187 10.7715 20.3209 10.1967 19.8266 8.82681C19.1009 6.82051 16.6012 6.03106 16.6012 6.03106L16.5714 6.43232C16.5136 7.2311 16.5929 8.03922 16.8277 8.79508C17.5204 11.0309 18.8909 11.3128 19.5968 11.2997C19.8729 11.4397 20.2184 11.6375 20.4929 11.8801C20.6086 13.836 20.6218 16.21 20.268 18.7557C20.1622 18.5896 20.0316 18.3843 19.9076 18.1883C20.0779 17.8822 20.2763 17.2607 20.1325 15.8554C19.8861 13.4516 17.4063 11.7532 17.4063 11.7532L17.2674 12.1769C16.993 13.0167 16.8624 13.9125 16.9136 14.8065C17.0806 17.731 18.7768 18.36 19.448 18.4944C19.6894 18.7239 19.9671 19.0225 20.1804 19.3398C19.8531 21.3834 19.2811 23.5241 18.3288 25.6349C18.2792 25.4763 18.2213 25.2953 18.1651 25.118C18.4032 24.8847 18.757 24.3565 18.9669 22.9288C19.3174 20.5399 17.3468 18.1379 17.3468 18.1379L17.1104 18.5018C16.6409 19.2241 16.2986 20.0434 16.1284 20.9187C15.5795 23.763 17.036 24.8996 17.6543 25.2449C17.808 25.508 17.9717 25.8234 18.0907 26.1444C17.1236 28.1526 15.8027 30.1253 14.0106 31.9524C14.0155 31.749 14.0222 31.4691 14.0288 31.1929C14.3511 31.0697 14.905 30.7039 15.634 29.3116C16.8277 27.0328 15.6605 23.7052 15.6605 23.7052L15.2918 23.9702C14.5611 24.4965 13.923 25.1796 13.4452 25.997C11.9011 28.6304 12.9591 30.4314 13.4716 31.0734C13.546 31.4672 13.6072 31.9394 13.594 32.3686C12.1986 33.7199 10.5355 34.9871 8.55329 36.1218C8.58305 35.9296 8.63099 35.6142 8.68058 35.3006C8.98643 35.2652 9.61135 35.0916 10.6198 33.6881C12.0978 31.6333 11.377 28.147 11.377 28.147L10.9786 28.3486C10.1867 28.748 9.46752 29.3172 8.88724 30.0469C7.1745 32.1988 7.7118 34.0203 8.13998 34.8658C8.17305 35.3081 8.18462 35.8811 8.10196 36.3775C5.97095 37.5496 3.4845 38.5723 0.588053 39.3935C0.340069 39.4644 0.136723 39.6529 0.0441424 39.8993C-0.0285995 40.0952 -0.0798494 40.3882 0.323537 40.6831C0.419424 40.754 0.546723 40.7876 0.710392 40.7876C1.43946 40.7876 2.66285 40.1176 4.21357 39.2722C5.09309 38.7907 6.09164 38.2457 7.15631 37.7418L7.21087 37.7157C7.90357 37.9564 8.97486 38.1486 9.74526 38.2662C9.95522 38.507 10.4595 39.2946 12.4979 39.2498C15.0091 39.1938 17.0393 36.1181 17.0393 36.1181L16.6177 35.8885C15.7812 35.4331 14.8703 35.1625 13.9411 35.1289C11.5522 35.0449 10.4628 36.2861 9.98333 37.2174C9.94034 37.2285 9.89736 37.2435 9.85603 37.2621C9.41131 37.4581 8.65413 37.4133 8.02591 37.3256C9.35345 36.6743 11.3406 35.5955 13.3625 33.7982C13.9626 33.8598 15.0042 33.7385 15.7068 33.6377C16.0143 33.8486 16.6971 34.2275 18.3139 33.7049C20.5904 32.9696 21.7824 29.6139 21.7824 29.6139L21.3492 29.5206C20.4896 29.334 19.6018 29.334 18.7487 29.558C16.3152 30.1962 15.6853 31.8815 15.5266 32.8408C15.1463 33.1301 14.4007 33.2719 13.8634 33.3391C14.8488 32.406 15.8308 31.2974 16.7367 29.9797C17.2162 29.2817 17.6543 28.552 18.0527 27.7924C18.5735 27.6879 19.6084 27.0925 20.273 26.6857C20.6136 26.7529 21.3377 26.8257 22.6206 25.7283C24.4259 24.1829 24.4606 20.7228 24.4606 20.7228L24.0456 20.8086C23.2207 20.9785 22.4288 21.3256 21.7361 21.8594L21.7427 21.8556Z" fill="#0047BB"/>
</g>
</svg>
