<svg width="25" height="41" viewBox="0 0 25 41" fill="none" xmlns="http://www.w3.org/2000/svg">
<path d="M3.02878 21.8558C5.00438 23.3769 5.05067 25.1256 4.89692 26.0438C5.18954 26.5198 5.98805 27.0106 6.44434 27.2626C5.53506 25.413 4.8589 23.3918 4.41583 21.2082C3.95293 20.9208 3.21559 20.1854 2.7345 19.6797C2.41378 19.6517 1.74422 19.5266 0.81015 18.1978C-0.504164 16.3259 0.176966 13.1886 0.176966 13.1886L0.534061 13.3752C1.24495 13.7448 1.88805 14.2673 2.40551 14.9299C3.87853 16.8223 3.55946 18.4162 3.23212 19.2056C3.38753 19.6797 3.94136 20.2806 4.30672 20.6408C3.9116 18.4722 3.74132 16.1486 3.80083 13.6757C3.45531 13.3062 2.97753 12.5596 2.66507 12.0464C2.39394 11.9531 1.84011 11.6993 1.26479 10.3518C0.454706 8.45746 1.5789 5.90806 1.5789 5.90806L1.85499 6.14509C2.40221 6.61727 2.86676 7.20702 3.19741 7.8901C4.13974 9.83854 3.59253 11.1375 3.17591 11.7459C3.22551 12.1677 3.56773 12.7687 3.81902 13.1606C3.89342 11.1058 4.11991 8.95017 4.50511 6.70125C4.38277 6.51275 3.92152 6.05364 4.18604 4.06413C4.50841 1.62671 7.08414 -0.00445557 7.08414 -0.00445557L7.21144 0.430398C7.46603 1.29637 7.57018 2.21087 7.49083 3.11977C7.22962 6.11709 5.45075 6.67326 4.77954 6.77777C4.73491 7.08571 4.67043 7.47951 4.63075 7.93116C4.55966 8.73928 4.41253 9.92439 4.31168 11.3708C4.41749 11.2756 4.5514 11.1543 4.68365 11.033C4.58446 10.7717 4.45055 10.1969 4.94486 8.82699C5.67063 6.8207 8.17031 6.03124 8.17031 6.03124L8.20006 6.4325C8.25793 7.23129 8.17857 8.03941 7.94381 8.79527C7.25111 11.0311 5.88059 11.3129 5.17466 11.2999C4.89857 11.4398 4.55305 11.6377 4.27862 11.8803C4.16289 13.8362 4.14966 16.2102 4.50345 18.7558C4.60926 18.5897 4.73987 18.3844 4.86386 18.1885C4.69357 17.8824 4.49519 17.2609 4.63902 15.8556C4.88535 13.4517 7.36518 11.7534 7.36518 11.7534L7.50406 12.177C7.77849 13.0169 7.9091 13.9127 7.85785 14.8067C7.69087 17.7312 5.99466 18.3602 5.32345 18.4946C5.08208 18.7241 4.80434 19.0227 4.59107 19.34C4.91841 21.3836 5.49043 23.5243 6.44269 25.6351C6.49228 25.4765 6.55015 25.2954 6.60636 25.1181C6.36829 24.8849 6.0145 24.3567 5.80454 22.9289C5.45406 20.5401 7.4247 18.1381 7.4247 18.1381L7.66111 18.502C8.13063 19.2243 8.47285 20.0436 8.64313 20.9189C9.192 23.7632 7.73551 24.8998 7.1172 25.2451C6.96345 25.5082 6.79978 25.8236 6.68075 26.1446C7.64789 28.1528 8.96881 30.1255 10.7609 31.9526C10.7559 31.7492 10.7493 31.4693 10.7427 31.193C10.4203 31.0699 9.86651 30.7041 9.13744 29.3118C7.94381 27.033 9.11099 23.7053 9.11099 23.7053L9.47966 23.9704C10.2104 24.4967 10.8485 25.1797 11.3263 25.9972C12.8704 28.6306 11.8124 30.4316 11.2999 31.0736C11.2255 31.4674 11.1643 31.9396 11.1775 32.3688C12.5728 33.72 14.236 34.9873 16.2182 36.122C16.1884 35.9298 16.1405 35.6144 16.0909 35.3008C15.7851 35.2654 15.1601 35.0918 14.1517 33.6883C12.6737 31.6335 13.3945 28.1472 13.3945 28.1472L13.7929 28.3488C14.5848 28.7481 15.304 29.3174 15.8842 30.0471C17.597 32.199 17.0597 34.0205 16.6315 34.866C16.5984 35.3083 16.5869 35.8812 16.6695 36.3777C18.8005 37.5497 21.287 38.5725 24.1834 39.3937C24.4314 39.4646 24.6348 39.6531 24.7273 39.8994C24.8001 40.0954 24.8513 40.3884 24.4479 40.6833C24.3521 40.7542 24.2248 40.7878 24.0611 40.7878C23.332 40.7878 22.1086 40.1178 20.5579 39.2724C19.6784 38.7908 18.6798 38.2459 17.6152 37.742L17.5606 37.7158C16.8679 37.9566 15.7966 38.1488 15.0262 38.2664C14.8163 38.5072 14.312 39.2948 12.2736 39.25C9.76236 39.194 7.7322 36.1183 7.7322 36.1183L8.15377 35.8887C8.9903 35.4333 9.90123 35.1627 10.8303 35.1291C13.2193 35.0451 14.3087 36.2862 14.7882 37.2175C14.8311 37.2287 14.8741 37.2437 14.9155 37.2623C15.3602 37.4583 16.1174 37.4135 16.7456 37.3258C15.418 36.6744 13.4309 35.5957 11.409 33.7984C10.8088 33.86 9.76732 33.7387 9.0647 33.6379C8.7572 33.8488 8.07442 34.2277 6.45757 33.7051C4.18108 32.9698 2.9891 29.6141 2.9891 29.6141L3.42225 29.5208C4.28192 29.3342 5.1697 29.3342 6.02277 29.5581C8.45631 30.1964 9.08619 31.8817 9.2449 32.841C9.62514 33.1303 10.3707 33.2721 10.908 33.3393C9.92272 32.4061 8.94071 31.2976 8.03474 29.9799C7.55531 29.2819 7.1172 28.5522 6.71877 27.7926C6.19801 27.6881 5.16309 27.0927 4.4985 26.6859C4.15793 26.753 3.43382 26.8258 2.15092 25.7284C0.345594 24.1831 0.310875 20.723 0.310875 20.723L0.725836 20.8088C1.55079 20.9786 2.34269 21.3258 3.03539 21.8595L3.02878 21.8558Z" fill="#0047BB"/>
</svg>
