<svg width="25" height="41" viewBox="0 0 25 41" fill="none" xmlns="http://www.w3.org/2000/svg">
<path d="M21.7427 21.8556C19.7671 23.3767 19.7208 25.1254 19.8746 26.0437C19.5819 26.5196 18.7834 27.0104 18.3271 27.2624C19.2364 25.4128 19.9126 23.3916 20.3556 21.208C20.8186 20.9206 21.5559 20.1853 22.037 19.6795C22.3577 19.6515 23.0273 19.5265 23.9613 18.1976C25.2756 16.3257 24.5945 13.1884 24.5945 13.1884L24.2374 13.375C23.5265 13.7446 22.8834 14.2671 22.366 14.9297C20.893 16.8221 21.212 18.416 21.5394 19.2054C21.384 19.6795 20.8301 20.2804 20.4648 20.6406C20.8599 18.472 21.0302 16.1484 20.9706 13.6755C21.3162 13.306 21.794 12.5595 22.1064 12.0462C22.3775 11.9529 22.9314 11.6991 23.5067 10.3516C24.3168 8.45728 23.1926 5.90788 23.1926 5.90788L22.9165 6.1449C22.3693 6.61708 21.9047 7.20684 21.5741 7.88992C20.6317 9.83836 21.179 11.1373 21.5956 11.7457C21.546 12.1675 21.2038 12.7685 20.9525 13.1604C20.8781 11.1056 20.6516 8.94999 20.2664 6.70107C20.3887 6.51257 20.85 6.05345 20.5854 4.06395C20.2631 1.62653 17.6873 -0.00463867 17.6873 -0.00463867L17.56 0.430215C17.3055 1.29619 17.2013 2.21069 17.2807 3.11959C17.5419 6.11691 19.3207 6.67307 19.9919 6.77759C20.0366 7.08553 20.1011 7.47933 20.1407 7.93098C20.2118 8.73909 20.359 9.92421 20.4598 11.3706C20.354 11.2754 20.2201 11.1541 20.0878 11.0328C20.187 10.7715 20.3209 10.1967 19.8266 8.82681C19.1009 6.82051 16.6012 6.03106 16.6012 6.03106L16.5714 6.43232C16.5136 7.2311 16.5929 8.03922 16.8277 8.79508C17.5204 11.0309 18.8909 11.3128 19.5968 11.2997C19.8729 11.4397 20.2184 11.6375 20.4929 11.8801C20.6086 13.836 20.6218 16.21 20.268 18.7557C20.1622 18.5896 20.0316 18.3843 19.9076 18.1883C20.0779 17.8822 20.2763 17.2607 20.1325 15.8554C19.8861 13.4516 17.4063 11.7532 17.4063 11.7532L17.2674 12.1769C16.993 13.0167 16.8624 13.9125 16.9136 14.8065C17.0806 17.731 18.7768 18.36 19.448 18.4944C19.6894 18.7239 19.9671 19.0225 20.1804 19.3398C19.8531 21.3834 19.2811 23.5241 18.3288 25.6349C18.2792 25.4763 18.2213 25.2953 18.1651 25.118C18.4032 24.8847 18.757 24.3565 18.9669 22.9288C19.3174 20.5399 17.3468 18.1379 17.3468 18.1379L17.1104 18.5018C16.6409 19.2241 16.2986 20.0434 16.1284 20.9187C15.5795 23.763 17.036 24.8996 17.6543 25.2449C17.808 25.508 17.9717 25.8234 18.0907 26.1444C17.1236 28.1526 15.8027 30.1253 14.0106 31.9524C14.0155 31.749 14.0222 31.4691 14.0288 31.1929C14.3511 31.0697 14.905 30.7039 15.634 29.3116C16.8277 27.0328 15.6605 23.7052 15.6605 23.7052L15.2918 23.9702C14.5611 24.4965 13.923 25.1796 13.4452 25.997C11.9011 28.6304 12.9591 30.4314 13.4716 31.0734C13.546 31.4672 13.6072 31.9394 13.594 32.3686C12.1986 33.7199 10.5355 34.9871 8.55329 36.1218C8.58305 35.9296 8.63099 35.6142 8.68058 35.3006C8.98643 35.2652 9.61135 35.0916 10.6198 33.6881C12.0978 31.6333 11.377 28.147 11.377 28.147L10.9786 28.3486C10.1867 28.748 9.46752 29.3172 8.88724 30.0469C7.1745 32.1988 7.7118 34.0203 8.13998 34.8658C8.17305 35.3081 8.18462 35.8811 8.10196 36.3775C5.97095 37.5496 3.4845 38.5723 0.588053 39.3935C0.340069 39.4644 0.136723 39.6529 0.0441424 39.8993C-0.0285995 40.0952 -0.0798494 40.3882 0.323537 40.6831C0.419424 40.754 0.546723 40.7876 0.710392 40.7876C1.43946 40.7876 2.66285 40.1176 4.21357 39.2722C5.09309 38.7907 6.09164 38.2457 7.15631 37.7418L7.21087 37.7157C7.90357 37.9564 8.97486 38.1486 9.74526 38.2662C9.95522 38.507 10.4595 39.2946 12.4979 39.2498C15.0091 39.1938 17.0393 36.1181 17.0393 36.1181L16.6177 35.8885C15.7812 35.4331 14.8703 35.1625 13.9411 35.1289C11.5522 35.0449 10.4628 36.2861 9.98333 37.2174C9.94034 37.2285 9.89736 37.2435 9.85603 37.2621C9.41131 37.4581 8.65413 37.4133 8.02591 37.3256C9.35345 36.6743 11.3406 35.5955 13.3625 33.7982C13.9626 33.8598 15.0042 33.7385 15.7068 33.6377C16.0143 33.8486 16.6971 34.2275 18.3139 33.7049C20.5904 32.9696 21.7824 29.6139 21.7824 29.6139L21.3492 29.5206C20.4896 29.334 19.6018 29.334 18.7487 29.558C16.3152 30.1962 15.6853 31.8815 15.5266 32.8408C15.1463 33.1301 14.4007 33.2719 13.8634 33.3391C14.8488 32.406 15.8308 31.2974 16.7367 29.9797C17.2162 29.2817 17.6543 28.552 18.0527 27.7924C18.5735 27.6879 19.6084 27.0925 20.273 26.6857C20.6136 26.7529 21.3377 26.8257 22.6206 25.7283C24.4259 24.1829 24.4606 20.7228 24.4606 20.7228L24.0456 20.8086C23.2207 20.9785 22.4288 21.3256 21.7361 21.8594L21.7427 21.8556Z" fill="#0047BB"/>
</svg>
