<svg width="180" height="35" viewBox="0 0 180 35" fill="none" xmlns="http://www.w3.org/2000/svg">
<g id="Homepage_Ui">
<g id="Group">
<g id="Group_2">
<g id="Group_3">
<path id="Vector" d="M27.2685 19.7404V15.3467L18.8861 13.2763L23.0339 6.98375L20.0068 3.82031L6.91406 17.5028L20.0398 31.2196L23.067 28.0519L18.9646 21.8108L27.2685 19.7404Z" fill="white"/>
<path id="Vector_2" d="M0 15.2953V19.6889L8.38248 21.7636L4.23053 28.0519L7.25764 31.2196L20.3503 17.5328L7.2287 3.82031L4.19744 6.98375L8.3039 13.2249L0 15.2953Z" fill="white"/>
</g>
<path id="Vector_3" d="M15.4475 0H11.8125V3.76783H15.4475V0Z" fill="#16E9D7"/>
<path id="Vector_4" d="M15.4475 31.2344H11.8125V35.0022H15.4475V31.2344Z" fill="#16E9D7"/>
</g>
<g id="Group_4">
<path id="Vector_5" d="M40.7123 24.2295C39.8604 24.2295 39.0623 24.1609 38.3179 24.0195C37.5735 23.8823 36.9201 23.6508 36.3536 23.3294C35.787 23.0079 35.3445 22.5706 35.0303 22.0134C34.7118 21.4562 34.5547 20.7746 34.5547 19.9687C34.5547 19.9387 34.5547 19.883 34.5547 19.8144C34.5547 19.7716 34.563 19.7201 34.5712 19.6687H37.9705C37.9581 19.7201 37.9499 19.7716 37.9416 19.8187C37.9375 19.8702 37.9333 19.9216 37.9333 19.9687C37.9333 20.3588 38.0408 20.6674 38.2517 20.8946C38.4627 21.1218 38.7645 21.289 39.1574 21.3961C39.5461 21.5033 39.9928 21.5547 40.4931 21.5547C40.7371 21.5547 40.9728 21.5462 41.2044 21.5247C41.436 21.5076 41.651 21.469 41.8537 21.4133C42.0563 21.3576 42.23 21.2847 42.383 21.1947C42.536 21.1047 42.6518 20.9975 42.7304 20.8732C42.809 20.7489 42.8503 20.5903 42.8503 20.4017C42.8503 20.1359 42.7387 19.9173 42.5112 19.7373C42.2838 19.5615 41.9819 19.4158 41.5973 19.3C41.2127 19.1843 40.7826 19.0814 40.3112 18.9871C39.8356 18.8928 39.3435 18.7771 38.8307 18.6485C38.3179 18.5156 37.8217 18.357 37.3419 18.1641C36.8622 17.9712 36.428 17.7355 36.0434 17.444C35.6588 17.1525 35.357 16.7882 35.1295 16.3466C34.9021 15.9051 34.7904 15.3693 34.7904 14.7392C34.7904 14.0319 34.9393 13.4275 35.237 12.9217C35.5348 12.4159 35.9483 12.0044 36.4694 11.6829C36.9946 11.3614 37.5983 11.1257 38.289 10.9842C38.9754 10.8385 39.7157 10.7656 40.5097 10.7656C41.3037 10.7656 41.9984 10.8428 42.6766 10.9928C43.3548 11.1428 43.9421 11.3829 44.4507 11.7044C44.9552 12.0259 45.3564 12.4331 45.6459 12.926C45.9395 13.419 46.0842 14.0062 46.0842 14.6878V14.915H42.7221V14.7992C42.7221 14.5206 42.6435 14.272 42.4864 14.0534C42.3293 13.8348 42.0935 13.659 41.7834 13.5304C41.4732 13.4061 41.0804 13.3418 40.6048 13.3418C40.1292 13.3418 39.7115 13.3847 39.3807 13.4747C39.054 13.5647 38.8018 13.6847 38.6322 13.8433C38.4626 14.0019 38.3758 14.1863 38.3758 14.4006C38.3758 14.6535 38.4916 14.8635 38.7232 15.035C38.9548 15.2064 39.2608 15.3479 39.6371 15.4593C40.0134 15.5751 40.4435 15.678 40.9232 15.7723C41.4029 15.8666 41.8992 15.9694 42.412 16.0852C42.9248 16.1966 43.421 16.3466 43.9007 16.531C44.3804 16.7153 44.8146 16.951 45.1992 17.2425C45.5838 17.534 45.8857 17.8898 46.1132 18.3142C46.3365 18.7385 46.4523 19.2572 46.4523 19.8744C46.4523 20.9075 46.2041 21.7476 45.7037 22.3906C45.2034 23.0336 44.5252 23.5008 43.665 23.7923C42.8048 24.0838 41.8206 24.2295 40.7123 24.2295Z" fill="white"/>
<path id="Vector_6" d="M52.822 23.9939V13.9206H48.4922V10.9844H60.7123V13.9206H56.366V23.9939H52.822Z" fill="white"/>
<path id="Vector_7" d="M60.7578 23.9896L65.7451 10.9844H69.8764L74.8637 23.9896H71.1005L70.3685 21.8507H65.1083L64.3763 23.9896H60.7578ZM66.0181 19.1802H69.4546L68.5779 16.5868C68.5282 16.4368 68.4704 16.2568 68.3959 16.0553C68.3215 15.8538 68.2553 15.6309 68.1974 15.3909C68.1354 15.1509 68.0692 14.9151 67.9948 14.6793C67.9203 14.4479 67.8542 14.2464 67.7921 14.0835H67.6846C67.6226 14.3236 67.544 14.5936 67.4489 14.8979C67.3497 15.2023 67.2587 15.5023 67.176 15.8067C67.0891 16.111 66.9981 16.3639 66.903 16.5654L66.0263 19.1802H66.0181Z" fill="white"/>
<path id="Vector_8" d="M77.2812 23.9896V10.9844H85.3205C86.2468 10.9844 87.0201 11.1687 87.6405 11.533C88.2608 11.8974 88.7281 12.3989 89.0382 13.029C89.3484 13.6591 89.5055 14.3536 89.5055 15.1123C89.5055 15.9567 89.3153 16.7111 88.939 17.367C88.5626 18.0228 88.0374 18.5415 87.3675 18.9187L89.8694 23.9939H85.9408L83.8772 19.5059H80.8087V23.9939H77.2812V23.9896ZM80.8087 16.8526H84.4975C84.9235 16.8526 85.2667 16.7026 85.519 16.4068C85.7712 16.111 85.9036 15.7167 85.9036 15.2237C85.9036 14.9194 85.8498 14.6536 85.7382 14.4179C85.6306 14.1864 85.4652 14.0064 85.246 13.8778C85.0269 13.7535 84.7787 13.6892 84.4975 13.6892H80.8087V16.8526Z" fill="white"/>
<path id="Vector_9" d="M96.1032 23.9939V13.9206H91.7734V10.9844H103.994V13.9206H99.6472V23.9939H96.1032Z" fill="white"/>
<path id="Vector_10" d="M106.57 23.9896V10.9844H114.61C115.536 10.9844 116.309 11.1687 116.93 11.533C117.55 11.8974 118.017 12.3989 118.327 13.029C118.637 13.6591 118.795 14.3536 118.795 15.1123C118.795 15.9567 118.604 16.7111 118.228 17.367C117.852 18.0228 117.327 18.5415 116.657 18.9187L119.158 23.9939H115.23L113.166 19.5059H110.098V23.9939H106.57V23.9896ZM110.098 16.8526H113.787C114.213 16.8526 114.556 16.7026 114.808 16.4068C115.06 16.111 115.193 15.7167 115.193 15.2237C115.193 14.9194 115.139 14.6536 115.027 14.4179C114.92 14.1864 114.754 14.0064 114.535 13.8778C114.316 13.7535 114.068 13.6892 113.787 13.6892H110.098V16.8526Z" fill="white"/>
<path id="Vector_11" d="M121.156 23.9896L126.144 10.9844H130.275L135.262 23.9896H131.499L130.767 21.8507H125.507L124.775 23.9896H121.156ZM126.416 19.1802H129.853L128.976 16.5868C128.927 16.4368 128.869 16.2568 128.794 16.0553C128.72 15.8538 128.654 15.6309 128.596 15.3909C128.534 15.1509 128.468 14.9151 128.393 14.6793C128.319 14.4479 128.253 14.2464 128.191 14.0835H128.083C128.021 14.3236 127.942 14.5936 127.847 14.8979C127.748 15.2023 127.657 15.5023 127.574 15.8067C127.488 16.111 127.397 16.3639 127.301 16.5654L126.425 19.1802H126.416Z" fill="white"/>
<path id="Vector_12" d="M137.68 23.9896V10.9844H143.325C144.739 10.9844 145.934 11.2201 146.914 11.6959C147.894 12.1674 148.647 12.8833 149.172 13.8349C149.697 14.7865 149.958 16.0039 149.958 17.4784C149.958 18.953 149.697 20.1575 149.172 21.1219C148.647 22.0864 147.894 22.8065 146.914 23.2823C145.934 23.7539 144.739 23.9939 143.325 23.9939H137.68V23.9896ZM141.207 21.2077H143.254C143.755 21.2077 144.197 21.1348 144.59 20.9891C144.979 20.8433 145.305 20.629 145.566 20.3461C145.826 20.0632 146.021 19.7117 146.149 19.2959C146.277 18.8801 146.339 18.4043 146.339 17.8771V17.1012C146.339 16.5697 146.277 16.0982 146.149 15.6824C146.021 15.2666 145.826 14.9151 145.566 14.6322C145.305 14.3493 144.979 14.135 144.59 13.9892C144.201 13.8435 143.755 13.7706 143.254 13.7706H141.207V21.212V21.2077Z" fill="white"/>
<path id="Vector_13" d="M153.078 23.9896V10.9844H164.207V13.7663H156.606V16.0382H163.111V18.7258H156.606V21.2077H164.207V23.9896H153.078Z" fill="white"/>
<path id="Vector_14" d="M167.414 23.9896V10.9844H175.453C176.38 10.9844 177.153 11.1687 177.773 11.533C178.394 11.8974 178.861 12.3989 179.171 13.029C179.481 13.6591 179.638 14.3536 179.638 15.1123C179.638 15.9567 179.448 16.7111 179.072 17.367C178.695 18.0228 178.17 18.5415 177.5 18.9187L180.002 23.9939H176.074L174.01 19.5059H170.942V23.9939H167.414V23.9896ZM170.937 16.8526H174.626C175.052 16.8526 175.395 16.7026 175.648 16.4068C175.9 16.111 176.032 15.7167 176.032 15.2237C176.032 14.9194 175.978 14.6536 175.867 14.4179C175.759 14.1864 175.594 14.0064 175.375 13.8778C175.156 13.7535 174.907 13.6892 174.626 13.6892H170.937V16.8526Z" fill="white"/>
</g>
</g>
</g>
</svg>
