<svg width="130" height="32" viewBox="0 0 130 32" fill="none" xmlns="http://www.w3.org/2000/svg">
<g clip-path="url(#clip0_8994_57316)">
<mask id="mask0_8994_57316" style="mask-type:luminance" maskUnits="userSpaceOnUse" x="12" y="3" width="106" height="26">
<path d="M117.521 3H12V29H117.521V3Z" fill="white"/>
</mask>
<g mask="url(#mask0_8994_57316)">
<path d="M23.9389 14.3419C24.4866 14.3419 25.1034 13.4875 25.1034 13.4875C24.1449 13.6204 23.1719 13.3783 22.3906 12.8125C22.6235 13.8805 23.3912 14.3419 23.9389 14.3419Z" fill="#EEB822"/>
<path d="M34.0599 3H16.192C15.0817 3.00225 14.0174 3.43988 13.2319 4.21721C12.4463 4.99455 12.0034 6.04834 12 7.14821V24.8475C12.0034 25.9478 12.4462 27.0021 13.2316 27.7801C14.017 28.5581 15.0813 28.9966 16.192 29H34.0599C35.1699 28.9955 36.2331 28.5564 37.0176 27.7785C37.8021 27.0006 38.2442 25.947 38.2476 24.8475V7.14821C38.2442 6.04908 37.8019 4.99592 37.0173 4.21871C36.2327 3.44151 35.1695 3.00338 34.0599 3ZM20.1684 24.2922C19.8794 23.865 18.8142 22.1005 19.1635 19.2169C19.1635 19.2169 18.4649 20.2892 18.7323 23.301C17.5879 22.3417 16.6818 21.1342 16.0842 19.7722C16.5936 18.2575 17.536 16.9218 18.797 15.9274C18.797 15.9274 18.3958 15.6924 15.778 18.4907L15.6788 18.6017C15.422 17.7286 15.2914 16.8239 15.2907 15.9145C15.2917 15.4858 15.322 15.0576 15.3812 14.6329C16.3863 13.8381 17.5397 13.2473 18.7754 12.8942C17.7069 12.8605 16.6509 13.1287 15.7306 13.6674L15.5365 13.7699C15.7488 12.8329 16.1021 11.9329 16.5845 11.0999L16.9425 10.694H23.2693C23.2693 10.694 26.1977 11.2622 26.3616 11.9543C26.5255 12.6464 26.3616 12.6293 26.4478 12.7788C26.5341 12.9283 26.4479 12.9454 26.8791 13.0266C27.3104 13.1078 29.3891 13.881 29.3891 15.9615V16.8502C28.8445 16.2855 28.0984 15.9543 27.3104 15.9274C26.0812 15.9274 24.6624 16.0428 23.9809 16.4059C23.7653 16.5212 25.512 16.5212 25.7319 16.5554C25.9519 16.5896 27.4958 16.9826 27.6942 17.5593C27.8926 18.1361 27.2931 17.2774 26.2279 17.2603C25.1626 17.2432 23.1658 17.2603 21.9712 18.747C20.7765 20.2337 21.225 22.2501 23.3771 25.4242C22.2492 25.2347 21.1633 24.8516 20.1684 24.2922ZM27.9961 9.7072H17.5894C18.6154 8.4998 19.9241 7.55949 21.4012 6.96823C22.8784 6.37697 24.4792 6.15276 26.064 6.31515L27.9961 9.7072ZM27.112 6.48176C28.6583 6.81407 30.1 7.5133 31.3132 8.5194C32.5264 9.52545 33.4749 10.8083 34.0772 12.2577L32.1924 15.1798L27.112 6.48176ZM22.7992 22.3654H32.3348C31.4212 23.3809 30.3009 24.1933 29.0477 24.7492C27.7945 25.3051 26.4366 25.592 25.0634 25.5909C24.8392 25.5909 24.6322 25.5909 24.3993 25.5653L22.7992 22.3654ZM29.4021 21.7033L34.4351 13.253C34.8535 14.6845 34.931 16.1927 34.6616 17.6589C34.3922 19.1251 33.7833 20.5096 32.8825 21.7033H29.4021Z" fill="#EEB822"/>
<path d="M17.5859 9.709H27.9927L26.0606 6.31697C24.4758 6.15458 22.875 6.37879 21.3978 6.97005C19.9207 7.56131 18.612 8.50165 17.5859 9.709Z" fill="#52170F"/>
<path d="M34.0745 12.2603C33.4723 10.8109 32.5238 9.52808 31.3106 8.52198C30.0973 7.51592 28.6556 6.81668 27.1094 6.48438L32.1898 15.1824L34.0745 12.2603Z" fill="#52170F"/>
<path d="M34.4237 13.25L29.3906 21.7002H32.8711C33.7718 20.5065 34.3808 19.1221 34.6502 17.6559C34.9196 16.1897 34.8421 14.6815 34.4237 13.25Z" fill="#52170F"/>
<path d="M32.3246 22.3672H22.7891L24.3891 25.567C24.609 25.567 24.8204 25.5926 25.0533 25.5926C26.4264 25.5937 27.7843 25.3069 29.0375 24.751C30.2908 24.195 31.411 23.3826 32.3246 22.3672Z" fill="#52170F"/>
<path d="M21.9774 18.7716C23.172 17.2849 25.1688 17.2721 26.2341 17.2849C27.2993 17.2978 27.8988 18.1779 27.7005 17.584C27.5021 16.9902 25.9537 16.61 25.7381 16.5801C25.5225 16.5502 23.7715 16.5459 23.9871 16.4306C24.6686 16.0674 26.0875 15.9691 27.3166 15.952C28.1046 15.9789 28.8507 16.3101 29.3954 16.8748V15.9862C29.3954 13.9143 27.3166 13.1325 26.8853 13.0513C26.4541 12.9701 26.536 12.953 26.4541 12.8035C26.3721 12.654 26.536 12.6711 26.3678 11.979C26.1996 11.287 23.2755 10.7188 23.2755 10.7188H16.9487L16.5907 11.1246C16.1083 11.9576 15.7551 12.8576 15.5427 13.7946L15.7368 13.6921C16.6571 13.1534 17.7132 12.8852 18.7816 12.9189C17.5459 13.272 16.3926 13.8629 15.3874 14.6576C15.3282 15.0824 15.298 15.5105 15.2969 15.9392C15.2976 16.8486 15.4283 17.7533 15.685 18.6264L15.7842 18.5153C18.415 15.6957 18.8032 15.952 18.8032 15.952C17.5422 16.9465 16.5998 18.2822 16.0904 19.7969C16.6881 21.1589 17.5941 22.3664 18.7385 23.3257C18.4538 20.3139 19.1697 19.2416 19.1697 19.2416C18.8204 22.1252 19.8857 23.8939 20.1746 24.3168C21.1692 24.8857 22.2566 25.2775 23.3876 25.4746C21.2312 22.2748 20.8043 20.2199 21.9774 18.7716ZM25.1041 13.4785C25.1041 13.4785 24.4874 14.333 23.9397 14.333C23.392 14.333 22.6458 13.8716 22.3914 12.7993C23.1721 13.3666 24.1451 13.6103 25.1041 13.4785Z" fill="#52170F"/>
<path d="M68.9092 13.7578H68.9052C67.9739 13.7578 67.2188 14.5057 67.2188 15.4282V23.1479C67.2188 24.0704 67.9739 24.8183 68.9052 24.8183H68.9092C69.8405 24.8183 70.5956 24.0704 70.5956 23.1479V15.4282C70.5956 14.5057 69.8405 13.7578 68.9092 13.7578Z" fill="#52170F"/>
<path d="M86.4873 13.7578H86.4833C85.552 13.7578 84.7969 14.5057 84.7969 15.4282V23.1479C84.7969 24.0704 85.552 24.8183 86.4833 24.8183H86.4873C87.4186 24.8183 88.1737 24.0704 88.1737 23.1479V15.4282C88.1737 14.5057 87.4186 13.7578 86.4873 13.7578Z" fill="#52170F"/>
<path d="M94.494 24.8112H91.1172V8.95312H101.42V11.6104H94.494V15.3826H100.985V18.0399H94.494V24.8112Z" fill="#52170F"/>
<path d="M109.733 18.8345L105.925 24.8154H102.203L107.81 16.5831L102.531 8.95312H106.77L110.061 14.3531L113.511 8.95312H117.181L111.903 16.5831L117.509 24.8154H113.3L109.733 18.8345Z" fill="#52170F"/>
<path d="M69.0764 12.1496C70.0718 12.1496 70.879 11.3501 70.879 10.3639C70.879 9.37762 70.0718 8.57812 69.0764 8.57812C68.0806 8.57812 67.2734 9.37762 67.2734 10.3639C67.2734 11.3501 68.0806 12.1496 69.0764 12.1496Z" fill="#52170F"/>
<path d="M86.6233 12.1496C87.6187 12.1496 88.4258 11.3501 88.4258 10.3639C88.4258 9.37762 87.6187 8.57812 86.6233 8.57812C85.6274 8.57812 84.8203 9.37762 84.8203 10.3639C84.8203 11.3501 85.6274 12.1496 86.6233 12.1496Z" fill="#52170F"/>
<path d="M49.9637 20.9229L52.5514 11.5243C52.6891 10.997 52.9998 10.53 53.4346 10.1967C53.8695 9.86337 54.4038 9.68267 54.9537 9.68302C55.5149 9.68312 56.0596 9.87152 56.4989 10.2175C56.9383 10.5635 57.2464 11.0467 57.3731 11.5884L59.7408 20.9357H59.8271L62.1646 10.2127C62.2385 9.87397 62.4274 9.57052 62.6998 9.35287C62.9719 9.13522 63.3111 9.01652 63.6609 9.01657C63.8941 9.01667 64.1238 9.06942 64.3333 9.17082C64.5422 9.27222 64.7254 9.41957 64.8688 9.60167C65.0116 9.78377 65.1111 9.99582 65.159 10.2216C65.2065 10.4475 65.2019 10.6811 65.1449 10.9048L62.0266 23.0718C61.8928 23.589 61.5894 24.0475 61.1639 24.3754C60.7385 24.7033 60.2151 24.8819 59.6762 24.8831C59.1283 24.8829 58.5967 24.6991 58.1676 24.3618C57.7385 24.0244 57.4373 23.5532 57.3127 23.0248L55.1563 13.5493C55.1422 13.4832 55.1055 13.4239 55.0525 13.3813C54.9995 13.3388 54.9334 13.3156 54.8652 13.3156C54.797 13.3156 54.7309 13.3388 54.6779 13.3813C54.6249 13.4239 54.5883 13.4832 54.5741 13.5493L52.2409 23.029C52.1032 23.5602 51.7913 24.0309 51.3541 24.3673C50.9169 24.7037 50.3793 24.8866 49.8257 24.8874C49.2667 24.8869 48.7239 24.7005 48.2844 24.3581C47.845 24.0158 47.5342 23.5372 47.402 22.9991L44.4822 11.1013C44.4179 10.8513 44.4126 10.59 44.4667 10.3376C44.5209 10.0852 44.6331 9.84862 44.7945 9.64612C44.9559 9.44367 45.1623 9.28077 45.3976 9.17007C45.6329 9.05942 45.8908 9.00397 46.1512 9.00802C46.5434 9.00822 46.9234 9.14272 47.2268 9.38877C47.5302 9.63482 47.7383 9.97727 47.816 10.358L49.9637 20.9229Z" fill="#52170F"/>
<path d="M75.3109 9.00782C75.5335 9.00727 75.7536 9.05022 75.9585 9.13417C76.164 9.21812 76.3507 9.34147 76.5077 9.49707C76.6647 9.65272 76.7894 9.83752 76.8742 10.041C76.959 10.2444 77.0024 10.4624 77.0019 10.6825V17.0907L79.8654 14.3437C80.0067 14.1686 80.1829 14.0246 80.3833 13.9208C80.5842 13.8171 80.8042 13.756 81.0299 13.7413C81.2999 13.7401 81.5649 13.8148 81.7936 13.9567C82.0227 14.0985 82.206 14.3018 82.3231 14.5429C82.4402 14.784 82.4856 15.053 82.4543 15.3187C82.423 15.5844 82.3165 15.8359 82.1469 16.044L80.3182 17.7187C80.192 17.8728 80.1188 18.0626 80.1087 18.2607C80.0986 18.4588 80.1526 18.655 80.2621 18.8209L82.6643 22.435C82.8223 22.675 82.9116 22.9526 82.9232 23.2387C82.9348 23.5247 82.8682 23.8086 82.7299 24.0602C82.5921 24.3119 82.3882 24.5219 82.1398 24.6683C81.8915 24.8146 81.6078 24.8917 81.3186 24.8915C81.0334 24.8906 80.7528 24.8146 80.5064 24.6712C80.2601 24.5279 80.0567 24.3223 79.9174 24.0755L77.0019 18.8892V23.2168C77.0019 23.661 76.8237 24.087 76.5067 24.401C76.1897 24.7151 75.7597 24.8915 75.3109 24.8915C74.8637 24.8904 74.4347 24.7134 74.1187 24.3995C73.8022 24.0856 73.625 23.6603 73.625 23.2168V10.6996C73.624 10.4799 73.6674 10.2622 73.7517 10.0591C73.8365 9.85587 73.9607 9.67122 74.1172 9.51567C74.2736 9.36012 74.4599 9.23672 74.6648 9.15247C74.8698 9.06827 75.0893 9.02492 75.3109 9.02492V9.00782Z" fill="#52170F"/>
</g>
</g>
<defs>
<clipPath id="clip0_8994_57316">
<rect width="106" height="26" fill="white" transform="translate(12 3)"/>
</clipPath>
</defs>
</svg>
