<svg width="100" height="25" viewBox="0 0 100 25" fill="none" xmlns="http://www.w3.org/2000/svg">

<g id="Homepage_Ui">

<g id="Group 16337">
<g id="WikiFX_Eng_idz3DcRs0w_1 3 Component" >
<g id="Clip path group">
<mask id="mask0_703_56" style="mask-type:luminance" maskUnits="userSpaceOnUse" x="0" y="0" width="100" height="25">
<g id="clip0_506_1752">
<path id="Vector" d="M99.5481 0H0V25H99.5481V0Z" fill="white"/>
</g>
</mask>
<g mask="url(#mask0_703_56)">
<g id="Group">
<path id="Vector_2" d="M11.2621 10.9022C11.7788 10.9022 12.3606 10.0807 12.3606 10.0807C11.4564 10.2085 10.5385 9.97568 9.80143 9.43164C10.0211 10.4586 10.7454 10.9022 11.2621 10.9022Z" fill="#C7C7C7"/>
<path id="Vector_3" d="M20.8112 0H3.95474C2.90724 0.0021666 1.9032 0.422964 1.16212 1.17039C0.421047 1.91783 0.0032242 2.93109 0 3.98866V21.0072C0.0032193 22.0652 0.420911 23.0789 1.16187 23.827C1.90283 24.575 2.90687 24.9967 3.95474 25H20.8112C21.8584 24.9957 22.8614 24.5735 23.6015 23.8255C24.3416 23.0775 24.7587 22.0645 24.7619 21.0072V3.98866C24.7587 2.9318 24.3414 1.91916 23.6012 1.17184C22.861 0.424525 21.858 0.00325023 20.8112 0ZM7.70605 20.4732C7.43343 20.0625 6.42848 18.3659 6.75805 15.5932C6.75805 15.5932 6.09895 16.6242 6.35119 19.5202C5.27162 18.5977 4.41682 17.4367 3.85302 16.1272C4.33356 14.6707 5.22262 13.3863 6.41224 12.4301C6.41224 12.4301 6.03381 12.2042 3.56415 14.8949L3.47057 15.0016C3.22833 14.1622 3.10505 13.2923 3.10439 12.4178C3.10541 12.0056 3.13396 11.5939 3.18983 11.1855C4.13805 10.4213 5.22614 9.85317 6.39186 9.51365C5.38391 9.48125 4.38761 9.73913 3.5194 10.2572L3.3363 10.3557C3.53664 9.45476 3.86992 8.58933 4.32499 7.78837L4.66269 7.39812H10.6314C10.6314 7.39812 13.394 7.94447 13.5487 8.6099C13.7033 9.27538 13.5487 9.25894 13.63 9.40274C13.7114 9.54649 13.63 9.56293 14.0369 9.64096C14.4438 9.71904 16.4049 10.4625 16.4049 12.463V13.3175C15.891 12.7745 15.1871 12.456 14.4438 12.4301C13.2842 12.4301 11.9456 12.5411 11.3028 12.8902C11.0993 13.0012 12.7471 13.0012 12.9546 13.034C13.1621 13.0669 14.6187 13.4448 14.8059 13.9993C14.993 14.5539 14.4275 13.7282 13.4225 13.7118C12.4176 13.6954 10.5338 13.7118 9.40676 15.1413C8.27971 16.5708 8.70286 18.5097 10.7331 21.5618C9.66905 21.3796 8.64467 21.0112 7.70605 20.4732ZM15.0907 6.44923H5.273C6.24091 5.28827 7.47552 4.38412 8.8691 3.81561C10.2627 3.24709 11.7729 3.0315 13.2679 3.18764L15.0907 6.44923ZM14.2566 3.34785C15.7153 3.66737 17.0754 4.33971 18.22 5.30712C19.3646 6.27447 20.2594 7.50798 20.8275 8.90159L19.0495 11.7113L14.2566 3.34785ZM10.188 18.6206H19.1838C18.3219 19.597 17.265 20.3782 16.0827 20.9127C14.9004 21.4472 13.6194 21.723 12.324 21.722C12.1124 21.722 11.9171 21.722 11.6974 21.6974L10.188 18.6206ZM16.417 17.9839L21.1652 9.8587C21.5599 11.2351 21.633 12.6853 21.3789 14.0951C21.1248 15.505 20.5502 16.8361 19.7005 17.9839H16.417Z" fill="#C7C7C7"/>
<path id="Vector_4" d="M5.27295 6.44912H15.0907L13.2679 3.18755C11.7729 3.03141 10.2627 3.247 8.86909 3.81551C7.47552 4.38403 6.2409 5.28821 5.27295 6.44912Z" fill="#E1E1E1"/>
<path id="Vector_5" d="M20.8275 8.90141C20.2594 7.5078 19.3646 6.27429 18.22 5.30689C17.0755 4.33953 15.7154 3.66718 14.2567 3.34766L19.0495 11.7111L20.8275 8.90141Z" fill="#E1E1E1"/>
<path id="Vector_6" d="M21.157 9.85889L16.4089 17.9841H19.6923C20.5421 16.8363 21.1166 15.5052 21.3708 14.0953C21.6249 12.6855 21.5518 11.2354 21.157 9.85889Z" fill="#E1E1E1"/>
<path id="Vector_7" d="M19.1757 18.6206H10.1799L11.6893 21.6973C11.8968 21.6973 12.0962 21.722 12.3159 21.722C13.6113 21.7231 14.8923 21.4472 16.0746 20.9127C17.2569 20.3782 18.3138 19.597 19.1757 18.6206Z" fill="#E1E1E1"/>
<path id="Vector_8" d="M9.41086 15.166C10.5379 13.7365 12.4217 13.7242 13.4266 13.7365C14.4316 13.7489 14.9971 14.5951 14.81 14.0241C14.6228 13.4531 13.1621 13.0875 12.9587 13.0587C12.7553 13.03 11.1034 13.0259 11.3069 12.915C11.9497 12.5658 13.2883 12.4713 14.4479 12.4549C15.1912 12.4807 15.8951 12.7992 16.409 13.3422V12.4878C16.409 10.4955 14.4479 9.74377 14.041 9.66569C13.6341 9.58766 13.7114 9.57122 13.6341 9.42747C13.5568 9.28367 13.7114 9.30011 13.5528 8.63463C13.3941 7.9692 10.6355 7.42285 10.6355 7.42285H4.66679L4.32909 7.81309C3.87402 8.61405 3.54074 9.47949 3.3404 10.3804L3.52349 10.2819C4.3917 9.76386 5.388 9.50598 6.39595 9.53838C5.23024 9.8779 4.14215 10.446 3.19393 11.2102C3.13806 11.6186 3.10951 12.0303 3.10849 12.4426C3.10915 13.317 3.23243 14.1869 3.47467 15.0264L3.56825 14.9196C6.05014 12.2084 6.41633 12.4549 6.41633 12.4549C5.22671 13.4111 4.33766 14.6954 3.85712 16.1519C4.42092 17.4615 5.27571 18.6225 6.35529 19.5449C6.08676 16.649 6.76214 15.6179 6.76214 15.6179C6.43257 18.3906 7.43757 20.0913 7.71014 20.4979C8.64838 21.045 9.67429 21.4217 10.7413 21.6112C8.70695 18.5344 8.30419 16.5586 9.41086 15.166ZM12.3606 10.0765C12.3606 10.0765 11.7788 10.898 11.2621 10.898C10.7454 10.898 10.0415 10.4544 9.80143 9.42333C10.5379 9.96881 11.4559 10.2031 12.3606 10.0765Z" fill="#E4E4E4"/>
<path id="Vector_9" d="M53.69 10.3433H53.6862C52.8076 10.3433 52.0952 11.0623 52.0952 11.9494V19.3722C52.0952 20.2592 52.8076 20.9783 53.6862 20.9783H53.69C54.5686 20.9783 55.2809 20.2592 55.2809 19.3722V11.9494C55.2809 11.0623 54.5686 10.3433 53.69 10.3433Z" fill="#C7C7C7"/>
<path id="Vector_10" d="M70.2738 10.3433H70.27C69.3914 10.3433 68.679 11.0623 68.679 11.9494V19.3722C68.679 20.2592 69.3914 20.9783 70.27 20.9783H70.2738C71.1524 20.9783 71.8648 20.2592 71.8648 19.3722V11.9494C71.8648 11.0623 71.1524 10.3433 70.2738 10.3433Z" fill="#C7C7C7"/>
<path id="Vector_11" d="M77.8252 20.9742H74.6395V5.72607H84.3595V8.28112H77.8252V11.9083H83.9491V14.4633H77.8252V20.9742Z" fill="#C7C7C7"/>
<path id="Vector_12" d="M92.2 15.2235L88.6076 20.9744H85.0962L90.3852 13.0587L85.4052 5.72217H89.4048L92.509 10.9144L95.7643 5.72217H99.2267L94.2467 13.0587L99.5357 20.9744H95.5648L92.2 15.2235Z" fill="#C7C7C7"/>
<path id="Vector_13" d="M53.8448 8.79497C54.7838 8.79497 55.5452 8.02622 55.5452 7.07791C55.5452 6.12959 54.7838 5.36084 53.8448 5.36084C52.9052 5.36084 52.1438 6.12959 52.1438 7.07791C52.1438 8.02622 52.9052 8.79497 53.8448 8.79497Z" fill="#C7C7C7"/>
<path id="Vector_14" d="M70.3962 8.79497C71.3352 8.79497 72.0967 8.02622 72.0967 7.07791C72.0967 6.12959 71.3352 5.36084 70.3962 5.36084C69.4567 5.36084 68.6952 6.12959 68.6952 7.07791C68.6952 8.02622 69.4567 8.79497 70.3962 8.79497Z" fill="#C7C7C7"/>
<path id="Vector_15" d="M35.8124 17.2322L38.2536 8.19506C38.3835 7.68804 38.6766 7.23905 39.0869 6.91852C39.4971 6.59804 40.0012 6.42429 40.5199 6.42463C41.0494 6.42472 41.5632 6.60588 41.9777 6.93857C42.3922 7.27126 42.6829 7.73588 42.8024 8.2567L45.0361 17.2445H45.1175L47.3227 6.93395C47.3924 6.60823 47.5706 6.31646 47.8276 6.10718C48.0843 5.8979 48.4043 5.78376 48.7343 5.78381C48.9543 5.78391 49.171 5.83463 49.3686 5.93213C49.5657 6.02963 49.7386 6.17131 49.8738 6.34641C50.0086 6.5215 50.1024 6.7254 50.1476 6.94251C50.1924 7.15968 50.1881 7.38434 50.1343 7.59944L47.1925 19.2984C47.0663 19.7957 46.78 20.2366 46.3786 20.5519C45.9773 20.8672 45.4836 21.0389 44.9751 21.0401C44.4583 21.0399 43.9567 20.8632 43.552 20.5388C43.1471 20.2144 42.863 19.7614 42.7454 19.2532L40.7111 10.1422C40.6978 10.0786 40.6632 10.0216 40.6132 9.98069C40.5632 9.93982 40.5008 9.91751 40.4365 9.91751C40.3721 9.91751 40.3097 9.93982 40.2597 9.98069C40.2098 10.0216 40.1752 10.0786 40.1619 10.1422L37.9607 19.2573C37.8308 19.768 37.5365 20.2207 37.1241 20.5441C36.7117 20.8676 36.2045 21.0435 35.6822 21.0442C35.1548 21.0437 34.6428 20.8645 34.2282 20.5353C33.8136 20.2061 33.5204 19.746 33.3957 19.2286L30.6411 7.78838C30.5805 7.54799 30.5755 7.2967 30.6266 7.054C30.6777 6.81136 30.7835 6.58386 30.9358 6.38915C31.0881 6.19448 31.2828 6.03785 31.5048 5.93141C31.7268 5.82501 31.9701 5.7717 32.2157 5.77559C32.5857 5.77578 32.9441 5.90511 33.2304 6.1417C33.5166 6.37828 33.713 6.70756 33.7862 7.07362L35.8124 17.2322Z" fill="#C7C7C7"/>
<path id="Vector_16" d="M59.7238 5.7754C59.9338 5.77487 60.1414 5.81617 60.3348 5.89689C60.5286 5.97761 60.7048 6.09621 60.8529 6.24583C61.001 6.39549 61.1186 6.57318 61.1986 6.76881C61.2786 6.96443 61.3195 7.17405 61.319 7.38568V13.5474L64.0205 10.906C64.1538 10.7377 64.32 10.5992 64.509 10.4994C64.6986 10.3997 64.9062 10.3409 65.119 10.3268C65.3738 10.3256 65.6238 10.3975 65.8395 10.5339C66.0557 10.6703 66.2286 10.8658 66.339 11.0976C66.4495 11.3294 66.4924 11.5881 66.4629 11.8436C66.4333 12.0991 66.3329 12.3409 66.1729 12.5409L64.4476 14.1512C64.3286 14.2994 64.2595 14.4819 64.25 14.6724C64.2405 14.8629 64.2914 15.0515 64.3948 15.211L66.661 18.6862C66.81 18.9169 66.8943 19.1839 66.9052 19.4589C66.9162 19.734 66.8533 20.0069 66.7229 20.2489C66.5929 20.4908 66.4005 20.6928 66.1662 20.8335C65.9319 20.9742 65.6643 21.0484 65.3914 21.0482C65.1224 21.0473 64.8576 20.9742 64.6252 20.8364C64.3929 20.6985 64.201 20.5009 64.0695 20.2636L61.319 15.2767V19.4379C61.319 19.865 61.151 20.2746 60.8519 20.5766C60.5529 20.8785 60.1471 21.0482 59.7238 21.0482C59.3019 21.0471 58.8971 20.8769 58.599 20.5751C58.3005 20.2732 58.1333 19.8643 58.1333 19.4379V7.40208C58.1324 7.19083 58.1733 6.98155 58.2529 6.78621C58.3329 6.59083 58.45 6.41328 58.5976 6.26371C58.7452 6.11415 58.921 5.99549 59.1143 5.91448C59.3076 5.83352 59.5148 5.79184 59.7238 5.79184V5.7754Z" fill="#C7C7C7"/>
</g>
</g>
</g>
</g>
</g>
</g>
<defs>

</defs>
</svg>
