<svg width="100" height="25" viewBox="0 0 100 25" fill="none" xmlns="http://www.w3.org/2000/svg">

<g id="Homepage_Ui">

<g id="Group 16339">
<g id="Myfxbook_Logo 2 Component">
<path id="Vector" d="M18.3866 6.21455C19.6202 6.21455 20.5988 6.59403 21.3224 7.35298C22.0578 8.11191 22.4255 9.16605 22.4255 10.5153V16.4062H19.4008V10.9309C19.4008 10.2804 19.2288 9.78043 18.8848 9.43105C18.5527 9.06965 18.0901 8.88895 17.497 8.88895C16.9039 8.88895 16.4354 9.06965 16.0915 9.43105C15.7593 9.78043 15.5932 10.2804 15.5932 10.9309V16.4062H12.5685V10.9309C12.5685 10.2804 12.3965 9.78043 12.0525 9.43105C11.7205 9.06965 11.2578 8.88895 10.6648 8.88895C10.0717 8.88895 9.60315 9.06965 9.25915 9.43105C8.92707 9.78043 8.761 10.2804 8.761 10.9309V16.4062H5.71851V6.32298H8.761V7.5879C9.06938 7.16626 9.47269 6.83497 9.97084 6.59403C10.4691 6.34105 11.0325 6.21455 11.6612 6.21455C12.4084 6.21455 13.0727 6.37719 13.6538 6.70245C14.2469 7.02772 14.7095 7.49152 15.0417 8.09387C15.3857 7.53971 15.8542 7.08795 16.4472 6.73859C17.0404 6.38923 17.6868 6.21455 18.3866 6.21455ZM34.6949 6.32298L28.4676 21.1949H25.1938L27.4713 16.0629L23.4324 6.32298H26.8308L29.1259 12.6295L31.4034 6.32298H34.6949ZM52.3904 7.75053C52.6751 7.2807 53.0843 6.90123 53.6181 6.6121C54.1518 6.32298 54.7627 6.17841 55.4506 6.17841C56.2691 6.17841 57.0105 6.38923 57.6747 6.81087C58.3389 7.23252 58.8608 7.83488 59.2404 8.61793C59.6318 9.40098 59.8275 10.3105 59.8275 11.3465C59.8275 12.3825 59.6318 13.2981 59.2404 14.0932C58.8608 14.8763 58.3389 15.4846 57.6747 15.9183C57.0105 16.34 56.2691 16.5507 55.4506 16.5507C54.7509 16.5507 54.1399 16.4122 53.6181 16.1351C53.0962 15.8461 52.6869 15.4665 52.3904 14.9968V16.4062H49.3479V3.03418H52.3904V7.75053ZM56.7317 11.3465C56.7317 10.5755 56.5182 9.97316 56.0912 9.53949C55.676 9.09379 55.1601 8.8709 54.5432 8.8709C53.9383 8.8709 53.4223 9.09379 52.9953 9.53949C52.5802 9.98519 52.3726 10.5936 52.3726 11.3646C52.3726 12.1356 52.5802 12.7439 52.9953 13.1897C53.4223 13.6354 53.9383 13.8583 54.5432 13.8583C55.1482 13.8583 55.6642 13.6354 56.0912 13.1897C56.5182 12.7319 56.7317 12.1175 56.7317 11.3465ZM65.943 16.5507C64.9703 16.5507 64.0925 16.34 63.3097 15.9183C62.5387 15.4967 61.9278 14.8943 61.4771 14.1113C61.0382 13.3282 60.8188 12.4127 60.8188 11.3646C60.8188 10.3286 61.0442 9.41902 61.4949 8.63598C61.9456 7.8409 62.5625 7.23252 63.3453 6.81087C64.1282 6.38923 65.0059 6.17841 65.9785 6.17841C66.9512 6.17841 67.8289 6.38923 68.6118 6.81087C69.3947 7.23252 70.0115 7.8409 70.4622 8.63598C70.9129 9.41902 71.1383 10.3286 71.1383 11.3646C71.1383 12.4007 70.907 13.3162 70.4444 14.1113C69.9937 14.8943 69.3709 15.4967 68.5762 15.9183C67.7934 16.34 66.9156 16.5507 65.943 16.5507ZM65.943 13.8764C66.5242 13.8764 67.0165 13.6595 67.4197 13.2258C67.8349 12.7921 68.0425 12.1718 68.0425 11.3646C68.0425 10.5575 67.8409 9.93707 67.4375 9.50332C67.0461 9.06965 66.5598 8.85285 65.9785 8.85285C65.3855 8.85285 64.8932 9.06965 64.5018 9.50332C64.1104 9.92496 63.9146 10.5454 63.9146 11.3646C63.9146 12.1718 64.1045 12.7921 64.484 13.2258C64.8755 13.6595 65.3618 13.8764 65.943 13.8764ZM77.2715 16.5507C76.299 16.5507 75.4212 16.34 74.6384 15.9183C73.8674 15.4967 73.2565 14.8943 72.8058 14.1113C72.3669 13.3282 72.1475 12.4127 72.1475 11.3646C72.1475 10.3286 72.3728 9.41902 72.8236 8.63598C73.2743 7.8409 73.8912 7.23252 74.674 6.81087C75.4569 6.38923 76.3346 6.17841 77.3069 6.17841C78.28 6.17841 79.1577 6.38923 79.9408 6.81087C80.7231 7.23252 81.34 7.8409 81.7908 8.63598C82.2415 9.41902 82.4669 10.3286 82.4669 11.3646C82.4669 12.4007 82.2354 13.3162 81.7731 14.1113C81.3223 14.8943 80.7 15.4967 79.9046 15.9183C79.1223 16.34 78.2446 16.5507 77.2715 16.5507ZM77.2715 13.8764C77.8531 13.8764 78.3454 13.6595 78.7485 13.2258C79.1639 12.7921 79.3715 12.1718 79.3715 11.3646C79.3715 10.5575 79.1692 9.93707 78.7662 9.50332C78.3746 9.06965 77.8885 8.85285 77.3069 8.85285C76.7142 8.85285 76.2219 9.06965 75.8305 9.50332C75.4391 9.92496 75.2433 10.5454 75.2433 11.3646C75.2433 12.1718 75.4332 12.7921 75.8127 13.2258C76.2042 13.6595 76.6905 13.8764 77.2715 13.8764ZM90.1485 16.4062L87.1239 12.1778V16.4062H84.0808V3.03418H87.1239V10.425L90.1308 6.32298H93.8846L89.7569 11.3827L93.92 16.4062H90.1485Z" fill="#C7C7C7"/>
<path id="Vector_2" d="M41.729 4.07129C42.4704 4.07129 42.9453 4.27128 43.1538 4.67127C43.1538 5.43597 42.9453 5.81832 42.5283 5.81832C42.3429 5.81832 42.1779 5.73009 42.0331 5.55362C41.8941 5.37127 41.7522 5.19186 41.6074 5.01539C41.4684 4.83304 41.3005 4.74186 41.1036 4.74186C40.7329 4.74186 40.339 5.12715 39.922 5.89773C39.5108 6.65654 39.1865 7.73005 38.949 9.11827V9.15358C38.949 9.20061 38.9664 9.22413 39.0011 9.22413H40.9992C41.0572 9.22413 41.0862 9.29475 41.0862 9.43592C41.0862 9.63006 41.0225 9.82999 40.895 10.0359H38.8621C38.7984 10.0359 38.7636 10.083 38.7579 10.1771L37.8022 15.4535C37.5242 17.0887 37.0348 18.3358 36.334 19.1946C35.6332 20.0534 34.8716 20.4828 34.0492 20.4828C33.6437 20.4828 33.3252 20.4093 33.0936 20.2623C32.8619 20.1151 32.7112 19.9475 32.6418 19.7593C32.6302 19.4887 32.6939 19.2476 32.8329 19.0358C32.9719 18.824 33.1456 18.7181 33.3542 18.7181C33.5163 18.7181 33.6582 18.8064 33.7799 18.9828C33.8957 19.1651 34.0202 19.3446 34.1534 19.5211C34.2809 19.7034 34.443 19.7946 34.6399 19.7946C34.8716 19.7946 35.0888 19.6563 35.2915 19.3799C35.5 19.1093 35.6882 18.7711 35.8562 18.3652C36.0242 17.9593 36.1632 17.5534 36.2732 17.1476C36.3832 16.7417 36.4586 16.4064 36.4991 16.1417L37.5416 10.1594V10.1241C37.5416 10.0653 37.5242 10.0359 37.4895 10.0359H36.3601C36.3369 10.0359 36.3253 10.0183 36.3253 9.98295C36.3253 9.91241 36.3688 9.81827 36.4556 9.70061C36.5426 9.57709 36.6496 9.46827 36.7771 9.37413C36.9103 9.27413 37.0377 9.22413 37.1593 9.22413H37.6632C37.7096 9.22413 37.7443 9.17124 37.7675 9.0653C37.9239 8.10061 38.2019 7.24183 38.6015 6.4889C39.0069 5.73597 39.4819 5.1448 40.0262 4.71539C40.5765 4.28598 41.1441 4.07129 41.729 4.07129ZM43.5882 8.73006C44.0747 8.73006 44.4686 9.24178 44.7697 10.2653L45.1346 11.5183L46.1597 9.73592C46.542 9.0653 47.0285 8.73006 47.6192 8.73006C48.0189 8.73006 48.3548 8.84772 48.627 9.08295C48.7197 9.2653 48.766 9.41827 48.766 9.54178C48.766 9.71827 48.7052 9.86827 48.5836 9.99178C48.4619 10.1153 48.3375 10.1771 48.21 10.1771C48.0536 10.1771 47.8828 10.0859 47.6975 9.90358C47.5121 9.72123 47.3355 9.63006 47.1675 9.63006C47.0285 9.63006 46.8721 9.78295 46.6984 10.0888L45.3952 12.3476L46.1424 14.8358C46.2582 15.2358 46.4146 15.4358 46.6115 15.4358C46.7852 15.4358 46.9706 15.3447 47.1675 15.1623C47.3644 14.9799 47.5034 14.8123 47.5846 14.6594C47.6309 14.6594 47.6888 14.7064 47.7582 14.8005C47.8278 14.8947 47.8626 14.9652 47.8626 15.0123C47.8393 15.1417 47.7293 15.327 47.5324 15.5682C47.3412 15.8034 47.1125 16.0182 46.8461 16.2123C46.5854 16.4005 46.3335 16.4946 46.0902 16.4946C45.6096 16.4946 45.2157 15.9829 44.9087 14.9594L44.5091 13.5829L43.4145 15.5064C43.0322 16.177 42.5457 16.5123 41.9549 16.5123C41.5553 16.5123 41.2194 16.3946 40.9472 16.1594C40.8545 15.9946 40.8082 15.8417 40.8082 15.7005C40.8082 15.524 40.8689 15.374 40.9906 15.2505C41.1122 15.127 41.2367 15.0652 41.3642 15.0652C41.5206 15.0652 41.6914 15.1564 41.8767 15.3387C42.0621 15.5211 42.2387 15.6123 42.4067 15.6123C42.5457 15.6123 42.7021 15.4594 42.8758 15.1535L44.2485 12.7535L43.5361 10.3888C43.4202 9.98881 43.2639 9.78881 43.0669 9.78881C42.8932 9.78881 42.7079 9.87998 42.5109 10.0624C42.314 10.2448 42.175 10.4123 42.0939 10.5653C42.0476 10.5653 41.9896 10.5183 41.9202 10.4241C41.8506 10.33 41.8159 10.2594 41.8159 10.2124C41.8391 10.0771 41.9462 9.89178 42.1373 9.65647C42.3342 9.42123 42.5659 9.20944 42.8324 9.02123C43.0988 8.82709 43.3507 8.73006 43.5882 8.73006Z" fill="#C7C7C7"/>
</g>
</g>
</g>
</svg>
