<svg width="100" height="25" viewBox="0 0 100 25" fill="none" xmlns="http://www.w3.org/2000/svg">
<g clip-path="url(#clip0_808_33)">
<path d="M18.3866 6.21455C19.6202 6.21455 20.5988 6.59403 21.3224 7.35298C22.0578 8.11191 22.4255 9.16605 22.4255 10.5153V16.4062H19.4008V10.9309C19.4008 10.2804 19.2288 9.78043 18.8848 9.43105C18.5527 9.06965 18.0901 8.88895 17.497 8.88895C16.9039 8.88895 16.4354 9.06965 16.0915 9.43105C15.7593 9.78043 15.5932 10.2804 15.5932 10.9309V16.4062H12.5685V10.9309C12.5685 10.2804 12.3965 9.78043 12.0525 9.43105C11.7205 9.06965 11.2578 8.88895 10.6648 8.88895C10.0717 8.88895 9.60315 9.06965 9.25915 9.43105C8.92707 9.78043 8.761 10.2804 8.761 10.9309V16.4062H5.71851V6.32298H8.761V7.5879C9.06938 7.16626 9.47269 6.83497 9.97084 6.59403C10.4691 6.34105 11.0325 6.21455 11.6612 6.21455C12.4084 6.21455 13.0727 6.37719 13.6538 6.70245C14.2469 7.02772 14.7095 7.49152 15.0417 8.09387C15.3857 7.53971 15.8542 7.08795 16.4472 6.73859C17.0404 6.38923 17.6868 6.21455 18.3866 6.21455ZM34.6949 6.32298L28.4676 21.1949H25.1938L27.4713 16.0629L23.4324 6.32298H26.8308L29.1259 12.6295L31.4034 6.32298H34.6949ZM52.3904 7.75053C52.6751 7.2807 53.0843 6.90123 53.6181 6.6121C54.1518 6.32298 54.7627 6.17841 55.4506 6.17841C56.2691 6.17841 57.0105 6.38923 57.6747 6.81087C58.3389 7.23252 58.8608 7.83488 59.2404 8.61793C59.6318 9.40098 59.8275 10.3105 59.8275 11.3465C59.8275 12.3825 59.6318 13.2981 59.2404 14.0932C58.8608 14.8763 58.3389 15.4846 57.6747 15.9183C57.0105 16.34 56.2691 16.5507 55.4506 16.5507C54.7509 16.5507 54.1399 16.4122 53.6181 16.1351C53.0962 15.8461 52.6869 15.4665 52.3904 14.9968V16.4062H49.3479V3.03418H52.3904V7.75053ZM56.7317 11.3465C56.7317 10.5755 56.5182 9.97316 56.0912 9.53949C55.676 9.09379 55.1601 8.8709 54.5432 8.8709C53.9383 8.8709 53.4223 9.09379 52.9953 9.53949C52.5802 9.98519 52.3726 10.5936 52.3726 11.3646C52.3726 12.1356 52.5802 12.7439 52.9953 13.1897C53.4223 13.6354 53.9383 13.8583 54.5432 13.8583C55.1482 13.8583 55.6642 13.6354 56.0912 13.1897C56.5182 12.7319 56.7317 12.1175 56.7317 11.3465ZM65.943 16.5507C64.9703 16.5507 64.0925 16.34 63.3097 15.9183C62.5387 15.4967 61.9278 14.8943 61.4771 14.1113C61.0382 13.3282 60.8188 12.4127 60.8188 11.3646C60.8188 10.3286 61.0442 9.41902 61.4949 8.63598C61.9456 7.8409 62.5625 7.23252 63.3453 6.81087C64.1282 6.38923 65.0059 6.17841 65.9785 6.17841C66.9512 6.17841 67.8289 6.38923 68.6118 6.81087C69.3947 7.23252 70.0115 7.8409 70.4622 8.63598C70.9129 9.41902 71.1383 10.3286 71.1383 11.3646C71.1383 12.4007 70.907 13.3162 70.4444 14.1113C69.9937 14.8943 69.3709 15.4967 68.5762 15.9183C67.7934 16.34 66.9156 16.5507 65.943 16.5507ZM65.943 13.8764C66.5242 13.8764 67.0165 13.6595 67.4197 13.2258C67.8349 12.7921 68.0425 12.1718 68.0425 11.3646C68.0425 10.5575 67.8409 9.93707 67.4375 9.50332C67.0461 9.06965 66.5598 8.85285 65.9785 8.85285C65.3855 8.85285 64.8932 9.06965 64.5018 9.50332C64.1104 9.92496 63.9146 10.5454 63.9146 11.3646C63.9146 12.1718 64.1045 12.7921 64.484 13.2258C64.8755 13.6595 65.3618 13.8764 65.943 13.8764ZM77.2715 16.5507C76.299 16.5507 75.4212 16.34 74.6384 15.9183C73.8674 15.4967 73.2565 14.8943 72.8058 14.1113C72.3669 13.3282 72.1475 12.4127 72.1475 11.3646C72.1475 10.3286 72.3728 9.41902 72.8236 8.63598C73.2743 7.8409 73.8912 7.23252 74.674 6.81087C75.4569 6.38923 76.3346 6.17841 77.3069 6.17841C78.28 6.17841 79.1577 6.38923 79.9408 6.81087C80.7231 7.23252 81.34 7.8409 81.7908 8.63598C82.2415 9.41902 82.4669 10.3286 82.4669 11.3646C82.4669 12.4007 82.2354 13.3162 81.7731 14.1113C81.3223 14.8943 80.7 15.4967 79.9046 15.9183C79.1223 16.34 78.2446 16.5507 77.2715 16.5507ZM77.2715 13.8764C77.8531 13.8764 78.3454 13.6595 78.7485 13.2258C79.1639 12.7921 79.3715 12.1718 79.3715 11.3646C79.3715 10.5575 79.1692 9.93707 78.7662 9.50332C78.3746 9.06965 77.8885 8.85285 77.3069 8.85285C76.7142 8.85285 76.2219 9.06965 75.8305 9.50332C75.4391 9.92496 75.2433 10.5454 75.2433 11.3646C75.2433 12.1718 75.4332 12.7921 75.8127 13.2258C76.2042 13.6595 76.6905 13.8764 77.2715 13.8764ZM90.1485 16.4062L87.1239 12.1778V16.4062H84.0808V3.03418H87.1239V10.425L90.1308 6.32298H93.8846L89.7569 11.3827L93.92 16.4062H90.1485Z" fill="#373737"/>
<path d="M41.729 4.07117C42.4704 4.07117 42.9453 4.27116 43.1538 4.67115C43.1538 5.43585 42.9453 5.8182 42.5283 5.8182C42.3429 5.8182 42.1779 5.72996 42.0331 5.5535C41.8941 5.37114 41.7522 5.19174 41.6074 5.01527C41.4684 4.83292 41.3004 4.74174 41.1035 4.74174C40.7328 4.74174 40.339 5.12703 39.922 5.8976C39.5108 6.65642 39.1864 7.72993 38.949 9.11814V9.15346C38.949 9.20049 38.9664 9.224 39.0011 9.224H40.9992C41.0571 9.224 41.0861 9.29463 41.0861 9.4358C41.0861 9.62994 41.0224 9.82986 40.895 10.0358H38.8621C38.7984 10.0358 38.7636 10.0828 38.7578 10.177L37.8022 15.4534C37.5242 17.0886 37.0348 18.3356 36.334 19.1945C35.6332 20.0533 34.8715 20.4827 34.0491 20.4827C33.6437 20.4827 33.3251 20.4092 33.0935 20.2621C32.8618 20.115 32.7112 19.9474 32.6418 19.7592C32.6301 19.4886 32.6938 19.2474 32.8328 19.0356C32.9718 18.8238 33.1456 18.718 33.3541 18.718C33.5163 18.718 33.6582 18.8063 33.7798 18.9827C33.8957 19.165 34.0201 19.3445 34.1534 19.521C34.2808 19.7033 34.443 19.7945 34.6399 19.7945C34.8715 19.7945 35.0888 19.6562 35.2914 19.3798C35.5 19.1092 35.6882 18.771 35.8561 18.3651C36.0241 17.9592 36.1631 17.5533 36.2731 17.1474C36.3832 16.7416 36.4585 16.4063 36.4991 16.1416L37.5416 10.1593V10.124C37.5416 10.0652 37.5242 10.0358 37.4894 10.0358H36.3601C36.3369 10.0358 36.3253 10.0181 36.3253 9.98283C36.3253 9.91228 36.3688 9.81814 36.4556 9.70049C36.5425 9.57697 36.6496 9.46814 36.7771 9.374C36.9103 9.274 37.0377 9.224 37.1593 9.224H37.6632C37.7095 9.224 37.7443 9.17111 37.7674 9.06518C37.9238 8.10049 38.2018 7.24171 38.6014 6.48878C39.0069 5.73585 39.4818 5.14467 40.0262 4.71527C40.5764 4.28586 41.1441 4.07117 41.729 4.07117ZM43.5881 8.72994C44.0747 8.72994 44.4685 9.24166 44.7697 10.2652L45.1346 11.5181L46.1597 9.7358C46.542 9.06518 47.0284 8.72994 47.6192 8.72994C48.0188 8.72994 48.3548 8.8476 48.627 9.08283C48.7197 9.26518 48.766 9.41814 48.766 9.54166C48.766 9.71814 48.7052 9.86814 48.5836 9.99166C48.4619 10.1152 48.3374 10.177 48.21 10.177C48.0536 10.177 47.8828 10.0858 47.6974 9.90346C47.5121 9.72111 47.3354 9.62994 47.1674 9.62994C47.0284 9.62994 46.8721 9.78283 46.6984 10.0887L45.3952 12.3475L46.1424 14.8357C46.2581 15.2357 46.4145 15.4357 46.6114 15.4357C46.7852 15.4357 46.9705 15.3446 47.1674 15.1622C47.3644 14.9798 47.5034 14.8122 47.5845 14.6592C47.6308 14.6592 47.6888 14.7063 47.7582 14.8004C47.8278 14.8946 47.8625 14.9651 47.8625 15.0122C47.8393 15.1416 47.7293 15.3269 47.5324 15.5681C47.3412 15.8033 47.1124 16.0181 46.8461 16.2121C46.5854 16.4004 46.3334 16.4945 46.0902 16.4945C45.6095 16.4945 45.2157 15.9828 44.9087 14.9592L44.5091 13.5828L43.4144 15.5063C43.0321 16.1769 42.5457 16.5121 41.9549 16.5121C41.5553 16.5121 41.2194 16.3945 40.9471 16.1592C40.8544 15.9945 40.8081 15.8416 40.8081 15.7004C40.8081 15.5239 40.8689 15.3739 40.9905 15.2504C41.1122 15.1269 41.2367 15.0651 41.3641 15.0651C41.5205 15.0651 41.6914 15.1563 41.8767 15.3386C42.0621 15.521 42.2387 15.6121 42.4067 15.6121C42.5457 15.6121 42.7021 15.4592 42.8758 15.1534L44.2484 12.7534L43.5361 10.3887C43.4202 9.98869 43.2638 9.78869 43.0669 9.78869C42.8931 9.78869 42.7078 9.87986 42.5109 10.0623C42.314 10.2446 42.175 10.4122 42.0939 10.5652C42.0475 10.5652 41.9896 10.5181 41.9201 10.424C41.8506 10.3299 41.8159 10.2593 41.8159 10.2123C41.8391 10.077 41.9462 9.89166 42.1373 9.65635C42.3342 9.42111 42.5659 9.20932 42.8324 9.02111C43.0988 8.82697 43.3507 8.72994 43.5881 8.72994Z" fill="#FF6C04"/>
</g>
<defs>
<clipPath id="clip0_808_33">
<rect width="100" height="25" rx="5" fill="white"/>
</clipPath>
</defs>
</svg>
