<svg width="100" height="15" viewBox="0 0 100 15" fill="none" xmlns="http://www.w3.org/2000/svg">

<g id="Homepage_Ui">

<g id="Group 16340">
<g id="FXEmpire_idKOGszeRq_1 1 Component" >
<g id="Clip path group">
<mask id="mask0_703_56" style="mask-type:luminance" maskUnits="userSpaceOnUse" x="0" y="0" width="100" height="15">
<g id="clip0_83_1076">
<path id="Vector" d="M100 0H0V15H100V0Z" fill="white"/>
</g>
</mask>
<g mask="url(#mask0_703_56)">
<g id="Group">
<path id="Vector_2" d="M66.2921 4.38458C66.2921 4.78843 66.1797 5.13458 65.955 5.48073C65.6741 5.82688 65.3932 5.99996 64.9999 6.17304C64.6067 6.28843 63.8202 6.40381 62.7528 6.40381L60.5056 6.34612V2.36535H62.9213C63.9887 2.36535 64.7191 2.48073 65.1123 2.59612C65.5056 2.7115 65.8427 2.94227 66.0674 3.28843C66.1236 3.63458 66.2921 3.98073 66.2921 4.38458ZM67.6966 1.9615C67.0786 1.32688 66.2359 0.865349 65.2809 0.634578C64.5505 0.519193 63.3707 0.403809 61.5168 0.403809H57.9775V14.7115H60.3932V8.42302H61.1236C63.0899 8.42302 64.4381 8.30767 65.2247 8.19225C66.2921 7.96147 67.1348 7.55767 67.7528 6.86535C68.3707 6.23073 68.7078 5.36535 68.7078 4.38458C68.7078 3.4615 68.3707 2.59612 67.6966 1.9615Z" fill="#C7C7C7"/>
<path id="Vector_3" d="M70.618 0.403809V0.749961V14.7115H73.0333V0.403809H70.618Z" fill="#C7C7C7"/>
<path id="Vector_4" d="M25.955 0.403809V14.7115H35.7865V12.6922H28.3146V8.4807H35.8426V6.4615H28.3146V2.42304H35.8426V0.403809H25.955Z" fill="#C7C7C7"/>
<path id="Vector_5" d="M89.7753 0.403809V14.7115H99.5507V12.6922H92.1348V8.4807H99.6065V6.4615H92.1348V2.42304H99.6065V0.403809H89.7753Z" fill="#C7C7C7"/>
<path id="Vector_6" d="M77.8087 6.40396V2.42319H80.2246C81.292 2.42319 82.0225 2.53857 82.4159 2.65396C82.8087 2.76935 83.1457 3.00011 83.371 3.34627C83.6515 3.69242 83.708 4.03857 83.708 4.38473C83.708 4.78857 83.5957 5.13473 83.371 5.48088C83.0899 5.82704 82.8087 6.00011 82.4159 6.17319C82.0225 6.28857 81.2355 6.40396 80.1681 6.40396H77.8087ZM83.371 7.96164C83.371 7.96164 84.7754 7.32704 85.2246 6.8078C85.8428 6.17319 86.1797 5.3078 86.1797 4.32704C86.1797 3.34627 85.8428 2.48088 85.2246 1.84627C84.6065 1.21165 83.7638 0.750114 82.7529 0.519343C82.0225 0.403959 80.8428 0.288574 78.9884 0.288574H75.4493V14.654H77.8652V8.30777H80.6739L85.2246 14.654H88.2022L83.371 7.96164Z" fill="#C7C7C7"/>
<path id="Vector_7" d="M3.42689 8.82885H12.3595L13.3707 7.50195L12.3033 6.1173H3.42689V3.05961H10.0561L8.03362 0.405762H0.280823V14.7712H3.42689V8.82885Z" fill="#C7C7C7"/>
<path id="Vector_8" d="M13.2045 14.7712L18.4853 7.50195L13.1482 0.405762H9.60895L14.8898 7.50195L9.60895 14.7712H13.2045Z" fill="#C7C7C7"/>
<path id="Vector_9" d="M19.7204 7.90576L17.9788 10.3865L21.1248 14.7712H24.7204L19.7204 7.90576Z" fill="#C7C7C7"/>
<path id="Vector_10" d="M19.6619 6.98268L24.5495 0.405762H21.0102L17.8641 4.6173L19.6619 6.98268Z" fill="#C7C7C7"/>
<path id="Vector_11" d="M53.8201 0.403809H52.7528L46.7977 11.423L40.8426 0.403809H39.7752L37.3595 14.7115H39.719L41.1797 5.7115L46.3483 14.7115H47.2471L52.4157 5.7115L53.8763 14.7115H56.2359L53.8201 0.403809Z" fill="#C7C7C7"/>
</g>
</g>
</g>
</g>
</g>
</g>
<defs>

</defs>
</svg>
