<svg width="130" height="32" viewBox="0 0 130 32" fill="none" xmlns="http://www.w3.org/2000/svg">
<g clip-path="url(#clip0_808_194)">
<path fill-rule="evenodd" clip-rule="evenodd" d="M20.4578 6.53113C20.3119 6.68064 20.1004 6.83435 19.9369 6.90981C19.7852 6.97996 19.6504 7.05206 19.6373 7.07051C19.608 7.11187 19.2269 7.23037 18.8775 7.30694C18.7336 7.33852 18.6053 7.37681 18.5925 7.39246C18.5794 7.40811 18.4409 7.46261 18.2847 7.51347C17.8093 7.6683 17.3892 8.17275 17.1692 8.8527L17.1125 9.02737H16.3581C15.6168 9.02737 14.6492 9.10171 14.6025 9.16208C14.5894 9.17885 14.3756 9.23195 14.1274 9.28002C13.607 9.38091 13.2755 9.48347 13.1858 9.57151C13.1513 9.60532 13.1034 9.63299 13.0795 9.63299C13.0025 9.63299 12.5599 9.83561 12.5599 9.87082C12.5599 9.88955 12.4798 9.95215 12.3818 10.0097C11.3185 10.6363 10.9428 12.5683 11.6721 13.6621C11.828 13.8961 12.2829 14.3837 12.3462 14.3849C12.3724 14.3851 12.4394 14.4329 12.4952 14.4908C12.5511 14.5486 12.7372 14.6445 12.9085 14.704C13.0798 14.7633 13.2262 14.8264 13.2342 14.8443C13.2422 14.8622 13.3662 14.9365 13.5098 15.0095C13.8153 15.1643 14.2021 15.5374 14.3058 15.7766C14.4472 16.1033 14.4207 18.0873 14.2719 18.3148C14.0545 18.6474 13.562 19.0968 13.1633 19.3262C12.628 19.6342 12.5716 19.6725 12.3938 19.8474C12.2 20.0378 12.1381 20.23 12.1344 20.6543C12.1327 20.8594 12.0731 21.0078 11.7049 21.7252C11.4698 22.1835 11.2774 22.5846 11.2774 22.6167C11.2774 22.6489 11.2583 22.6751 11.2349 22.6751C11.2119 22.6751 11.1569 22.7632 11.113 22.8708C11.0691 22.9784 10.9705 23.1363 10.8941 23.2215C10.7014 23.4367 10.702 23.6838 10.8955 23.8917C11.0825 24.0923 11.0981 24.1899 11.0429 24.8081C10.9901 25.3983 10.9816 25.4232 10.8328 25.4232C10.7744 25.4232 10.706 25.4414 10.6812 25.4637C10.6564 25.4861 10.3155 25.5638 9.92366 25.6362C9.53179 25.7085 9.20404 25.7845 9.1952 25.8052C9.18665 25.8256 9.13307 25.8427 9.07664 25.843C8.92274 25.8441 8.76001 25.8944 8.76001 25.9411C8.76001 25.9643 9.74525 25.9821 11.0232 25.9821H13.2864L13.2593 25.5355C13.2277 25.0149 13.0923 24.6848 12.8121 24.4436C12.6389 24.2944 12.5556 23.6491 12.6984 23.5625C12.7226 23.5479 12.7583 23.473 12.7779 23.3965C12.8318 23.186 12.9777 22.8806 13.0547 22.8179C13.0923 22.7875 13.1795 22.6564 13.2488 22.5267C13.3177 22.3973 13.4143 22.2492 13.4634 22.1975C13.5127 22.1458 13.5873 22.0318 13.6298 21.944C13.6723 21.8563 13.7384 21.7727 13.7766 21.7582C13.8148 21.7439 13.878 21.671 13.9174 21.5964C13.9607 21.5145 14.0775 21.42 14.2126 21.3577C14.3355 21.301 14.4469 21.242 14.46 21.2269C14.4808 21.2026 15.3056 20.9759 15.588 20.9167C15.6467 20.9044 15.6949 20.8787 15.6949 20.86C15.6949 20.8412 15.8391 20.7884 16.0155 20.7429C16.192 20.6973 16.4322 20.614 16.5499 20.5579C16.6673 20.5017 16.9241 20.396 17.1199 20.3234C17.316 20.2507 17.4867 20.1772 17.4998 20.1599C17.5129 20.1428 17.662 20.0604 17.831 19.9768C18 19.893 18.1995 19.7742 18.2742 19.7127C18.3485 19.6512 18.4258 19.6009 18.4457 19.6009C18.4982 19.6009 19.3523 18.7801 19.3523 18.7298C19.3523 18.7063 19.413 18.6253 19.4871 18.5501C19.5612 18.4747 19.6826 18.3106 19.7567 18.1854C19.8308 18.0602 19.9414 17.9051 20.0021 17.8408C20.0628 17.7765 20.1124 17.6997 20.1124 17.6698C20.1124 17.6399 20.1497 17.5748 20.1956 17.5253C20.3179 17.3923 20.5399 17.0485 20.5399 16.9921C20.5399 16.965 20.5698 16.9317 20.6063 16.918C20.6428 16.9043 20.7403 16.7688 20.8229 16.6167C20.9053 16.4647 20.9905 16.3403 21.0122 16.3403C21.0338 16.3403 21.064 16.3037 21.0794 16.2587C21.1219 16.1346 21.2724 15.8951 21.3638 15.8051C21.4089 15.7613 21.487 15.6456 21.5374 15.5486C21.5879 15.4513 21.6568 15.3435 21.6902 15.3088C21.7238 15.2741 21.7825 15.1864 21.8207 15.1137C21.9509 14.8664 22.0755 14.8231 23.0479 14.6875C24.0312 14.5503 24.0537 14.5506 23.9155 14.6962C23.8653 14.749 23.7678 14.8983 23.6986 15.0277C23.6296 15.1573 23.5393 15.2906 23.4979 15.3245C23.3774 15.4223 23.2762 15.6948 23.3449 15.7364C23.3762 15.7554 23.2711 15.7859 23.1109 15.804C22.8068 15.8387 22.7284 15.9284 22.8883 16.0586C22.9687 16.124 22.9373 16.2322 22.784 16.4194C22.6267 16.6117 22.155 17.3101 22.1542 17.352C22.1536 17.3721 22.1003 17.4378 22.0353 17.4979C21.9706 17.5583 21.9173 17.629 21.9173 17.6547C21.9173 17.6804 21.8187 17.8302 21.6982 17.9875C21.5776 18.1446 21.4605 18.3204 21.4379 18.3782C21.4157 18.4358 21.379 18.483 21.3567 18.483C21.3342 18.483 21.2866 18.5406 21.2507 18.611C21.2148 18.6815 21.0922 18.8704 20.9785 19.0311C20.7198 19.3958 20.7354 19.4755 21.084 19.5749C21.436 19.6753 21.5702 19.668 21.6372 19.5456C21.6677 19.4894 21.7315 19.4028 21.7791 19.353C21.8264 19.303 21.8994 19.1918 21.941 19.1054C21.9829 19.0194 22.0333 18.9487 22.0533 18.9487C22.0735 18.9487 22.1328 18.8701 22.1852 18.774C22.3437 18.4844 22.4101 18.3864 22.5469 18.2402C22.6187 18.1633 22.6774 18.075 22.6774 18.0437C22.6774 18.0124 22.731 17.9375 22.7963 17.8774C22.8615 17.8173 22.9148 17.75 22.9148 17.7282C22.9148 17.6852 23.3742 16.9999 23.537 16.8001C23.6065 16.7148 23.6666 16.6852 23.7345 16.7025C23.8268 16.7263 23.8308 16.7131 23.8049 16.4669C23.7798 16.2302 23.7863 16.2048 23.8736 16.1917C23.9303 16.1833 24.0189 16.0908 24.089 15.9678C24.1543 15.8524 24.2275 15.7509 24.2515 15.7423C24.2754 15.7333 24.3387 15.6425 24.3917 15.5399C24.445 15.4376 24.5578 15.2563 24.6422 15.1366C24.7266 15.0173 24.8249 14.8619 24.8608 14.7915C24.8967 14.7211 24.9417 14.6635 24.9608 14.6635C24.9802 14.6635 25.0643 14.5444 25.1481 14.3988C25.2319 14.2532 25.3305 14.1048 25.3667 14.0691C25.4032 14.0333 25.455 13.964 25.4818 13.9145C25.5089 13.8653 25.5625 13.8251 25.6009 13.8251C25.6397 13.8251 25.7084 13.805 25.7537 13.7806C25.799 13.7563 26.1567 13.6921 26.5486 13.6384C26.9404 13.5845 27.336 13.528 27.4275 13.5132L27.5937 13.4858L27.4631 13.6152C27.3913 13.6865 27.3323 13.7656 27.3323 13.791C27.3323 13.8164 27.2559 13.9419 27.1622 14.0696C26.8039 14.5584 26.7529 14.6945 26.9168 14.7208C26.9755 14.7303 26.89 14.7546 26.7267 14.7753C26.5634 14.7957 26.43 14.8312 26.43 14.8544C26.43 14.8776 26.3978 14.8963 26.3588 14.8963C26.3194 14.8963 26.2875 14.9279 26.2875 14.9662C26.2875 15.0047 26.3183 15.036 26.3559 15.036C26.4762 15.036 26.4785 15.1134 26.3619 15.2468C26.2995 15.318 26.2205 15.4307 26.1869 15.4974C26.153 15.564 26.0857 15.6629 26.0373 15.7177C25.9353 15.8325 25.7748 16.0941 25.7343 16.2123C25.7189 16.2571 25.6884 16.2937 25.6665 16.2937C25.6443 16.2937 25.5682 16.3934 25.4969 16.515C25.426 16.6366 25.3396 16.7676 25.3054 16.8062C25.1905 16.9351 24.72 17.6413 24.72 17.6849C24.72 17.7086 24.6667 17.7774 24.602 17.8377C24.537 17.8978 24.4837 17.9635 24.4832 17.9836C24.4826 18.0169 24.0565 18.6591 23.8895 18.8788C23.5948 19.267 23.1776 19.967 23.2178 20.0065C23.2312 20.0199 23.4153 20.0531 23.6267 20.0805L24.0109 20.1303L24.1397 19.9883C24.2731 19.8416 24.3575 19.7161 24.4709 19.4961C24.5071 19.4257 24.5533 19.3679 24.5732 19.3679C24.5935 19.3679 24.6679 19.2636 24.7385 19.1359C24.8095 19.0085 24.893 18.8774 24.9244 18.845C25.0204 18.7452 25.2424 18.3947 25.2424 18.3428C25.2424 18.3159 25.2718 18.2827 25.3077 18.2693C25.3436 18.2556 25.4228 18.1491 25.4841 18.0325C25.5454 17.9157 25.6229 17.8098 25.6565 17.7972C25.6899 17.7846 25.7175 17.757 25.7175 17.7357C25.7175 17.6868 26.0091 17.2173 26.078 17.1556C26.1065 17.1298 26.1875 17.0094 26.2582 16.8875C26.3286 16.766 26.4044 16.6665 26.4263 16.6665C26.4482 16.6665 26.479 16.6296 26.4944 16.5849C26.5386 16.456 26.6822 16.2311 26.7982 16.1089C26.8569 16.0472 26.9048 15.9787 26.9048 15.9563C26.9048 15.8281 27.1308 15.5953 27.189 15.6637C27.3087 15.8051 27.3457 15.7397 27.3206 15.4326C27.3055 15.2468 27.3135 15.1411 27.3412 15.1579C27.3925 15.1889 27.6649 14.9089 27.6649 14.825C27.6649 14.7949 27.7185 14.7138 27.7838 14.6445C27.849 14.5755 27.9023 14.5064 27.9023 14.4908C27.9023 14.4754 27.9559 14.3941 28.0212 14.31C28.0864 14.2261 28.14 14.1465 28.14 14.1333C28.14 14.1202 28.1933 14.0529 28.2586 13.9838C28.3241 13.9145 28.3774 13.841 28.3774 13.82C28.3774 13.7854 28.8075 13.1365 28.9762 12.9168C29.0155 12.8657 29.0734 12.7866 29.1045 12.741C29.1495 12.6762 29.347 12.6323 30.0401 12.5336C30.5232 12.4649 30.9259 12.3919 30.9344 12.3715C30.9433 12.3511 31.0125 12.3347 31.0883 12.3347C31.2149 12.3347 31.2776 12.2586 31.8496 11.4146C32.1927 10.9088 32.5068 10.4686 32.5481 10.4365C32.5931 10.4015 32.6005 10.3783 32.5666 10.3783C32.5353 10.3783 32.4666 10.3359 32.4139 10.2839C32.3609 10.2322 32.2058 10.1232 32.0693 10.0421C31.9328 9.96081 31.7569 9.84846 31.6786 9.79229C31.6002 9.7364 31.4873 9.67575 31.4278 9.65814C31.3679 9.64026 31.2824 9.58911 31.2377 9.54412C31.1929 9.49912 31.012 9.40326 30.8355 9.33116C30.6591 9.25878 30.5149 9.18416 30.5149 9.16487C30.5149 9.14587 30.3493 9.07153 30.1467 8.99999C29.9443 8.92816 29.7665 8.85242 29.7517 8.83146C29.6482 8.68502 28.7644 8.54249 27.9499 8.54081C27.014 8.53886 26.7988 8.58162 26.3206 8.86444C26.1692 8.95415 26.0267 9.02737 26.0039 9.02737C25.9814 9.02737 25.913 9.06902 25.852 9.11988C25.6642 9.27638 24.8266 9.79816 24.3837 10.0349C24.2338 10.1148 24.0822 10.2048 24.0474 10.2347C23.9613 10.3079 22.9613 10.8099 21.9413 11.2917C21.2142 11.6351 20.5784 11.8011 19.6373 11.8939C19.2323 11.9339 18.8584 11.9853 18.8063 12.0085C18.7538 12.0314 18.5828 12.0747 18.4261 12.1049C18.0678 12.1737 17.5836 12.324 17.5494 12.3771C17.5352 12.3992 17.3915 12.4716 17.2302 12.5381C17.0686 12.6046 16.8785 12.7119 16.8076 12.7762C16.7366 12.8408 16.6542 12.8936 16.6249 12.8936C16.5169 12.8936 15.765 13.5587 15.6678 13.7404C15.6311 13.8089 15.559 13.8782 15.5077 13.8941C15.3837 13.9327 13.7364 13.8351 13.7025 13.7871C13.6879 13.7664 13.5301 13.7113 13.3514 13.6647C12.9549 13.561 12.6183 13.3424 12.4804 13.099C12.4237 12.9987 12.3553 12.8928 12.3288 12.8637C12.1683 12.6862 12.1629 11.5893 12.3228 11.5893C12.3445 11.5893 12.3969 11.5001 12.4394 11.3914C12.6081 10.9594 13.1222 10.5421 13.6868 10.3789C13.89 10.3199 14.0673 10.2554 14.0807 10.235C14.108 10.1942 14.906 10.0282 15.315 9.97842C15.4586 9.96109 15.5974 9.93035 15.6237 9.91079C15.6499 9.89094 16.056 9.84064 16.5263 9.799C17.5924 9.70454 18.3722 9.60337 18.4836 9.54496C18.5304 9.52064 18.7262 9.45357 18.9185 9.396C19.1109 9.33871 19.3278 9.24285 19.4005 9.18276C19.4729 9.12295 19.5518 9.07405 19.5758 9.07405C19.6402 9.07405 20.0597 8.61375 20.146 8.44859C20.1871 8.36978 20.2372 8.29488 20.2578 8.28174C20.317 8.24373 20.4755 7.81726 20.5431 7.51375C20.5773 7.36004 20.6203 7.22366 20.6385 7.2108C20.6753 7.18509 20.7773 6.5873 20.7773 6.39838C20.7773 6.22929 20.7349 6.2469 20.4578 6.53113ZM105.961 15.1165C105.883 15.1677 105.854 25.26 105.932 25.3357C106.116 25.5163 109.833 25.3067 109.98 25.1071C109.994 25.0875 110.113 25.0177 110.244 24.952C110.697 24.7237 111.157 24.276 111.387 23.8383C111.461 23.698 111.536 23.5728 111.555 23.5599C111.868 23.3408 111.872 16.8062 111.558 16.8062C111.54 16.8062 111.479 16.7064 111.421 16.5849C111.363 16.4633 111.259 16.3006 111.191 16.2238C111.122 16.1469 111.019 16.0318 110.962 15.9678C110.857 15.8479 110.532 15.595 110.484 15.595C110.47 15.595 110.416 15.5539 110.365 15.5039C110.313 15.4536 110.115 15.3667 109.925 15.3102C109.735 15.254 109.563 15.185 109.545 15.157C109.505 15.097 106.05 15.0578 105.961 15.1165ZM115.599 20.2412L115.611 25.3533L118.01 25.3662C119.329 25.3734 120.457 25.3676 120.516 25.3536C120.657 25.3201 120.687 23.5479 120.547 23.4951C120.506 23.4797 119.801 23.4669 118.98 23.4669H117.488V22.2559V21.0447H118.98C119.801 21.0447 120.506 21.0321 120.547 21.0165C120.612 20.9922 120.623 20.8681 120.623 20.1132C120.623 19.3584 120.612 19.2343 120.547 19.21C120.506 19.1943 119.801 19.1817 118.98 19.1817H117.488V18.0638V16.946H118.98C119.801 16.946 120.506 16.9331 120.547 16.9177C120.654 16.8775 120.66 15.2996 120.555 15.1959C120.497 15.14 120.097 15.1294 118.037 15.1294H115.587L115.599 20.2412ZM109.088 16.9809C109.097 16.9999 109.207 17.067 109.334 17.1293C109.464 17.1938 109.582 17.29 109.606 17.3517C109.629 17.4116 109.681 17.4728 109.72 17.4873C109.867 17.5429 109.887 17.8523 109.887 20.1602C109.887 22.8126 109.903 22.6955 109.502 23.0888C109.142 23.4417 109.064 23.4669 108.332 23.4669H107.798V20.2063V16.946H108.435C108.785 16.946 109.079 16.9616 109.088 16.9809ZM18.6874 19.9849C18.5176 20.0668 18.3679 20.1465 18.3548 20.1618C18.3086 20.2155 17.4246 20.6174 17.1199 20.723C16.9501 20.7817 16.8004 20.8435 16.7873 20.86C16.7742 20.8767 16.6169 20.9287 16.4373 20.9759L16.1113 21.0615L16.1401 21.2976C16.156 21.4276 16.1692 21.5983 16.1694 21.6771C16.1697 21.7982 16.2586 21.9066 16.742 22.3758C17.0564 22.6813 17.5523 23.167 17.8438 23.4551C18.1354 23.7436 18.3856 23.9792 18.4001 23.9792C18.4144 23.9792 18.5851 24.1259 18.7789 24.3053C18.973 24.4847 19.1562 24.6314 19.1862 24.6314C19.2158 24.6314 19.2856 24.6826 19.3412 24.7452C19.4002 24.8117 19.5173 24.871 19.6231 24.8877C19.9725 24.9428 20.0112 24.9584 20.0432 25.0565C20.0868 25.1912 20.0588 25.2024 19.3654 25.3257C19.0317 25.3852 18.7373 25.4503 18.7111 25.4707C18.6851 25.4911 18.3431 25.5649 17.9513 25.6348C17.5594 25.7043 17.2316 25.7798 17.2228 25.8019C17.2142 25.8242 17.1607 25.8427 17.104 25.843C16.9503 25.8441 16.7873 25.8944 16.7873 25.9411C16.7873 25.9643 18.0316 25.9821 19.665 25.9821H22.5423L22.509 25.8307C22.4905 25.7474 22.4591 25.6688 22.4389 25.656C22.4186 25.6431 22.3494 25.5355 22.2853 25.4168C22.0635 25.0076 21.5232 24.445 21.3519 24.445C21.3288 24.445 21.2986 24.4154 21.2843 24.3794C21.2701 24.343 21.1826 24.2866 21.09 24.2536C20.9668 24.21 20.9076 24.1533 20.8708 24.044C20.8038 23.8453 20.4846 23.4943 20.3039 23.4211C20.2247 23.3886 20.16 23.3456 20.16 23.3252C20.16 23.3048 20.0796 23.2397 19.9819 23.1804C19.7245 23.0248 19.0858 22.3806 18.9724 22.1626L18.8755 21.9765L18.9747 21.5002C19.128 20.7613 19.1585 19.8309 19.0288 19.8346C19.0109 19.8351 18.8573 19.9028 18.6874 19.9849Z" fill="#242424"/>
<path fill-rule="evenodd" clip-rule="evenodd" d="M31.9506 11.35C31.63 11.8273 31.3256 12.2706 31.274 12.3346C31.2221 12.3986 30.8901 12.8806 30.5356 13.4058C30.181 13.9309 29.861 14.4027 29.8239 14.4538C29.7869 14.5049 29.4668 14.9767 29.1129 15.5018C28.7586 16.0269 28.4403 16.4909 28.4052 16.5322C28.3699 16.5739 28.1855 16.8464 27.9951 17.1379C27.8047 17.4293 27.6363 17.6781 27.6209 17.6909C27.6055 17.7038 27.4544 17.924 27.2852 18.18C27.1159 18.4363 26.9651 18.6565 26.9503 18.6691C26.9352 18.6819 26.7647 18.9335 26.5709 19.228C26.3774 19.5226 26.2076 19.7744 26.1933 19.787C26.0346 19.9317 25.3603 21.0661 25.2867 21.3126C25.2542 21.4213 25.2101 21.5105 25.189 21.5105C25.1679 21.5105 25.1628 21.5418 25.1779 21.5803C25.193 21.6189 25.1793 21.6502 25.1477 21.6502C25.1157 21.6502 25.1012 21.679 25.1149 21.7145C25.1288 21.7497 25.1226 21.7969 25.1009 21.8193C25.0795 21.8417 25.0262 22.0275 24.9824 22.2324C24.9388 22.4375 24.8906 22.6365 24.8758 22.675C24.8607 22.7133 24.853 22.7899 24.8584 22.8452C24.8638 22.9003 24.8456 22.9593 24.8176 22.976C24.79 22.9931 24.7803 23.0582 24.7965 23.1208C24.8125 23.1837 24.8025 23.2625 24.774 23.296C24.7458 23.3296 24.7236 23.4184 24.7247 23.4933C24.733 23.9821 24.5748 24.8175 24.4739 24.8175C24.4494 24.8175 24.4426 24.8384 24.4588 24.8642C24.4751 24.8899 24.4714 24.9368 24.4511 24.969C24.4306 25.0011 24.4121 25.048 24.4098 25.0738C24.4078 25.0995 24.3927 25.1517 24.3767 25.1903C24.3605 25.2286 24.3348 25.3353 24.3192 25.4273C24.2907 25.5975 24.116 25.745 24.0154 25.6841C23.9886 25.6676 23.9521 25.6774 23.9344 25.7056C23.9167 25.7336 23.8512 25.7442 23.7885 25.7288C23.7261 25.7135 23.6751 25.7205 23.6751 25.7448C23.6751 25.7688 23.5628 25.8088 23.4257 25.8331C23.1965 25.8742 23.2193 25.8784 23.7107 25.8834C24.0316 25.8867 24.2451 25.9074 24.2451 25.9354C24.2451 25.9653 24.6566 25.982 25.3851 25.982C26.1298 25.982 26.5251 25.9656 26.5251 25.9345C26.5251 25.8792 26.3498 25.4983 26.0255 24.8485C25.8924 24.5819 25.816 24.3773 25.8428 24.3594C25.8679 24.3424 25.928 24.2236 25.9759 24.0956C26.1055 23.7499 26.3632 23.277 26.4017 23.3148C26.4199 23.3326 26.423 23.3164 26.4079 23.2784C26.3928 23.2399 26.4809 23.0546 26.6074 22.8589C27.225 21.9034 27.7261 21.3185 28.4488 20.7092C28.6577 20.5329 28.8715 20.3501 28.9239 20.3026C28.9761 20.2551 29.1043 20.174 29.2089 20.1223C29.9092 19.7766 30.4643 19.3633 30.7166 18.9997C30.7984 18.882 30.881 18.7747 30.9007 18.7616C30.9503 18.7278 31.2276 18.1462 31.2276 18.0752C31.2276 18.0433 31.2461 18.0171 31.2686 18.0171C31.2911 18.0171 31.3367 17.8913 31.3701 17.7376C31.4034 17.5839 31.4447 17.4581 31.4621 17.4581C31.4792 17.4581 31.4846 17.3846 31.4741 17.2952C31.4635 17.2055 31.4729 17.132 31.4955 17.1323C31.518 17.1323 31.5294 16.7158 31.5208 16.2069C31.5074 15.39 31.5146 15.2782 31.5821 15.2528C31.6656 15.2212 31.7084 15.2914 31.7195 15.4783C31.7232 15.5423 31.74 15.5949 31.7568 15.5949C31.7736 15.5949 31.8015 15.6527 31.8192 15.7232C31.907 16.0739 32.6238 16.8897 32.9803 17.0442C33.0613 17.0794 33.1277 17.1253 33.1277 17.1462C33.1277 17.1672 33.149 17.1711 33.175 17.1555C33.2012 17.1395 33.2226 17.1476 33.2226 17.1733C33.2226 17.1988 33.393 17.2575 33.6016 17.3033L33.9804 17.3869L34.0305 17.6437C34.0582 17.7851 34.1024 17.9385 34.1289 17.9849C34.1554 18.0316 34.1639 18.1101 34.148 18.1596C34.1317 18.2094 34.1363 18.2502 34.1574 18.2502C34.1787 18.2502 34.2337 18.3393 34.2796 18.448C34.3318 18.5718 34.4295 18.6892 34.541 18.7619C34.6387 18.8259 34.7305 18.8935 34.745 18.9128C34.7892 18.9712 35.2595 19.0419 35.6063 19.0419C35.9637 19.0419 36.1675 18.9242 36.1675 18.718C36.1675 18.6654 36.188 18.6227 36.2128 18.6227C36.239 18.6227 36.2467 18.5274 36.2307 18.396C36.2136 18.2543 36.2228 18.1576 36.2552 18.1381C36.2849 18.1199 36.2949 18.0478 36.2789 17.9687C36.2635 17.893 36.2743 17.8033 36.3028 17.7695C36.3316 17.7354 36.3544 17.6462 36.3539 17.5713C36.3521 17.4101 36.4459 16.7667 36.4855 16.6664C36.5009 16.6278 36.5086 16.5283 36.5029 16.445C36.4975 16.3618 36.5132 16.2936 36.538 16.2936C36.5636 16.2936 36.573 16.2025 36.5593 16.084C36.5445 15.9554 36.5542 15.8744 36.5844 15.8744C36.6158 15.8744 36.624 15.7729 36.6078 15.5949C36.5927 15.432 36.6007 15.3154 36.6269 15.3154C36.6531 15.3154 36.6708 15.0672 36.6691 14.7215L36.6662 14.1277L36.7851 14.1439C36.8503 14.1528 36.9096 14.1746 36.9164 14.1925C36.9233 14.2107 37.0037 14.2168 37.0946 14.2065C37.1855 14.1958 37.2602 14.2053 37.2602 14.2274C37.2602 14.2495 37.4739 14.2674 37.735 14.2674C37.9963 14.2674 38.2101 14.2545 38.2101 14.2389C38.2101 14.2232 38.3115 14.1967 38.4358 14.1802C39.0944 14.0924 39.7023 13.7286 40.2643 13.0858C40.5294 12.7826 40.5049 12.6397 40.2244 12.8533C40.1959 12.8748 40.1589 12.8792 40.1424 12.863C40.1258 12.8468 40.0808 12.8594 40.042 12.8907C40.0033 12.9223 39.9494 12.9346 39.9221 12.9181C39.895 12.9013 39.8725 12.9125 39.8725 12.9427C39.8725 12.9745 39.8329 12.9871 39.7776 12.9732C39.7254 12.9597 39.6827 12.9701 39.6827 12.9963C39.6827 13.0226 39.6299 13.0341 39.5655 13.0221C39.5011 13.01 39.4424 13.0162 39.4347 13.0358C39.4102 13.1009 38.4782 13.1833 38.1152 13.1526C37.6221 13.1112 37.165 13.031 37.165 12.986C37.165 12.9656 37.1222 12.9597 37.0701 12.9732C37.0148 12.9871 36.9752 12.9745 36.9752 12.9427C36.9752 12.9125 36.9526 12.9013 36.9256 12.9181C36.8982 12.9346 36.85 12.9279 36.8187 12.9036C36.7871 12.8792 36.6437 12.8217 36.5001 12.7758C36.0044 12.6174 34.4404 11.7876 34.0354 11.4679C33.9673 11.4143 33.8587 11.343 33.794 11.3095C33.7296 11.2762 33.4944 11.1202 33.2716 10.9629C33.0487 10.8056 32.7914 10.6331 32.7002 10.5795L32.5337 10.4819L31.9506 11.35ZM36.0067 14.3191C36.0238 14.3856 36.0238 14.6058 36.0067 14.8082C35.9853 15.0597 35.9916 15.1757 36.0267 15.1757C36.0549 15.1757 36.0649 15.1966 36.0489 15.2223C35.9717 15.3448 35.74 15.025 35.74 14.7959C35.74 14.7386 35.6827 14.6329 35.6123 14.5611L35.4849 14.4306H35.6103C35.689 14.4306 35.7673 14.3876 35.8209 14.3155C35.9303 14.1682 35.9685 14.169 36.0067 14.3191ZM93.6263 15.0555C93.4738 15.0876 93.3348 15.1335 93.3177 15.1575C93.3003 15.1813 93.1421 15.2718 92.9657 15.3585C92.7893 15.4448 92.6451 15.5328 92.6451 15.5538C92.6451 15.5745 92.5704 15.6413 92.4795 15.7019C92.3883 15.7628 92.2606 15.8841 92.1956 15.9716C91.9334 16.3243 91.7918 16.5563 91.7641 16.6778C91.7482 16.7483 91.7171 16.8061 91.6952 16.8061C91.5401 16.8061 91.5051 17.4366 91.5051 20.2297C91.5051 23.0395 91.5398 23.6532 91.6989 23.6532C91.7228 23.6532 91.7425 23.6851 91.7425 23.7239C91.7425 23.8175 91.979 24.2585 92.0295 24.2585C92.0508 24.2585 92.0828 24.3024 92.1001 24.3558C92.1361 24.4673 92.681 25.0036 92.7593 25.0047C92.7878 25.005 92.8571 25.0531 92.9132 25.1112C92.9694 25.1691 93.1723 25.2646 93.3644 25.323C93.5568 25.3817 93.754 25.451 93.8033 25.4773C93.927 25.543 95.0356 25.5402 95.0582 25.474C95.0676 25.446 95.1285 25.4231 95.1935 25.4231C95.6997 25.4231 96.8445 24.5562 97.0175 24.0414C97.0463 23.9559 97.0879 23.886 97.1099 23.886C97.1612 23.886 97.28 23.5244 97.3473 23.1641C97.3803 22.9878 97.3943 22.3517 97.3855 21.4406L97.3712 19.9966H95.8989H94.4263V20.9283V21.8598L94.9607 21.873L95.4951 21.8861V22.3212C95.4951 23.5844 94.3169 24.1208 93.6129 23.1778L93.4288 22.931L93.4154 20.278C93.4023 17.6733 93.4037 17.6225 93.4986 17.4967C93.5516 17.4263 93.595 17.3511 93.595 17.3296C93.595 17.2482 94.0262 16.8916 94.1752 16.8497C94.5836 16.7349 94.9117 16.8458 95.1907 17.1929C95.452 17.5182 95.4606 17.545 95.4916 18.1336L95.5187 18.6459L96.4569 18.6585L97.3951 18.671V18.0964C97.3951 17.3693 97.2601 16.6303 97.1084 16.5266C97.0899 16.5138 97.0306 16.4227 96.9771 16.3243C96.9235 16.2257 96.8482 16.1105 96.8101 16.068C96.7149 15.963 96.3426 15.5988 96.2551 15.525C96.1363 15.4255 95.7427 15.2223 95.6681 15.2223C95.6296 15.2223 95.5902 15.1997 95.5808 15.172C95.5261 15.0108 94.2117 14.9325 93.6263 15.0555ZM31.6551 15.1058C31.6551 15.1444 31.6337 15.1757 31.6075 15.1757C31.5815 15.1757 31.5602 15.1444 31.5602 15.1058C31.5602 15.0675 31.5815 15.0359 31.6075 15.0359C31.6337 15.0359 31.6551 15.0675 31.6551 15.1058ZM66.6981 15.1128C66.6191 15.1349 66.6152 15.4085 66.6268 20.2447L66.6388 25.3532H68.1827C69.6818 25.3532 70.4176 25.299 70.4906 25.1833C70.5043 25.1615 70.5553 25.1436 70.604 25.1436C70.6525 25.1436 70.6992 25.128 70.708 25.1087C70.7166 25.0894 70.8266 25.0229 70.9523 24.9608C71.3487 24.7652 71.8897 24.2535 72.0817 23.8921C72.1447 23.7734 72.2108 23.67 72.2288 23.6619C72.4468 23.5646 72.4813 23.0853 72.4813 20.1598C72.4813 17.1149 72.4725 16.9981 72.2183 16.7108C72.167 16.653 72.1251 16.5862 72.1251 16.5627C72.1251 16.5035 71.8751 16.1633 71.6876 15.9677C71.3784 15.6449 70.6257 15.2223 70.3598 15.2223C70.3162 15.2223 70.2717 15.1961 70.2606 15.1642C70.2409 15.1055 66.8962 15.0575 66.6981 15.1128ZM38.5059 16.0258L38.5187 16.9224L39.5279 16.935L40.5371 16.9475L40.5491 21.1505L40.5613 25.3532H41.4876H42.4138L42.4021 21.1494L42.3904 16.9459H43.3877H44.3852V16.0376V15.1293H41.4391H38.4931L38.5059 16.0258ZM47.7462 19.2515C47.7399 21.5186 47.7348 23.8189 47.7345 24.3633L47.7339 25.3532H48.6602H49.5864L49.6152 23.5833C49.6312 22.6096 49.6471 21.6267 49.6508 21.399L49.6577 20.9848L50.2661 21.0088C50.7139 21.0267 50.9176 21.0547 51.0379 21.1147C51.2243 21.2081 51.5654 21.5426 51.7259 21.79C51.7515 21.8294 51.7818 22.6208 51.7952 23.6065L51.8188 25.3532L52.7582 25.3658C53.5599 25.3767 53.7012 25.3683 53.7249 25.3082C53.8634 24.9536 53.6254 21.0854 53.4567 20.9515C53.4405 20.9387 53.3809 20.8339 53.3245 20.7187C53.268 20.6033 53.1686 20.4488 53.1036 20.3753C52.9708 20.2252 52.9964 20.1193 53.2039 19.9591C53.2649 19.9122 53.3151 19.8527 53.3151 19.8269C53.3151 19.8015 53.3772 19.692 53.4533 19.5835C53.5989 19.3761 53.7902 18.8672 53.7902 18.6875C53.7902 18.6291 53.8115 18.5685 53.8375 18.5528C53.8643 18.5366 53.8851 18.3116 53.8851 18.0375C53.8851 17.7443 53.8662 17.5512 53.8375 17.5512C53.8115 17.5512 53.7902 17.5017 53.7902 17.4408C53.7902 17.2474 53.5562 16.599 53.4601 16.5266C53.443 16.5138 53.3778 16.4299 53.3145 16.3402C52.9357 15.8017 52.04 15.2223 51.586 15.2223C51.5441 15.2223 51.5102 15.2014 51.5102 15.1757C51.5102 15.1455 50.8529 15.1293 49.6337 15.1293H47.7576L47.7462 19.2515ZM58.9202 15.2223C58.9202 15.2735 58.9031 15.3154 58.882 15.3154C58.8612 15.3154 58.7717 15.7819 58.683 16.352C58.5944 16.9218 58.5086 17.3986 58.4924 17.4115C58.4619 17.4355 58.2048 18.9544 58.2065 19.1C58.2071 19.1447 58.1897 19.1816 58.1678 19.1816C58.1458 19.1816 58.1316 19.2445 58.1364 19.3214C58.141 19.3982 58.1304 19.4611 58.1125 19.4611C58.0948 19.4611 58.0198 19.8644 57.9457 20.3577C57.8716 20.8509 57.7987 21.2648 57.7836 21.2777C57.7462 21.3095 57.7454 21.3146 57.5784 22.3701C57.4971 22.8835 57.4165 23.3142 57.3988 23.3271C57.3814 23.3399 57.3062 23.7485 57.2321 24.2353C57.1577 24.7222 57.0796 25.1274 57.0585 25.1358C56.9742 25.1699 57.024 25.3292 57.1269 25.3541C57.1856 25.368 57.6186 25.3739 58.0888 25.3664L58.9438 25.3532L59.0233 24.8175C59.0672 24.5229 59.1045 24.2767 59.1065 24.2703C59.1085 24.2638 59.5454 24.2585 60.0778 24.2585H61.0454L61.0728 24.4332C61.0879 24.5293 61.1147 24.7443 61.1326 24.9108C61.1859 25.4077 61.1178 25.3764 62.1518 25.3764H63.0527V25.2258C63.0527 25.0288 62.8993 24.0092 62.8651 23.9791C62.8506 23.9662 62.8349 23.9139 62.8304 23.8628C62.8041 23.5786 62.5163 21.892 62.4804 21.8131C62.457 21.762 62.3724 21.2799 62.292 20.7419C62.2116 20.2039 62.1273 19.7219 62.1047 19.6707C62.0683 19.588 61.9164 18.6752 61.8334 18.0403C61.8166 17.9123 61.7884 17.7968 61.7704 17.7843C61.7528 17.7714 61.6676 17.3002 61.5815 16.7371C61.4954 16.1742 61.4074 15.6815 61.3863 15.6427C61.3649 15.6035 61.3344 15.4722 61.3184 15.3503L61.2894 15.1293H60.1046C58.9518 15.1293 58.9202 15.1318 58.9202 15.2223ZM76.3168 20.2411L76.3288 25.3532H77.2551H78.1813L78.1933 20.2411L78.2055 15.1293H77.2551H76.3046L76.3168 20.2411ZM82.122 15.1874C82.1095 15.2196 82.1049 17.5199 82.1115 20.2995L82.1237 25.3532H83.0263H83.9289L83.9164 23.6532C83.9095 22.7181 83.8933 21.5756 83.8802 21.1145L83.8565 20.276L83.9987 20.5555C84.0768 20.7092 84.2093 20.987 84.2929 21.1729C84.3764 21.3584 84.4599 21.5105 84.4784 21.5105C84.4972 21.5105 84.5263 21.5681 84.5434 21.6385C84.5608 21.7089 84.6676 21.9554 84.7813 22.186C84.8951 22.4165 85.084 22.8042 85.2011 23.0476C85.3183 23.291 85.5127 23.6915 85.6332 23.9377C85.754 24.1839 85.8527 24.4198 85.8527 24.4617C85.8527 24.5036 85.8709 24.538 85.8934 24.538C85.9159 24.538 86.0029 24.6981 86.0866 24.8941C86.3032 25.4002 86.2548 25.3764 87.0844 25.3764H87.8003L87.7884 20.2646L87.7764 15.1525H86.8975H86.0188L86.0291 17.8541C86.0345 19.3398 86.0271 20.5153 86.012 20.4658C85.9972 20.4163 85.955 20.3468 85.9188 20.311C85.8823 20.2755 85.8387 20.1903 85.8216 20.1215C85.8048 20.0528 85.7218 19.8499 85.6378 19.6707C85.554 19.4913 85.438 19.2188 85.3807 19.0651C85.3234 18.9114 85.2496 18.7437 85.2165 18.6926C85.1838 18.6411 85.0983 18.4424 85.0267 18.251C84.9552 18.0593 84.8805 17.8916 84.8614 17.8782C84.842 17.865 84.7545 17.6655 84.6671 17.4349C84.5796 17.2044 84.4912 17.0048 84.4707 16.9914C84.4502 16.978 84.3758 16.8103 84.3057 16.6186C84.2356 16.4272 84.1618 16.2597 84.1421 16.2472C84.1224 16.2343 84.0723 16.1295 84.0309 16.0141C83.8383 15.4778 83.8026 15.3948 83.7374 15.3308C83.6989 15.2931 83.6676 15.2324 83.6676 15.1958C83.6676 15.1044 82.1573 15.0963 82.122 15.1874ZM51.0351 16.9867C51.0351 17.009 51.0983 17.0398 51.1759 17.0548C51.9761 17.2119 52.2181 18.4223 51.5424 18.8882C51.1513 19.1576 51.0524 19.1816 50.3271 19.1816H49.6577V18.0637V16.9459H50.3462C50.725 16.9459 51.0351 16.964 51.0351 16.9867ZM69.7975 16.9886C69.7975 17.0121 69.861 17.0453 69.9388 17.0618C70.1266 17.1024 70.498 17.4777 70.5573 17.687C70.6391 17.9757 70.62 22.5034 70.5362 22.7002C70.4558 22.8886 70.0961 23.2804 70.0035 23.2804C69.9688 23.2804 69.94 23.3005 69.94 23.3248C69.94 23.4092 69.5817 23.4662 69.0493 23.4665L68.515 23.4668V20.2062V16.9459H69.1562C69.5153 16.9459 69.7975 16.9646 69.7975 16.9886ZM31.3139 18.7275C31.2344 18.8913 30.7813 19.4471 30.6487 19.5436C30.604 19.5763 30.5396 19.6291 30.5057 19.6609C30.3301 19.8264 29.9992 20.0664 29.9471 20.0664C29.9123 20.0664 29.8995 20.0972 29.9163 20.1402C29.932 20.1807 29.9451 20.2227 29.9451 20.2333C29.9451 20.2442 29.9932 20.2531 30.0519 20.2534C30.2212 20.254 31.3746 20.4739 31.5795 20.5446L31.7651 20.6086L31.4846 20.719C31.3302 20.7797 31.1931 20.8423 31.18 20.8579C31.1669 20.8736 31.0417 20.9342 30.9018 20.9923L30.6476 21.098L30.3914 20.9963C30.2503 20.9401 30.1349 20.8808 30.1349 20.8646C30.1346 20.8308 29.7937 20.6908 29.6059 20.6472C29.4717 20.6159 29.185 20.731 29.185 20.816C29.185 20.8428 29.1317 20.9334 29.0664 21.0172C29.0011 21.1013 28.9476 21.1919 28.9476 21.2187C28.9476 21.2455 28.9188 21.2785 28.8837 21.2917C28.8487 21.3048 28.784 21.39 28.7401 21.4806C28.6962 21.5714 28.6121 21.7044 28.5531 21.776C28.4941 21.8478 28.4038 21.9903 28.3522 22.0926C28.3009 22.1952 28.2214 22.3165 28.1758 22.3623C27.8409 22.698 28.0541 22.7374 30.0745 22.7131L31.6314 22.694L31.7939 22.5565C31.8833 22.4808 32.0033 22.3768 32.0606 22.3257C32.1683 22.2293 32.29 22.1519 32.5326 22.0261C32.6104 21.9859 32.6959 21.9286 32.7227 21.8989C32.7495 21.8693 32.8888 21.7975 33.0325 21.7396C33.1761 21.6818 33.3257 21.6105 33.3651 21.5812C33.4044 21.5518 33.5914 21.4683 33.7806 21.3953C33.9701 21.3224 34.1252 21.2497 34.1252 21.2341C34.1252 21.2182 34.1856 21.1402 34.26 21.0605C34.7029 20.5849 34.5546 19.5483 34.0003 19.2434C33.8991 19.1875 33.7946 19.1232 33.7681 19.1C33.7413 19.0771 33.6771 19.0458 33.6256 19.0307C33.1222 18.8826 32.8273 18.8099 32.6169 18.7828C32.4799 18.7649 32.3676 18.7353 32.3676 18.7172C32.3676 18.6909 31.6038 18.576 31.4291 18.576C31.4063 18.576 31.3544 18.6442 31.3139 18.7275ZM60.2032 19.228C60.2369 19.5226 60.2793 19.7744 60.2981 19.787C60.332 19.8102 60.6378 22.0473 60.6339 22.2419C60.6324 22.298 60.6527 22.357 60.6783 22.3727C60.8727 22.4903 60.7088 22.5353 60.0838 22.5353C59.4497 22.5353 59.4426 22.5339 59.4451 22.4305C59.4483 22.3084 59.5597 21.634 59.605 21.4638C59.6483 21.3012 59.9177 19.4695 59.9177 19.3367C59.9177 19.2769 59.9367 19.228 59.9601 19.228C59.9838 19.228 60.0183 19.078 60.0371 18.8943C60.0812 18.4634 60.1271 18.5556 60.2032 19.228ZM100.161 24.4324L100.174 25.3532H101.1H102.026V24.4449V23.5367L101.087 23.5241L100.148 23.5115L100.161 24.4324Z" fill="#CC8B54"/>
<path fill-rule="evenodd" clip-rule="evenodd" d="M39.2551 13.0333C39.1975 13.0696 39.204 13.0786 39.2907 13.0791C39.3494 13.0794 39.3976 13.0587 39.3976 13.0333C39.3976 12.9749 39.3471 12.9749 39.2551 13.0333ZM36.7046 14.5469C36.7049 14.7006 36.7137 14.7579 36.7243 14.6744C36.7351 14.5905 36.7348 14.4648 36.724 14.3949C36.7132 14.3248 36.7043 14.3932 36.7046 14.5469ZM35.9411 14.5704C35.9411 14.6601 35.9508 14.6967 35.9627 14.6517C35.9747 14.607 35.9747 14.5335 35.9627 14.4888C35.9508 14.4441 35.9411 14.4807 35.9411 14.5704ZM36.5008 16.4918C36.5014 16.5765 36.5102 16.5832 36.5476 16.5267C36.6068 16.4364 36.6068 16.387 36.5476 16.387C36.5213 16.387 36.5003 16.4339 36.5008 16.4918ZM35.4076 19.0884C35.4076 19.1141 35.5298 19.1348 35.6806 19.1342C35.8744 19.1339 35.9331 19.1205 35.8824 19.0884C35.7883 19.0288 35.4076 19.0288 35.4076 19.0884ZM28.6391 20.5788C28.5915 20.6302 28.5681 20.6721 28.5872 20.6721C28.6374 20.6721 28.7728 20.5318 28.7471 20.5067C28.7351 20.4949 28.6864 20.5274 28.6391 20.5788Z" fill="#8F6444"/>
<path fill-rule="evenodd" clip-rule="evenodd" d="M32.5576 10.4617C32.5576 10.4804 32.5995 10.5212 32.6508 10.5528C32.7277 10.5997 32.7394 10.5983 32.7183 10.5441C32.6907 10.4737 32.5576 10.4055 32.5576 10.4617ZM33.0324 10.7976C33.0979 10.8476 33.1726 10.8887 33.1988 10.8887C33.2247 10.8887 33.1928 10.8476 33.1276 10.7976C33.0623 10.7473 32.9873 10.7065 32.9611 10.7065C32.9352 10.7065 32.9671 10.7473 33.0324 10.7976ZM33.2701 10.9496C33.2701 10.9616 33.3604 11.0318 33.471 11.1058C33.7739 11.3082 33.7925 11.3177 33.7925 11.273C33.7925 11.2503 33.7443 11.2084 33.6856 11.1802C33.6269 11.1517 33.5092 11.0835 33.4242 11.0284C33.3393 10.9731 33.2701 10.9379 33.2701 10.9496ZM33.9988 11.4379C34.0421 11.5066 34.3625 11.6871 34.3625 11.643C34.3625 11.6229 34.2738 11.5575 34.1652 11.4979C34.0569 11.4381 33.982 11.411 33.9988 11.4379ZM34.5526 11.7886C34.68 11.9065 34.9815 12.0661 34.9533 12.0007C34.9385 11.9666 34.8262 11.89 34.7039 11.8305C34.5813 11.7713 34.5132 11.7523 34.5526 11.7886ZM35.1699 12.1466C35.3067 12.2461 35.5974 12.3828 35.5971 12.3473C35.5968 12.3274 35.5059 12.2707 35.395 12.2209C35.1171 12.0966 35.0881 12.0868 35.1699 12.1466ZM35.8824 12.4951C35.8824 12.5351 36.2697 12.7156 36.2973 12.6885C36.3116 12.6745 36.2654 12.6415 36.1947 12.6153C36.1241 12.589 36.0249 12.5457 35.9741 12.5191C35.9237 12.4929 35.8824 12.482 35.8824 12.4951ZM31.0613 12.5566C31.0351 12.5753 30.9838 12.6432 30.947 12.7072C30.9105 12.7712 30.8487 12.876 30.8097 12.94C30.7535 13.0322 30.7643 13.0275 30.8607 12.9168C30.9792 12.7804 31.1522 12.5203 31.1232 12.5217C31.1152 12.5219 31.0872 12.5379 31.0613 12.5566ZM40.4914 12.7332C40.49 12.8355 40.1799 13.2153 39.8553 13.5129C39.6754 13.6776 39.6723 13.684 39.8194 13.5884C40.0069 13.4663 40.2523 13.2388 40.2526 13.1862C40.2528 13.1661 40.3278 13.0697 40.4196 12.9719C40.5492 12.8335 40.5758 12.7768 40.5396 12.7156C40.4982 12.6463 40.4928 12.6483 40.4914 12.7332ZM37.1649 12.9948C37.1649 13.016 37.1954 13.0334 37.2324 13.0334C37.2695 13.0334 37.3336 13.0459 37.3749 13.0616C37.4162 13.077 37.4499 13.0689 37.4499 13.0434C37.4499 13.018 37.3857 12.9881 37.3074 12.9766C37.229 12.9655 37.1649 12.9736 37.1649 12.9948ZM39.5401 12.9867C39.4825 13.0233 39.489 13.032 39.5757 13.0325C39.6344 13.0331 39.6826 13.0124 39.6826 12.9867C39.6826 12.9283 39.6321 12.9283 39.5401 12.9867ZM30.5623 13.2779C30.5004 13.3866 30.4805 13.4512 30.5181 13.421C30.6127 13.3453 30.7669 13.0798 30.7165 13.0798C30.6937 13.0798 30.6244 13.1689 30.5623 13.2779ZM38.5069 13.1586C38.5525 13.1703 38.6275 13.1703 38.6731 13.1586C38.7187 13.1468 38.6814 13.1373 38.5899 13.1373C38.4987 13.1373 38.4611 13.1468 38.5069 13.1586ZM30.1847 13.8452C30.1051 13.9587 30.0399 14.0674 30.0399 14.087C30.0399 14.1255 30.2556 13.8531 30.33 13.7203C30.4181 13.5635 30.3283 13.6407 30.1847 13.8452ZM39.3143 13.8771C39.2294 13.9305 39.1599 13.983 39.1599 13.9939C39.1599 14.0269 39.4366 13.876 39.4685 13.8254C39.5099 13.76 39.4905 13.7664 39.3143 13.8771ZM36.6627 14.1663C36.6496 14.2002 36.6459 14.4257 36.6544 14.6672L36.6701 15.1059L36.6801 14.6258C36.6872 14.2767 36.7049 14.1546 36.7448 14.1789C36.7787 14.1996 36.7867 14.1918 36.7659 14.1582C36.7214 14.0881 36.6926 14.0903 36.6627 14.1663ZM38.3644 14.1848C38.2795 14.1951 38.21 14.2256 38.21 14.2521C38.21 14.279 38.2439 14.2882 38.2852 14.2725C38.3265 14.2572 38.412 14.2443 38.475 14.2443C38.5383 14.2443 38.5899 14.2234 38.5899 14.1976C38.5899 14.1722 38.5739 14.1546 38.5542 14.1585C38.5349 14.1627 38.4494 14.1745 38.3644 14.1848ZM29.8501 14.3142C29.7586 14.4816 29.8153 14.5009 29.9145 14.336C29.9604 14.26 29.9789 14.1976 29.9558 14.1976C29.9324 14.1976 29.8848 14.2502 29.8501 14.3142ZM35.8174 14.3203C35.7288 14.4394 35.7288 14.4397 35.8279 14.3877C35.9394 14.3293 35.9605 14.3737 35.9924 14.7334C36.0041 14.8636 36.0115 14.8332 36.0169 14.6325C36.0291 14.1937 35.9747 14.1085 35.8174 14.3203ZM36.9791 14.2144C37.0358 14.2625 37.2601 14.2871 37.2601 14.2452C37.2601 14.2192 37.1922 14.1976 37.1096 14.1976C37.0269 14.1976 36.9679 14.2052 36.9791 14.2144ZM37.5567 14.2781C37.6548 14.2882 37.8152 14.2882 37.913 14.2781C38.011 14.2681 37.931 14.26 37.7349 14.26C37.5391 14.26 37.459 14.2681 37.5567 14.2781ZM29.6363 14.6526C29.6101 14.6714 29.5588 14.7393 29.522 14.8033C29.4855 14.8673 29.4237 14.9721 29.3847 15.0361C29.3285 15.1283 29.3393 15.1235 29.4357 15.0129C29.5542 14.8765 29.7272 14.6163 29.6982 14.6177C29.6902 14.618 29.6622 14.6339 29.6363 14.6526ZM35.8587 15.1294C35.9345 15.2731 35.9972 15.3041 36.0488 15.2225C36.0648 15.1968 36.0462 15.1758 36.0072 15.1758C35.9682 15.1758 35.9228 15.1339 35.9063 15.0827C35.8895 15.0316 35.8556 14.9897 35.8305 14.9897C35.8054 14.9897 35.8182 15.0526 35.8587 15.1294ZM31.5601 15.1059C31.5601 15.1445 31.5814 15.1758 31.6074 15.1758C31.6336 15.1758 31.655 15.1445 31.655 15.1059C31.655 15.0676 31.6336 15.0361 31.6074 15.0361C31.5814 15.0361 31.5601 15.0676 31.5601 15.1059ZM31.5717 15.2555C31.527 15.2717 31.5139 15.4885 31.5187 16.1464C31.5233 16.7498 31.5364 16.9446 31.5621 16.7828C31.5826 16.6548 31.6011 16.2688 31.6034 15.9251C31.6074 15.3239 31.6239 15.2088 31.6706 15.4561C31.7071 15.6495 31.759 15.7814 31.7986 15.7814C31.8191 15.7814 31.8248 15.7395 31.8111 15.6884C31.7975 15.6369 31.773 15.595 31.7564 15.595C31.7399 15.595 31.7214 15.5285 31.7157 15.4472C31.7037 15.282 31.6601 15.2239 31.5717 15.2555ZM29.0749 15.4762C29.0085 15.5928 28.9631 15.6884 28.974 15.6884C29.0133 15.6884 29.2456 15.313 29.2211 15.289C29.2071 15.2753 29.1415 15.3597 29.0749 15.4762ZM36.5949 15.533C36.5949 15.7918 36.6177 15.7848 36.6601 15.5137C36.6792 15.3913 36.6727 15.3155 36.643 15.3155C36.6165 15.3155 36.5949 15.4134 36.5949 15.533ZM28.7597 15.9413C28.6801 16.0547 28.6149 16.1635 28.6149 16.183C28.6149 16.2216 28.8306 15.9491 28.905 15.8164C28.9931 15.6596 28.9033 15.7367 28.7597 15.9413ZM36.5476 16.0452C36.5476 16.2451 36.5695 16.2384 36.6108 16.026C36.6276 15.939 36.6205 15.8745 36.5937 15.8745C36.5684 15.8745 36.5476 15.9513 36.5476 16.0452ZM31.9955 16.1579C32.0554 16.2627 32.1851 16.4337 32.2834 16.5382C32.382 16.643 32.4624 16.7459 32.4624 16.7674C32.4624 16.7886 32.4846 16.8062 32.512 16.8062C32.6026 16.8062 32.8391 17.0066 32.8092 17.0581C32.793 17.086 32.7967 17.0941 32.8172 17.0759C32.8377 17.0578 32.9158 17.074 32.991 17.112C33.066 17.15 33.1276 17.1648 33.1276 17.1447C33.1276 17.1248 33.0612 17.0796 32.9802 17.0444C32.7725 16.9544 32.2606 16.4726 32.081 16.1987C31.8986 15.9198 31.8439 15.8938 31.9955 16.1579ZM28.4088 16.4334C28.3624 16.5103 28.3427 16.5732 28.3646 16.5732C28.3866 16.5732 28.4424 16.5103 28.4886 16.4334C28.5351 16.3566 28.5547 16.2937 28.5328 16.2937C28.5108 16.2937 28.455 16.3566 28.4088 16.4334ZM28.0281 17.0041C27.9437 17.1623 27.9303 17.2087 27.9899 17.1352C28.1332 16.9591 28.2447 16.7596 28.1996 16.7596C28.1771 16.7596 28.0999 16.8697 28.0281 17.0041ZM33.65 17.3551C33.65 17.3806 33.7249 17.4102 33.8161 17.4205C33.9076 17.4309 33.9826 17.4228 33.9826 17.4024C33.9826 17.382 33.9415 17.3652 33.8914 17.3652C33.8412 17.3652 33.7665 17.3523 33.7252 17.337C33.6839 17.3213 33.65 17.3294 33.65 17.3551ZM27.6923 17.4982C27.5849 17.702 27.6017 17.7411 27.7191 17.5611C27.7741 17.4767 27.8075 17.3962 27.7932 17.3822C27.7787 17.368 27.7334 17.4202 27.6923 17.4982ZM36.2942 17.7687C36.2768 17.7858 36.2643 17.854 36.2666 17.9202C36.2705 18.0384 36.2714 18.0379 36.3124 17.9032C36.3558 17.7612 36.3492 17.7148 36.2942 17.7687ZM27.4512 17.8666C27.425 17.8853 27.3737 17.9532 27.3372 18.0172C27.3004 18.0812 27.2392 18.1807 27.201 18.2385C27.1628 18.2961 27.1417 18.3433 27.154 18.3433C27.1665 18.3433 27.2546 18.2279 27.35 18.0871C27.4455 17.9462 27.5179 17.8311 27.5111 17.8316C27.5042 17.8319 27.4774 17.8478 27.4512 17.8666ZM31.1733 18.2274C31.1308 18.3431 31.1115 18.447 31.1303 18.4582C31.1488 18.4697 31.1653 18.4537 31.1665 18.4227C31.1679 18.3917 31.2038 18.288 31.2463 18.1919C31.289 18.0957 31.3073 18.0172 31.287 18.0172C31.2671 18.0172 31.2158 18.1119 31.1733 18.2274ZM36.2466 18.1413C36.2292 18.1586 36.2172 18.2475 36.2198 18.3394L36.2244 18.5063L36.268 18.3246C36.3119 18.1416 36.305 18.084 36.2466 18.1413ZM34.1955 18.4188C34.2351 18.5116 34.2676 18.5954 34.2676 18.6052C34.2676 18.6147 34.2872 18.6228 34.3115 18.6228C34.3357 18.6228 34.3197 18.539 34.2758 18.437C34.2319 18.3347 34.1798 18.2508 34.1598 18.2506C34.1399 18.2503 34.1561 18.326 34.1955 18.4188ZM26.9838 18.5295C26.9374 18.6063 26.9168 18.6692 26.9379 18.6689C26.959 18.6689 27.0126 18.606 27.0571 18.5292C27.1015 18.4526 27.1223 18.3897 27.1029 18.3897C27.0838 18.3897 27.03 18.4526 26.9838 18.5295ZM36.1674 18.7055C36.1674 18.7511 36.1329 18.8366 36.091 18.8956C36.0166 18.9995 36.0172 19.0009 36.1146 18.9411C36.1699 18.9073 36.215 18.8551 36.215 18.8249C36.215 18.7947 36.2281 18.7368 36.2438 18.6963C36.2597 18.6558 36.2489 18.6228 36.2201 18.6228C36.191 18.6228 36.1674 18.66 36.1674 18.7055ZM34.4685 18.7623C34.5255 18.852 34.7441 18.9727 34.7404 18.9129C34.7392 18.8942 34.6651 18.8333 34.5759 18.7774C34.432 18.6874 34.4198 18.6857 34.4685 18.7623ZM30.8111 18.8556C30.778 18.9073 30.7723 18.9487 30.798 18.9487C30.8233 18.9487 30.8669 18.9068 30.8949 18.8556C30.9228 18.8045 30.9288 18.7626 30.908 18.7626C30.8872 18.7626 30.8436 18.8045 30.8111 18.8556ZM26.578 19.1351C26.5235 19.2377 26.4865 19.3215 26.4956 19.3215C26.5047 19.3215 26.5689 19.2377 26.6381 19.1351C26.7074 19.0325 26.7444 18.9487 26.7205 18.9487C26.6965 18.9487 26.6324 19.0325 26.578 19.1351ZM30.1342 19.5565C30.0692 19.6054 30.0387 19.646 30.0664 19.6465C30.1351 19.6479 30.3069 19.521 30.2767 19.4914C30.2633 19.4783 30.1992 19.5076 30.1342 19.5565ZM26.2237 19.6474C26.1776 19.7242 26.1567 19.7871 26.1778 19.7868C26.1989 19.7868 26.2525 19.7239 26.2972 19.6471C26.3417 19.5705 26.3622 19.5076 26.3431 19.5076C26.3238 19.5076 26.2702 19.5705 26.2237 19.6474ZM29.6699 19.8617C29.4163 20.0101 29.41 20.0518 29.66 19.928C29.7646 19.8763 29.8606 19.8338 29.8737 19.8338C29.9028 19.8338 29.9119 19.786 29.8877 19.7622C29.878 19.7527 29.78 19.7974 29.6699 19.8617ZM26.0239 19.9626C25.9701 19.9998 25.7013 20.4394 25.7324 20.4394C25.7429 20.4394 25.8296 20.324 25.925 20.1831C26.0205 20.0423 26.0929 19.9271 26.0861 19.9277C26.0792 19.928 26.0513 19.9439 26.0239 19.9626ZM28.9899 20.2493L28.8762 20.3413L28.9839 20.3147C29.0925 20.2879 29.1652 20.218 29.1253 20.1789C29.1133 20.1672 29.0523 20.1988 28.9899 20.2493ZM28.457 20.6931C27.8254 21.2328 26.8578 22.3121 27.1357 22.1662C27.1916 22.1369 27.2375 22.0866 27.2375 22.0547C27.2375 21.977 28.162 20.9517 28.2321 20.9517C28.2489 20.9517 28.3948 20.8259 28.5559 20.6722C28.9375 20.3083 28.8967 20.3167 28.457 20.6931ZM25.5129 20.7426C25.4696 20.832 25.4437 20.905 25.4556 20.905C25.4881 20.905 25.6323 20.6199 25.6107 20.5987C25.6004 20.5883 25.5565 20.6532 25.5129 20.7426ZM25.2074 21.3477C25.1792 21.4371 25.1721 21.5106 25.1914 21.5106C25.2108 21.5106 25.2496 21.4371 25.2775 21.3477C25.3057 21.258 25.3129 21.1845 25.2935 21.1845C25.2741 21.1845 25.2353 21.258 25.2074 21.3477ZM26.9228 22.384C26.7672 22.5936 26.7322 22.6615 26.8128 22.5972C26.8812 22.5424 27.0682 22.256 27.0354 22.256C27.0257 22.256 26.975 22.3135 26.9228 22.384ZM24.8888 22.4072C24.8312 22.5905 24.8127 22.7403 24.8529 22.6984C24.9025 22.6467 24.9689 22.349 24.931 22.349C24.9179 22.349 24.8988 22.3753 24.8888 22.4072ZM26.6219 22.8286C26.4375 23.1165 26.3768 23.2341 26.4135 23.2336C26.4355 23.2333 26.5121 23.1248 26.5837 22.9924C26.7165 22.7464 26.7404 22.6433 26.6219 22.8286ZM24.8204 22.7993C24.8175 22.8292 24.801 22.892 24.7842 22.939C24.7602 23.0052 24.7668 23.0125 24.8124 22.9711C24.8449 22.9418 24.8611 22.8789 24.8486 22.8314C24.8363 22.7839 24.8235 22.7694 24.8204 22.7993ZM24.7731 23.1254C24.7699 23.1553 24.7537 23.2182 24.7366 23.2651C24.7129 23.3314 24.7192 23.3386 24.7648 23.2973C24.7973 23.2679 24.8135 23.205 24.8013 23.1575C24.7887 23.11 24.7759 23.0955 24.7731 23.1254ZM26.1915 23.6083C26.0419 23.8959 25.9983 24.0259 26.051 24.0259C26.0767 24.0259 26.0977 23.9996 26.098 23.9677C26.0983 23.9356 26.1508 23.7995 26.2146 23.6648C26.3508 23.3778 26.3337 23.3353 26.1915 23.6083ZM25.8125 24.4129C25.8125 24.4465 25.8458 24.5147 25.8863 24.5641C25.9572 24.651 25.9581 24.6502 25.9079 24.549C25.8792 24.4906 25.8686 24.4227 25.8843 24.3976C25.9002 24.3724 25.8906 24.352 25.8629 24.352C25.835 24.352 25.8125 24.3794 25.8125 24.4129ZM24.5063 24.6466C24.4425 24.7248 24.4254 24.8176 24.475 24.8176C24.4969 24.8176 24.5391 24.7653 24.5687 24.7013C24.6254 24.5795 24.5878 24.5465 24.5063 24.6466ZM26.1545 25.1194C26.2115 25.234 26.2642 25.3218 26.2722 25.3139C26.2995 25.2871 26.1302 24.9109 26.0909 24.9109C26.069 24.9109 26.0978 25.0049 26.1545 25.1194ZM26.4663 25.7726C26.5099 25.8877 26.5646 25.9822 26.5877 25.9822C26.611 25.9822 26.615 25.9456 26.5965 25.9006C26.578 25.8558 26.5415 25.7614 26.5156 25.691C26.4893 25.6205 26.45 25.563 26.4275 25.563C26.4053 25.563 26.4226 25.6571 26.4663 25.7726ZM23.0693 25.8807C22.7453 25.9257 23.042 25.9822 23.6037 25.9822C23.9719 25.9822 24.245 25.9634 24.245 25.9383C24.245 25.8966 23.2916 25.8497 23.0693 25.8807Z" fill="#A6714B"/>
<path fill-rule="evenodd" clip-rule="evenodd" d="M38.851 13.0798C38.8348 13.1056 38.8536 13.1265 38.8929 13.1265C38.932 13.1265 38.9773 13.1056 38.9935 13.0798C39.0098 13.0544 38.991 13.0334 38.9516 13.0334C38.9126 13.0334 38.8673 13.0544 38.851 13.0798ZM37.4386 14.3241C37.4976 14.335 37.5831 14.3347 37.6284 14.3229C37.674 14.3112 37.6255 14.3023 37.5209 14.3028C37.4166 14.3034 37.3793 14.3129 37.4386 14.3241ZM37.8892 14.3232C37.9348 14.3347 38.0097 14.3347 38.0553 14.3232C38.1012 14.3115 38.0636 14.3017 37.9724 14.3017C37.8809 14.3017 37.8436 14.3115 37.8892 14.3232ZM36.7019 14.9663C36.7024 15.0688 36.7121 15.1052 36.7235 15.0473C36.7346 14.9895 36.7343 14.9056 36.7224 14.8609C36.7104 14.8165 36.7013 14.864 36.7019 14.9663ZM30.6379 19.1584C30.5952 19.2226 30.5675 19.2749 30.5764 19.2749C30.5855 19.2749 30.6391 19.2226 30.6961 19.1584C30.7528 19.0944 30.7804 19.0421 30.7573 19.0421C30.7345 19.0421 30.6807 19.0944 30.6379 19.1584ZM35.2409 19.0885C35.2572 19.1142 35.3011 19.1352 35.339 19.1352C35.3766 19.1352 35.4074 19.1142 35.4074 19.0885C35.4074 19.0631 35.3632 19.0421 35.3093 19.0421C35.2558 19.0421 35.225 19.0631 35.2409 19.0885Z" fill="#845C44"/>
</g>
<defs>
<clipPath id="clip0_808_194">
<rect width="130" height="32" rx="5" fill="white"/>
</clipPath>
</defs>
</svg>
