<svg width="100" height="15" viewBox="0 0 100 15" fill="none" xmlns="http://www.w3.org/2000/svg">
<g clip-path="url(#clip0_808_68)">
<g clip-path="url(#clip1_808_68)">
<mask id="mask0_808_68" style="mask-type:luminance" maskUnits="userSpaceOnUse" x="0" y="0" width="100" height="15">
<path d="M100 0H0V15H100V0Z" fill="white"/>
</mask>
<g mask="url(#mask0_808_68)">
<path d="M66.2921 4.38458C66.2921 4.78843 66.1797 5.13458 65.955 5.48073C65.6741 5.82688 65.3932 5.99996 64.9999 6.17304C64.6067 6.28843 63.8202 6.40381 62.7528 6.40381L60.5056 6.34612V2.36535H62.9213C63.9887 2.36535 64.7191 2.48073 65.1123 2.59612C65.5056 2.7115 65.8427 2.94227 66.0674 3.28843C66.1236 3.63458 66.2921 3.98073 66.2921 4.38458ZM67.6966 1.9615C67.0786 1.32688 66.2359 0.865349 65.2809 0.634578C64.5505 0.519193 63.3707 0.403809 61.5168 0.403809H57.9775V14.7115H60.3932V8.42302H61.1236C63.0899 8.42302 64.4381 8.30767 65.2247 8.19225C66.2921 7.96147 67.1348 7.55767 67.7528 6.86535C68.3707 6.23073 68.7078 5.36535 68.7078 4.38458C68.7078 3.4615 68.3707 2.59612 67.6966 1.9615Z" fill="#1675F6"/>
<path d="M70.618 0.403809V0.749961V14.7115H73.0333V0.403809H70.618Z" fill="#1675F6"/>
<path d="M25.955 0.403809V14.7115H35.7865V12.6922H28.3146V8.4807H35.8426V6.4615H28.3146V2.42304H35.8426V0.403809H25.955Z" fill="#1675F6"/>
<path d="M89.7753 0.403809V14.7115H99.5507V12.6922H92.1348V8.4807H99.6065V6.4615H92.1348V2.42304H99.6065V0.403809H89.7753Z" fill="#1675F6"/>
<path d="M77.8087 6.40384V2.42307H80.2246C81.292 2.42307 82.0225 2.53845 82.4159 2.65384C82.8087 2.76922 83.1457 2.99999 83.371 3.34615C83.6515 3.69229 83.708 4.03845 83.708 4.3846C83.708 4.78845 83.5957 5.1346 83.371 5.48076C83.0899 5.82691 82.8087 5.99999 82.4159 6.17307C82.0225 6.28845 81.2355 6.40384 80.1681 6.40384H77.8087ZM83.371 7.96152C83.371 7.96152 84.7754 7.32691 85.2246 6.80768C85.8428 6.17307 86.1797 5.30768 86.1797 4.32691C86.1797 3.34615 85.8428 2.48076 85.2246 1.84615C84.6065 1.21153 83.7638 0.749992 82.7529 0.519221C82.0225 0.403837 80.8428 0.288452 78.9884 0.288452H75.4493V14.6538H77.8652V8.30764H80.6739L85.2246 14.6538H88.2022L83.371 7.96152Z" fill="#1675F6"/>
<path d="M3.42689 8.82873H12.3595L13.3707 7.50183L12.3033 6.11718H3.42689V3.05949H10.0561L8.03362 0.40564H0.280823V14.7711H3.42689V8.82873Z" fill="#4E941E"/>
<path d="M13.2045 14.7711L18.4853 7.50183L13.1482 0.40564H9.60895L14.8898 7.50183L9.60895 14.7711H13.2045Z" fill="#4E941E"/>
<path d="M19.7204 7.90564L17.9788 10.3864L21.1248 14.7711H24.7204L19.7204 7.90564Z" fill="#4E941E"/>
<path d="M19.6619 6.98256L24.5495 0.40564H21.0102L17.8641 4.61718L19.6619 6.98256Z" fill="#4E941E"/>
<path d="M53.8201 0.403809H52.7528L46.7977 11.423L40.8426 0.403809H39.7752L37.3595 14.7115H39.719L41.1797 5.7115L46.3483 14.7115H47.2471L52.4157 5.7115L53.8763 14.7115H56.2359L53.8201 0.403809Z" fill="#1675F6"/>
</g>
</g>
</g>
<defs>
<clipPath id="clip0_808_68">
<rect width="100" height="15" rx="5" fill="white"/>
</clipPath>
<clipPath id="clip1_808_68">
<rect width="100" height="15" fill="white"/>
</clipPath>
</defs>
</svg>
