<svg width="90" height="20" viewBox="0 0 90 20" fill="none" xmlns="http://www.w3.org/2000/svg">

<g id="Homepage_Ui">

<g id="Group 16338">
<g id="Frame Component" >
<path id="Vector" d="M0.239377 1.23975V1.93786C1.6274 2.06479 1.79564 2.21288 1.79564 4.01106V12.05C1.79564 13.827 1.60637 14.0174 0.0921631 14.1232V14.8213H4.80301C7.1795 14.8213 9.07226 14.2924 10.4813 13.0866C11.8693 11.9019 12.7526 10.1037 12.7526 7.50165C12.7526 5.57655 12.0586 4.07451 11.1543 3.08024C9.95555 1.76862 8.1469 1.23975 5.66527 1.23975H0.239377ZM4.48756 3.35525C4.48756 2.69945 4.52963 2.40327 4.67684 2.27634C4.82405 2.17057 5.1185 2.06479 5.64427 2.06479C6.7168 2.06479 7.6632 2.42443 8.42032 3.27063C9.21947 4.1803 9.74523 5.74579 9.74523 7.88244C9.74523 11.9442 7.97865 13.9539 5.87558 13.9539C4.82405 13.9539 4.48756 13.4674 4.48756 12.05V3.35525Z" fill="#C7C7C7"/>
<path id="Vector_2" d="M22.9073 13.9327L22.718 13.2769C22.5497 13.3403 22.3395 13.4038 22.0871 13.4038C21.7085 13.4038 21.4141 13.1076 21.4141 12.1768V8.39007C21.4141 7.39576 21.2248 6.54956 20.5098 5.93607C19.984 5.49183 19.3321 5.2168 18.4698 5.2168C17.229 5.40721 15.9251 6.14762 15.1049 6.7188C14.6422 7.05728 14.4109 7.35345 14.4109 7.69193C14.4109 8.28428 15.189 8.70738 15.7358 8.70738C16.1144 8.70738 16.3667 8.53814 16.493 8.03042C16.6402 7.35345 16.8084 6.88804 17.0187 6.61304C17.25 6.31687 17.4603 6.21107 17.7758 6.21107C18.3857 6.21107 18.9115 6.84573 18.9115 8.07273V8.94011C18.4277 9.38435 16.7243 9.95552 15.7569 10.3363C14.7264 10.7594 14.2637 11.3518 14.2637 12.4307C14.2637 13.6788 15.2731 15.075 16.9556 15.075C17.4603 15.075 18.4067 14.3769 19.0377 13.9115C19.1218 14.1442 19.248 14.3769 19.5424 14.6308C19.7947 14.8847 20.1943 15.075 20.6991 15.075L22.9073 13.9327ZM18.9115 13.1711C18.6801 13.3827 18.4698 13.4673 18.1754 13.4673C17.6286 13.4673 16.9135 12.9172 16.9135 11.9018C16.9135 11.1614 17.208 10.8229 17.7968 10.4632C18.1754 10.2306 18.554 9.99783 18.9115 9.78628V13.1711Z" fill="#C7C7C7"/>
<path id="Vector_3" d="M25.7154 4.03202C26.5356 4.03202 27.1455 3.35507 27.1455 2.57233C27.1455 1.74729 26.5356 1.13379 25.7364 1.13379C24.9793 1.13379 24.3274 1.74729 24.3274 2.57233C24.3274 3.35507 24.9793 4.03202 25.7154 4.03202ZM28.4073 14.8211V14.1653C27.2506 14.0384 27.1455 13.9326 27.1455 12.5152V5.21671C25.9257 5.57636 24.6428 5.85136 23.4861 5.99946V6.59177C24.4746 6.80333 24.5797 6.84564 24.5797 8.15726V12.5152C24.5797 13.9537 24.4535 14.0384 23.3599 14.1653V14.8211H28.4073Z" fill="#C7C7C7"/>
<path id="Vector_4" d="M34.0688 14.8211V14.1653C32.9121 14.0384 32.8069 13.9537 32.8069 12.5364V0.160645C31.6292 0.499126 30.1991 0.77414 29.0635 0.901071V1.47226C30.1991 1.62034 30.2412 1.70496 30.2412 2.97427V12.5364C30.2412 13.8903 30.1571 14.0172 29.0004 14.1653V14.8211H34.0688Z" fill="#C7C7C7"/>
<path id="Vector_5" d="M43.7794 5.4707H40.2464V6.10536C41.2768 6.25343 41.4241 6.48615 41.2137 7.26888C40.8143 8.66512 40.3095 10.3364 39.7838 11.8807L38.3536 7.24774C38.1223 6.46498 38.1223 6.23229 39.1318 6.10536V5.4707H34.2316V6.10536C35.0937 6.21112 35.3041 6.46498 35.6829 7.39581C36.1032 8.41125 37.1337 11.2884 38.1855 14.4828C38.3117 14.8424 38.3745 15.1386 38.3327 15.4347C38.2695 15.6886 38.1223 15.9848 37.891 16.4713C37.5753 17.0214 37.1337 17.3598 36.4399 17.7618C36.0192 18.0156 35.872 18.2272 35.872 18.5657C35.872 19.2215 36.7134 19.8138 37.3022 19.8138C37.6807 19.8138 37.9329 19.6657 38.0801 19.1792C38.3536 18.1637 38.7534 16.8098 39.9942 13.4038C41.1087 10.421 41.6766 8.85553 42.181 7.62853C42.6439 6.48615 42.8121 6.2746 43.7794 6.10536V5.4707Z" fill="#C7C7C7"/>
<path id="Vector_6" d="M53.4035 4.28608C53.2985 3.08024 53.2144 1.57823 53.1931 1.23975H44.003V1.91671C45.3488 2.04364 45.5383 2.21288 45.5383 3.9899V12.0288C45.5383 13.827 45.3488 13.9962 44.003 14.1232V14.8213H49.9755V14.1232C48.3771 13.9962 48.2299 13.8058 48.2299 12.0077V8.47477H49.8495C51.5107 8.47477 51.7001 8.62287 51.9523 10.0826H52.6465V5.97849H51.9523C51.7001 7.33239 51.5107 7.48049 49.8495 7.48049H48.2299V2.82637C48.2299 2.14941 48.3352 2.08595 48.9872 2.08595H49.9123C51.0272 2.08595 51.5951 2.21288 51.9736 2.67829C52.3099 3.10139 52.4993 3.63025 52.7097 4.39184L53.4035 4.28608Z" fill="#C7C7C7"/>
<path id="Vector_7" d="M58.9155 5.2168C56.7705 5.2168 54.3098 6.86687 54.3098 10.3575C54.3098 12.6422 55.7819 15.075 58.8314 15.075C61.1449 15.075 63.3112 13.3826 63.3112 9.95552C63.3112 7.43807 61.6075 5.2168 58.9155 5.2168ZM58.6211 6.02069C59.7987 6.02069 60.472 7.73425 60.472 10.569C60.472 13.6788 59.7359 14.2711 59.0208 14.2711C57.8219 14.2711 57.149 12.2614 57.149 9.61704C57.149 7.18421 57.8432 6.02069 58.6211 6.02069Z" fill="#C7C7C7"/>
<path id="Vector_8" d="M68.0749 7.39594V5.1958C66.9813 5.57659 65.7404 5.85163 64.4783 5.9997V6.57087C65.4038 6.80359 65.5092 6.90935 65.5092 8.03059V12.6847C65.5092 13.9328 65.3829 14.0598 64.3102 14.1656V14.8214H69.6101V14.1656C68.1799 14.0598 68.0749 13.9751 68.0749 12.6847V8.49601C68.4111 7.69211 68.7478 7.56518 69.1053 7.56518C69.4207 7.56518 69.652 7.71325 69.9677 7.98828C70.1149 8.11521 70.3039 8.15752 70.5774 8.05173C71.0822 7.86135 71.587 7.26901 71.587 6.52856C71.587 5.80932 71.0613 5.21697 70.3461 5.21697C69.5047 5.21697 68.7896 6.10549 68.1167 7.39594H68.0749Z" fill="#C7C7C7"/>
<path id="Vector_9" d="M79.3925 12.346C78.7196 12.9384 78.0889 13.2134 77.2266 13.2134C75.8386 13.2134 74.6396 12.0076 74.5978 9.74397C76.5115 9.65935 78.9931 9.46894 79.2875 9.40549C79.7714 9.32087 79.8555 9.08818 79.8555 8.62276C79.8555 6.90918 78.5093 5.2168 76.6378 5.2168H76.6165C75.481 5.2168 74.4084 5.85145 73.6092 6.69762C72.8731 7.43807 72.1161 8.792 72.1161 10.569C72.1161 12.9595 73.6092 15.075 76.2593 15.075C77.1213 15.075 78.6356 14.6096 79.7714 12.8749L79.3925 12.346ZM76.2593 6.04183C77.0163 6.04183 77.437 7.16304 77.437 8.2208C77.437 8.60159 77.3316 8.70738 76.9741 8.70738C76.2171 8.72852 75.502 8.74969 74.6818 8.77083C74.8081 7.16304 75.5229 6.04183 76.2593 6.04183Z" fill="#C7C7C7"/>
<path id="Vector_10" d="M89.7855 14.8212V14.1654C88.9444 14.1019 88.4606 13.8481 87.7877 12.6211L85.958 9.34205C86.6309 8.34777 87.0516 7.73429 87.5354 7.14194C88.1661 6.4015 88.4396 6.23229 89.4282 6.10536V5.4707H85.853V6.10536C86.61 6.21112 86.7781 6.4015 86.4628 6.9727C86.2315 7.39581 85.958 7.96698 85.5164 8.62281L84.6331 6.9727C84.3387 6.4015 84.3806 6.23229 85.0747 6.10536V5.4707H80.4268V6.10536C81.4154 6.23229 81.6889 6.48612 82.2356 7.50157L83.918 10.6114C83.3082 11.521 82.7613 12.3672 82.3196 12.9384C81.6467 13.7846 81.2051 14.0173 80.2165 14.1654V14.8212H83.918V14.1654C83.0979 14.0385 83.0138 13.8481 83.3292 13.2346C83.6658 12.5788 83.9811 11.923 84.3806 11.3518L85.327 13.2134C85.6427 13.8481 85.6214 14.0808 84.8013 14.1654V14.8212H89.7855Z" fill="#C7C7C7"/>
</g>
</g>
</g>
<defs>

</defs>
</svg>
