<svg width="90" height="20" viewBox="0 0 90 20" fill="none" xmlns="http://www.w3.org/2000/svg">
<g clip-path="url(#clip0_808_107)">
<g clip-path="url(#clip1_808_107)">
<path d="M0.239361 1.23975V1.93786C1.62738 2.06479 1.79563 2.21288 1.79563 4.01106V12.05C1.79563 13.827 1.60636 14.0174 0.0921478 14.1232V14.8213H4.803C7.17949 14.8213 9.07224 14.2924 10.4813 13.0866C11.8693 11.9019 12.7526 10.1037 12.7526 7.50165C12.7526 5.57655 12.0586 4.07451 11.1543 3.08024C9.95553 1.76862 8.14688 1.23975 5.66525 1.23975H0.239361ZM4.48755 3.35525C4.48755 2.69945 4.52962 2.40327 4.67682 2.27634C4.82403 2.17057 5.11849 2.06479 5.64425 2.06479C6.71679 2.06479 7.66319 2.42443 8.4203 3.27063C9.21945 4.1803 9.74522 5.74579 9.74522 7.88244C9.74522 11.9442 7.97864 13.9539 5.87557 13.9539C4.82403 13.9539 4.48755 13.4674 4.48755 12.05V3.35525Z" fill="#002D5A"/>
<path d="M22.9073 13.9328L22.718 13.277C22.5497 13.3405 22.3395 13.4039 22.0871 13.4039C21.7085 13.4039 21.4141 13.1077 21.4141 12.1769V8.3902C21.4141 7.39588 21.2248 6.54968 20.5098 5.9362C19.984 5.49195 19.3321 5.21692 18.4698 5.21692C17.229 5.40733 15.9251 6.14775 15.1049 6.71892C14.6422 7.0574 14.4109 7.35357 14.4109 7.69206C14.4109 8.2844 15.189 8.70751 15.7358 8.70751C16.1144 8.70751 16.3667 8.53826 16.493 8.03054C16.6402 7.35357 16.8084 6.88816 17.0187 6.61316C17.25 6.31699 17.4603 6.2112 17.7758 6.2112C18.3857 6.2112 18.9115 6.84585 18.9115 8.07285V8.94023C18.4277 9.38447 16.7243 9.95564 15.7569 10.3364C14.7264 10.7595 14.2637 11.3519 14.2637 12.4308C14.2637 13.679 15.2731 15.0752 16.9556 15.0752C17.4603 15.0752 18.4067 14.3771 19.0377 13.9116C19.1218 14.1444 19.248 14.3771 19.5424 14.6309C19.7947 14.8848 20.1943 15.0752 20.6991 15.0752L22.9073 13.9328ZM18.9115 13.1712C18.6801 13.3828 18.4698 13.4674 18.1754 13.4674C17.6286 13.4674 16.9135 12.9174 16.9135 11.9019C16.9135 11.1615 17.208 10.823 17.7968 10.4634C18.1754 10.2307 18.554 9.99795 18.9115 9.7864V13.1712Z" fill="#002D5A"/>
<path d="M25.7154 4.03226C26.5356 4.03226 27.1455 3.35531 27.1455 2.57257C27.1455 1.74753 26.5356 1.13403 25.7364 1.13403C24.9793 1.13403 24.3273 1.74753 24.3273 2.57257C24.3273 3.35531 24.9793 4.03226 25.7154 4.03226ZM28.4073 14.8213V14.1655C27.2506 14.0386 27.1455 13.9328 27.1455 12.5154V5.21695C25.9257 5.5766 24.6428 5.8516 23.4861 5.99971V6.59202C24.4746 6.80357 24.5797 6.84588 24.5797 8.1575V12.5154C24.5797 13.954 24.4535 14.0386 23.3599 14.1655V14.8213H28.4073Z" fill="#002D5A"/>
<path d="M34.0688 14.8213V14.1655C32.9121 14.0386 32.807 13.954 32.807 12.5366V0.160889C31.6292 0.49937 30.1991 0.774384 29.0635 0.901315V1.4725C30.1991 1.62059 30.2412 1.70521 30.2412 2.97451V12.5366C30.2412 13.8905 30.1571 14.0175 29.0004 14.1655V14.8213H34.0688Z" fill="#002D5A"/>
<path d="M43.7794 5.47083H40.2464V6.10548C41.2769 6.25355 41.4241 6.48627 41.2137 7.269C40.8143 8.66524 40.3095 10.3365 39.7838 11.8808L38.3536 7.24786C38.1223 6.4651 38.1223 6.23241 39.1319 6.10548V5.47083H34.2316V6.10548C35.0937 6.21124 35.3041 6.4651 35.6829 7.39593C36.1033 8.41138 37.1337 11.2885 38.1855 14.4829C38.3117 14.8425 38.3745 15.1387 38.3327 15.4349C38.2695 15.6887 38.1223 15.9849 37.891 16.4714C37.5753 17.0215 37.1337 17.36 36.4399 17.7619C36.0192 18.0158 35.872 18.2273 35.872 18.5658C35.872 19.2216 36.7134 19.814 37.3022 19.814C37.6807 19.814 37.9329 19.6659 38.0801 19.1793C38.3536 18.1639 38.7534 16.8099 39.9942 13.404C41.1087 10.4211 41.6766 8.85565 42.181 7.62865C42.6439 6.48627 42.8121 6.27472 43.7794 6.10548V5.47083Z" fill="#002D5A"/>
<path d="M53.4035 4.28608C53.2985 3.08024 53.2144 1.57823 53.1931 1.23975H44.003V1.91671C45.3488 2.04364 45.5383 2.21288 45.5383 3.9899V12.0288C45.5383 13.827 45.3488 13.9962 44.003 14.1232V14.8213H49.9755V14.1232C48.3771 13.9962 48.2299 13.8058 48.2299 12.0077V8.47477H49.8495C51.5107 8.47477 51.7001 8.62287 51.9523 10.0826H52.6465V5.97849H51.9523C51.7001 7.33239 51.5107 7.48049 49.8495 7.48049H48.2299V2.82637C48.2299 2.14941 48.3352 2.08595 48.9872 2.08595H49.9123C51.0272 2.08595 51.5951 2.21288 51.9736 2.67829C52.3099 3.10139 52.4993 3.63025 52.7097 4.39184L53.4035 4.28608Z" fill="#C4C4C4"/>
<path d="M58.9155 5.21692C56.7705 5.21692 54.3098 6.86699 54.3098 10.3576C54.3098 12.6423 55.7819 15.0752 58.8314 15.0752C61.1449 15.0752 63.3112 13.3827 63.3112 9.95564C63.3112 7.4382 61.6074 5.21692 58.9155 5.21692ZM58.621 6.02082C59.7987 6.02082 60.472 7.73437 60.472 10.5691C60.472 13.6789 59.7359 14.2713 59.0208 14.2713C57.8219 14.2713 57.149 12.2615 57.149 9.61716C57.149 7.18433 57.8431 6.02082 58.621 6.02082Z" fill="#C4C4C4"/>
<path d="M68.0749 7.39594V5.1958C66.9813 5.57659 65.7404 5.85163 64.4783 5.9997V6.57087C65.4038 6.80359 65.5092 6.90935 65.5092 8.03059V12.6847C65.5092 13.9328 65.3829 14.0598 64.3102 14.1656V14.8214H69.6101V14.1656C68.1799 14.0598 68.0749 13.9751 68.0749 12.6847V8.49601C68.4111 7.69211 68.7478 7.56518 69.1053 7.56518C69.4207 7.56518 69.652 7.71325 69.9677 7.98828C70.1149 8.11521 70.3039 8.15752 70.5774 8.05173C71.0822 7.86135 71.587 7.26901 71.587 6.52856C71.587 5.80932 71.0613 5.21697 70.3461 5.21697C69.5047 5.21697 68.7896 6.10549 68.1167 7.39594H68.0749Z" fill="#C4C4C4"/>
<path d="M79.3926 12.3462C78.7197 12.9385 78.089 13.2135 77.2266 13.2135C75.8386 13.2135 74.6397 12.0077 74.5978 9.74409C76.5115 9.65947 78.9931 9.46906 79.2876 9.40561C79.7714 9.32099 79.8555 9.0883 79.8555 8.62288C79.8555 6.9093 78.5093 5.21692 76.6378 5.21692H76.6165C75.481 5.21692 74.4084 5.85157 73.6092 6.69775C72.8731 7.4382 72.1162 8.79213 72.1162 10.5691C72.1162 12.9596 73.6092 15.0752 76.2593 15.0752C77.1213 15.0752 78.6356 14.6097 79.7714 12.875L79.3926 12.3462ZM76.2593 6.04195C77.0163 6.04195 77.437 7.16316 77.437 8.22092C77.437 8.60171 77.3316 8.70751 76.9741 8.70751C76.2171 8.72864 75.502 8.74982 74.6819 8.77095C74.8081 7.16316 75.5229 6.04195 76.2593 6.04195Z" fill="#C4C4C4"/>
<path d="M89.7855 14.8213V14.1655C88.9444 14.1021 88.4606 13.8482 87.7877 12.6212L85.958 9.34217C86.6309 8.34789 87.0516 7.73441 87.5354 7.14207C88.1661 6.40162 88.4396 6.23241 89.4282 6.10548V5.47083H85.853V6.10548C86.61 6.21124 86.7781 6.40162 86.4628 6.97282C86.2315 7.39593 85.958 7.9671 85.5164 8.62293L84.6331 6.97282C84.3387 6.40162 84.3806 6.23241 85.0747 6.10548V5.47083H80.4268V6.10548C81.4154 6.23241 81.6889 6.48624 82.2356 7.50169L83.918 10.6115C83.3082 11.5212 82.7613 12.3673 82.3196 12.9385C81.6467 13.7848 81.2051 14.0174 80.2165 14.1655V14.8213H83.918V14.1655C83.0979 14.0386 83.0138 13.8482 83.3292 13.2347C83.6658 12.5789 83.9811 11.9231 84.3806 11.3519L85.327 13.2135C85.6427 13.8482 85.6214 14.0809 84.8013 14.1655V14.8213H89.7855Z" fill="#C4C4C4"/>
</g>
</g>
<defs>
<clipPath id="clip0_808_107">
<rect width="90" height="20" rx="5" fill="white"/>
</clipPath>
<clipPath id="clip1_808_107">
<rect width="90" height="20" fill="white"/>
</clipPath>
</defs>
</svg>
