<svg version="1.1" id="Layer_1" xmlns:x="ns_extend;" xmlns:i="ns_ai;" xmlns:graph="ns_graphs;" xmlns="http://www.w3.org/2000/svg" xmlns:xlink="http://www.w3.org/1999/xlink" x="0px" y="0px" viewBox="0 0 156.2 92" style="enable-background:new 0 0 156.2 92;" xml:space="preserve">
 <style type="text/css">
  .st0{fill-rule:evenodd;clip-rule:evenodd;fill:#FFFFFE;}
	.st1{fill-rule:evenodd;clip-rule:evenodd;fill:#B52532;}
	.st2{fill-rule:evenodd;clip-rule:evenodd;fill:#253B73;}
 </style>
 <metadata>
  <sfw xmlns="ns_sfw;">
   <slices>
   </slices>
   <sliceSourceBounds bottomLeftOrigin="true" height="92" width="156.2" x="-105.4" y="0.1">
   </sliceSourceBounds>
  </sfw>
 </metadata>
 <g>
  <path class="st0" d="M61.8,89.7H51.5V2.2h15.9l10.7,72.2c-1.6-17.2-3.7-44.9-3.7-59.4V2.2h10.3v87.5H70.1l-9.8-70.1
		c0.9,15.7,1.5,34.4,1.5,45L61.8,89.7 M90.6,89.7V2.2h14.6c9.7,0,15.7,5.3,15.7,17.5v12.9c0,8-2.5,12-5.9,14.1
		c3.4,2.2,5.9,6.1,5.9,12.9v12.7c0,12-6.4,17.4-15.7,17.4L90.6,89.7z M102.3,13.3v28.9h1.5c4.2,0,5.3-1.6,5.3-6.4V19.2
		c0-4-1.2-5.9-4.8-5.9L102.3,13.3z M102.3,51.8v27h2c3.7,0,4.8-2.1,4.8-6.2V57.6c0-4.3-1.4-5.9-5.3-5.9H102.3z M142.9,73.3h-7.4
		l-1,16.4h-11.9l8.6-87.5h16.7l8.3,87.5h-12.4L142.9,73.3L142.9,73.3z M136,63.4h6.3l-1-16.1c-0.4-6.4-1.3-26.6-2.1-37.5h-0.5
		L137,47.3L136,63.4z M31.1,0H9.5C4.3,0,0,4.3,0,9.5v72.9C0,87.7,4.3,92,9.5,92H31c5.3,0,9.5-4.3,9.5-9.5V9.5
		C40.6,4.3,36.3,0,31.1,0">
  </path>
  <path class="st1" d="M25.7,16.9l0,0.3c0.7,0.4,1,0.7,1.7,1.1c1.8,1.1,3.9,3.1,3.6,9.8c0.5,1.5,0.7,4.4,1.2,5.3
		c0.9,1.8,1.5,3,1.8,4.7c0,0,0.3,2.7,0.6,2.9c1.8,0.4,1.3,0.6,1.6,0.9c0.3,0.4,1.3,0.3,1.3,1.3c0.4,0.5,0.6,1,0.8,1.5V9.5
		c0-4-3.3-7.3-7.3-7.3h-7c1.1,0.4,1.8,0.9,2.1,1.6c0.9,0.1,2,2.1,0.3,5.1c0.7,0.5,0.2,1.2-0.4,2.1c-0.2,0.3-0.3,0.8-0.8,0.7
		c-0.6,1.3-1.4,2.6-2,2.7c-0.2,0.2-0.3,0.8,0,1.1C24.2,15.9,25.2,16.4,25.7,16.9 M38.3,49.5c-1,2.5-3.4,4.1-6,4.1
		c-3.6,0-6.5-2.9-6.5-6.5c0,0,0,0,0,0c0-3.1,2.1-5.6,5-6.3C30,39,28.4,35.9,28,34.9c-0.4-1-1.5-7.2-1.7-8.4
		c-0.1-0.3-2.8,1.6-2.8,1.7c-0.2,0.2-2.1,5.1-2.1,5.4c0,0.2,0,0.8,0,0.8s0.9,0.1,1.5,1.7c0.5,1.6,2.2,7.6,2.2,7.6s-0.4,0.5-0.5,0.4
		c2.1,6.9,1.3,9.8,2.3,11.8c1.2,2.8,1.5,2.5,2.5,4.8c0.7,1.7,1.5,8.6,1.8,8.9c1.1,1.4,1.7,2.5,1.7,3.3c0,0.8-0.9,3.2-0.6,4.5
		c0.2,0.8,0.3,2.6,0.7,3c0,0,0.3,0.7,0.2,1c0,0.1-0.1,0.3-0.1,0.4c0.6,2.2,2.6,5.8-0.6,7.8h0.1c3.5-0.6,6.1-3.6,6.1-7.2V49.5z">
  </path>
  <path class="st2" d="M30.1,81.1c-1.2-1-0.4-1.5-0.4-1.9c-0.8-3.2-3.3-5.1-2-6.2c-0.3-1.1-1-2.4-1-2.4c-3.9-2.3-7.3-5.9-7.9-6.5
		c-0.7-0.8-1.9-1.5-2.1-2.1c-0.9-0.9-5.6-7.5-6.7-9.9l-1.9-0.3c-0.9-3.5-3.7-6.4-3.8-10c0-1.3,0.6-4.2,0.8-4.7
		c0.2-0.6,1.3-1.5,1.3-1.5v-0.9c-4.1,0.1-2.9-0.3-3.6-1.9c-0.5-1.1-0.1-1.4,0-2.1c0.6-2.3,2.4-5.8,3.1-7.4c0.2-0.8,1-2.7,1-2.7
		c3.1-6.2,4.2-5.8,7.9-6.1l0.2-0.3c3.7-0.2,3.1-0.4,3.6-4c-0.5,0.2-0.7-1.1-0.7-1.1c-0.3-2,0.6-1.6,1-1.7c0.1-3.3,0.4-4.3,2.8-5.2
		H9.5c-4,0-7.3,3.3-7.3,7.3c0,0,0,0,0,0v72.9c0,4,3.3,7.3,7.3,7.3h21.5C28.6,88.4,30.1,85.9,30.1,81.1">
  </path>
 </g>
</svg>