<svg width="121" height="34" viewBox="0 0 121 34" fill="none" xmlns="http://www.w3.org/2000/svg">
<path d="M121 10.5217H0V12.6261H121V10.5217Z" fill="#D5111F"/>
<path d="M11.9741 5.42189C13.1194 5.42189 13.7347 4.79031 13.7347 3.60487V1.81701C13.7347 0.641298 13.1194 0.00971687 11.9741 0.00971687H0V7.3555H1.61863V5.42189H11.9741ZM12.1161 1.9239V3.51742C12.1161 3.71176 12.0119 3.80893 11.8321 3.80893H1.6281V1.6324H11.8321C12.0214 1.6324 12.1161 1.73928 12.1161 1.9239ZM17.5493 7.3555C16.404 7.3555 15.7887 6.72392 15.7887 5.5482V1.82673C15.7887 0.651014 16.404 0.0194319 17.5493 0.0194319H27.4978C28.6431 0.0194319 29.2584 0.651014 29.2584 1.82673V5.5482C29.2584 6.72392 28.6431 7.3555 27.4978 7.3555H17.5493ZM27.3558 5.74254C27.5451 5.74254 27.6397 5.63565 27.6397 5.45104V1.9239C27.6397 1.72956 27.5356 1.6324 27.3558 1.6324H17.6913C17.502 1.6324 17.4074 1.73928 17.4074 1.9239V5.45104C17.4074 5.64537 17.5115 5.74254 17.6913 5.74254H27.3558ZM43.4569 4.85832C44.4035 5.26642 45.0755 6.22837 45.0755 7.3555H43.4569C43.4569 6.03404 42.8605 5.42189 41.5732 5.42189H32.9595V7.3555H31.3408V0.00971687H43.3149C44.4602 0.00971687 45.0755 0.641298 45.0755 1.81701V3.04131C45.0755 4.16844 44.5076 4.80002 43.4569 4.84861M43.1634 3.80893C43.3528 3.80893 43.4474 3.70204 43.4474 3.51742V1.9239C43.4474 1.72956 43.3433 1.6324 43.1634 1.6324H32.95V3.80893H43.1634ZM47.0349 1.82673C47.0349 0.651014 47.6502 0.0194319 48.7955 0.0194319H60.5329V1.38948H48.9375C48.7482 1.38948 48.6535 1.49636 48.6535 1.68098V2.71094C48.6535 2.90528 48.7577 3.00244 48.9375 3.00244H58.9995C60.1449 3.00244 60.7601 3.63402 60.7601 4.81946V5.55792C60.7601 6.73363 60.1449 7.36522 58.9995 7.36522H47.2621V5.99517H58.8481C59.0374 5.99517 59.132 5.88829 59.132 5.70367V4.67371C59.132 4.47937 59.0279 4.38221 58.8481 4.38221H48.7861C47.6407 4.38221 47.0254 3.75062 47.0254 2.57491V1.83645L47.0349 1.82673ZM62.7952 1.82673C62.7952 0.651014 63.4105 0.0194319 64.5558 0.0194319H76.0093V1.6324H64.7073C64.518 1.6324 64.4233 1.73928 64.4233 1.9239V5.45104C64.4233 5.64537 64.5275 5.74254 64.7073 5.74254H76.0093V7.3555H64.5558C63.4105 7.3555 62.7952 6.72392 62.7952 5.5482V1.82673ZM91.0313 0.00971687V7.3555H89.4127V4.48909H79.7104V7.3555H78.0918V0.00971687H79.7104V2.87613H89.4127V0.00971687H91.0313ZM94.7513 1.37976V2.99273H107.322V4.36277H94.7513V5.97574H107.322V7.34578H93.1327V0H107.322V1.37005H94.7513V1.37976Z" fill="white"/>
<path d="M0 20.5428C0 17.7546 0.605674 17.036 2.60251 17.036C4.59934 17.036 4.88325 17.86 4.95896 19.7188H3.70029C3.65297 18.5403 3.4637 18.2241 2.60251 18.2241C1.51418 18.2241 1.3533 18.5499 1.3533 20.5237C1.3533 22.7753 1.51418 23.034 2.60251 23.034C3.4637 23.034 3.65297 22.6891 3.70029 21.4914H4.95896C4.88325 23.3311 4.37221 24.088 2.60251 24.088C0.511037 24.088 0 23.2257 0 20.5428Z" fill="white"/>
<path d="M7.58037 17.151H9.17973L11.1292 23.973H9.79487L9.43525 22.6795H7.17343L6.82328 23.973H5.63086L7.58037 17.151ZM7.47627 21.5872H9.14187L8.30907 18.5403L7.47627 21.5872Z" fill="white"/>
<path d="M12.1318 17.151H14.564C15.9741 17.151 16.6176 17.6588 16.6176 19.3452C16.6176 20.6099 16.2391 21.1944 15.482 21.3764L16.8163 23.973H15.3873L14.2328 21.6064H13.4284V23.973H12.1318V17.151ZM13.4284 18.3391V20.4949H14.3937C15.0466 20.4949 15.2832 20.3991 15.2832 19.3931C15.2832 18.4732 15.0561 18.3391 14.3558 18.3391H13.4284Z" fill="white"/>
<path d="M17.9434 17.151H20.3755C21.7856 17.151 22.4291 17.6588 22.4291 19.3452C22.4291 20.6099 22.0506 21.1944 21.2935 21.3764L22.6279 23.973H21.1989L20.0443 21.6064H19.2399V23.973H17.9434V17.151ZM19.2399 18.3391V20.4949H20.2052C20.8582 20.4949 21.0948 20.3991 21.0948 19.3931C21.0948 18.4732 20.8676 18.3391 20.1673 18.3391H19.2399Z" fill="white"/>
<path d="M23.7539 17.151H27.7476V18.3391H25.0504V19.9967H27.5204V21.1082H25.0504V22.9191H27.7476V23.973H23.7539V17.151Z" fill="white"/>
<path d="M29.0537 17.151H31.4859C32.896 17.151 33.5395 17.6588 33.5395 19.3452C33.5395 20.6099 33.1609 21.1944 32.4038 21.3764L33.7382 23.973H32.3092L31.1546 21.6064H30.3502V23.973H29.0537V17.151ZM30.3502 18.3391V20.4949H31.3155C31.9685 20.4949 32.2051 20.3991 32.2051 19.3931C32.2051 18.4732 31.978 18.3391 31.2777 18.3391H30.3502Z" fill="white"/>
<path d="M36.6058 17.151H38.2051L40.1546 23.973H38.8203L38.4606 22.6795H36.1988L35.8487 23.973H34.6562L36.6058 17.151ZM36.5017 21.5872H38.1673L37.3345 18.5403L36.5017 21.5872Z" fill="white"/>
<path d="M42.7949 20.5428C42.7949 17.7546 43.4006 17.036 45.3974 17.036C47.3943 17.036 47.6782 17.86 47.7539 19.7188H46.4952C46.4479 18.5403 46.2586 18.2241 45.3974 18.2241C44.3091 18.2241 44.1482 18.5499 44.1482 20.5237C44.1482 22.7753 44.3091 23.034 45.3974 23.034C46.2586 23.034 46.4479 22.6891 46.4952 21.4914H47.7539C47.6782 23.3311 47.1671 24.088 45.3974 24.088C43.306 24.088 42.7949 23.2257 42.7949 20.5428Z" fill="white"/>
<path d="M48.9268 17.151H50.2233V21.8076C50.2233 22.737 50.5545 23.034 51.3495 23.034C52.1444 23.034 52.4756 22.737 52.4756 21.8076V17.151H53.7627V21.7789C53.7627 23.3023 53.1192 24.088 51.3495 24.088C49.5798 24.088 48.9268 23.3023 48.9268 21.7789V17.151Z" fill="white"/>
<path d="M55.2666 17.151H57.7461C59.1562 17.151 59.7524 17.7259 59.7524 19.3452C59.7524 21.1082 59.1372 21.6064 57.7272 21.6064H56.5631V23.973H55.2666V17.151ZM56.5631 18.3391V20.4949H57.5473C58.2476 20.4949 58.418 20.3416 58.418 19.3931C58.418 18.5211 58.2193 18.3391 57.5473 18.3391H56.5631Z" fill="white"/>
<path d="M0 33.545L0.264982 26.7229H1.09778L3.07569 32.2419L5.01574 26.7229H5.80122L6.08513 33.545H5.32804L5.1293 28.4764L3.30282 33.545H2.79178L0.946365 28.4093L0.757092 33.545H0Z" fill="white"/>
<path d="M7.86328 26.7325H8.64876V33.5546H7.86328V26.7325Z" fill="white"/>
<path d="M10.5605 26.7325H12.6615C14.5447 26.7325 15.141 27.6428 15.141 30.0956C15.141 32.5485 14.5542 33.5546 12.6615 33.5546H10.5605V26.7325ZM11.346 27.4607V32.9222H12.6615C13.9864 32.9222 14.3365 32.3186 14.3365 30.0956C14.3365 28.0739 13.9864 27.4607 12.6615 27.4607H11.346Z" fill="white"/>
<path d="M16.7607 26.7325H18.8617C20.7449 26.7325 21.3412 27.6428 21.3412 30.0956C21.3412 32.5485 20.7544 33.5546 18.8617 33.5546H16.7607V26.7325ZM17.5462 27.4607V32.9222H18.8617C20.1866 32.9222 20.5367 32.3186 20.5367 30.0956C20.5367 28.0739 20.1866 27.4607 18.8617 27.4607H17.5462Z" fill="white"/>
<path d="M22.959 26.7325H23.7445V32.9222H26.5646V33.5546H22.959V26.7325Z" fill="white"/>
<path d="M27.8711 26.7325H31.4767V27.4607H28.6566V29.7124H31.2496V30.3831H28.6566V32.9222H31.4767V33.5546H27.8711V26.7325Z" fill="white"/>
<path d="M35.4795 26.7325H39.0851V27.4607H36.265V29.7124H38.858V30.3831H36.265V32.9222H39.0851V33.5546H35.4795V26.7325Z" fill="white"/>
<path d="M42.3506 26.7325H43.2024L45.3128 33.5546H44.5083L44.0162 31.9066H41.4516L40.9595 33.5546H40.2402L42.3506 26.7325ZM41.6598 31.2359H43.808L42.7292 27.6619L41.6598 31.2359Z" fill="white"/>
<path d="M46.912 31.485C46.9877 32.5964 47.3662 33.0372 48.3505 33.0372C49.2684 33.0372 49.7322 32.6731 49.7322 31.8299C49.7322 31.0346 49.2684 30.7664 48.5114 30.5651L47.9814 30.4214C46.9877 30.1531 46.2685 29.7507 46.2685 28.4764C46.2685 27.3362 46.9404 26.6175 48.341 26.6175C49.9309 26.6175 50.3946 27.4511 50.4703 28.8788H49.7227C49.647 27.729 49.259 27.3457 48.341 27.3457C47.5082 27.3457 47.0445 27.7098 47.0445 28.4764C47.0445 29.3004 47.5366 29.5303 48.2558 29.722L48.7858 29.8657C49.893 30.1627 50.5176 30.6418 50.5176 31.8299C50.5176 32.9509 49.8173 33.6696 48.3505 33.6696C46.8836 33.6696 46.2401 32.9701 46.1738 31.485H46.912Z" fill="white"/>
<path d="M51.3867 26.7325H55.9955V27.4607H54.0839V33.5546H53.3078V27.4607H51.3867V26.7325Z" fill="white"/>
</svg>
