<svg width="46" height="31" viewBox="0 0 46 31" fill="none" xmlns="http://www.w3.org/2000/svg">
<g clip-path="url(#clip0_1002_2149)">
<path d="M5.48834 20.9024L10.1534 0H3.11252C1.39477 0 0 1.44032 0 3.20882V27.7873C0 29.5587 1.39477 31.0005 3.11252 31.0005H10.1483C11.8656 31.0005 13.2678 29.5582 13.2678 27.7873V3.20882C13.2678 1.44032 11.8698 0 10.1534 0" fill="white"/>
<path d="M8.40685 5.68308L8.4143 5.78815C8.62884 5.91721 8.73774 6.02228 8.95415 6.16574C9.52844 6.53806 10.2358 7.20064 10.1465 9.48251C10.3075 9.98005 10.3787 10.9583 10.5272 11.2721C10.8259 11.8834 11.0261 12.2811 11.1131 12.8583C11.1131 12.8583 11.1992 13.7565 11.3118 13.8212C11.9056 13.9594 11.7339 14.0199 11.8209 14.1244C11.9131 14.2473 12.2556 14.2415 12.2556 14.5711C12.3748 14.7352 12.4627 14.9055 12.5297 15.0831V3.20833C12.5297 1.85485 11.4621 0.756142 10.1535 0.756142H7.87863C8.24397 0.890002 8.45013 1.04785 8.57067 1.29878C8.86433 1.32469 9.21384 2.00359 8.6698 3.00586C8.91087 3.17139 8.72285 3.41848 8.54973 3.70539C8.499 3.79751 8.44362 3.96064 8.28259 3.95008C8.07596 4.39821 7.82651 4.83241 7.63803 4.85976C7.58079 4.93221 7.53937 5.12508 7.62546 5.21576C7.90237 5.34387 8.23978 5.51947 8.40685 5.6826" fill="#C8102E"/>
<path d="M12.5297 16.6918C12.2212 17.4993 11.4528 18.0697 10.5551 18.0697C9.38044 18.0697 8.43384 17.091 8.43384 15.8838C8.43384 14.8523 9.12169 13.9872 10.0548 13.7565C9.81 13.1255 9.29388 12.1031 9.14077 11.7673C8.99557 11.4343 8.64606 9.35489 8.57067 8.94323C8.55345 8.85351 7.65571 9.48059 7.65385 9.51945C7.60126 9.57175 6.97997 11.2448 6.9539 11.335C6.94134 11.3921 6.93994 11.6156 6.93994 11.6156C6.93994 11.6156 7.24524 11.6545 7.42115 12.2039C7.59521 12.7527 8.12575 14.7558 8.12575 14.7558C8.12575 14.7558 7.98195 14.9089 7.9759 14.8998C8.64606 17.2124 8.41197 18.2079 8.71261 18.8859C9.09051 19.8416 9.19243 19.7164 9.5168 20.5195C9.7495 21.1049 10.0087 23.4074 10.0953 23.5096C10.4569 23.9822 10.6519 24.3521 10.6519 24.6184C10.6519 24.8846 10.3457 25.6796 10.4574 26.1417C10.5253 26.4132 10.5607 27.0226 10.6831 27.1382C10.6831 27.1382 10.7957 27.3671 10.7403 27.4683C10.7245 27.5033 10.6924 27.5566 10.7068 27.5983C10.9065 28.3247 11.5501 29.563 10.5071 30.2112H10.5295C11.6678 30.0294 12.5302 29.0228 12.5302 27.7864V16.6913L12.5297 16.6918Z" fill="#C8102E"/>
<path d="M9.85037 27.3162C9.46782 26.9645 9.72332 26.8158 9.70796 26.6771C9.45572 25.6034 8.62873 24.9542 9.05642 24.5996C8.95078 24.2451 8.73577 23.7998 8.74368 23.8008C7.45455 23.0375 6.3567 21.7982 6.17054 21.6163C5.94436 21.363 5.55948 21.1087 5.48688 20.9029C5.17693 20.6093 3.65744 18.3874 3.30374 17.5693L2.6871 17.4796C2.40647 16.2979 1.47011 15.3081 1.44684 14.1235C1.438 13.6759 1.6437 12.7163 1.72049 12.5248C1.79542 12.331 2.15423 12.0119 2.15423 12.0119V11.6948C0.808792 11.7342 1.196 11.5926 0.963766 11.0533C0.80088 10.6801 0.917693 10.598 0.976332 10.3389C1.1569 9.57463 1.75632 8.39579 2.00438 7.86035C2.08023 7.59023 2.33946 6.93868 2.33946 6.93868C3.34191 4.83386 3.71654 4.98835 4.90747 4.86984L4.96611 4.783C6.15937 4.72974 5.96391 4.63714 6.13238 3.45207C5.95832 3.52883 5.90666 3.08119 5.90666 3.08119C5.81173 2.40661 6.0877 2.53472 6.21848 2.52128C6.2464 1.41249 6.3567 1.06369 7.1325 0.758064H3.1134C1.79821 0.758064 0.733398 1.85678 0.733398 3.2117V27.7888C0.733398 29.1451 1.79867 30.2439 3.1134 30.2439H10.1529C9.34682 29.7948 9.82245 28.9403 9.84991 27.3176L9.85037 27.3162Z" fill="#1D428A"/>
<path d="M4.44532 28.6975V24.248H5.28256C5.76703 24.248 6.06628 24.5162 6.06628 25.1394V25.8001C6.06628 26.2045 5.94667 26.4108 5.77866 26.5106C5.94667 26.6291 6.06628 26.8287 6.06628 27.1651V27.8133C6.06628 28.424 5.74888 28.698 5.28256 28.698H4.44532V28.6975ZM5.01962 26.7654V28.1366H5.24068C5.438 28.1366 5.49199 28.0306 5.49199 27.819V27.0648C5.49199 26.8465 5.42637 26.7654 5.23463 26.7654H5.01915H5.01962ZM5.01962 24.8083V26.2794H5.23509C5.43847 26.2794 5.49245 26.204 5.49245 25.9618V25.1082C5.49245 24.9024 5.43242 24.8088 5.24114 24.8088H5.02008L5.01962 24.8083ZM7.41823 27.7936H6.89793L6.82579 28.6975H6.24592L6.76622 24.248H7.59182L8.09398 28.6975H7.4899L7.41823 27.7936ZM7.16087 24.7465H7.13109C7.09525 25.2824 7.02358 26.2232 6.99938 26.5226L6.93376 27.2888H7.3824L7.31631 26.5226C7.29211 26.2175 7.20881 25.2886 7.16087 24.7465ZM2.73455 28.6975H2.23193V24.248H3.02775L3.66766 27.8939C3.61367 27.0216 3.54154 25.968 3.54154 25.0708V24.248H4.04416V28.6975H3.31443L2.67452 25.1322C2.7164 25.955 2.73409 26.6099 2.73409 27.2951V28.697L2.73455 28.6975Z" fill="white"/>
<path d="M20.7441 9.75263V9.92919C20.7441 10.2622 20.699 10.5606 20.6091 10.825C20.5193 11.0893 20.3918 11.3143 20.2275 11.501C20.0632 11.6876 19.8687 11.8301 19.6444 11.9285C19.4201 12.0268 19.1725 12.0767 18.9016 12.0767C18.6308 12.0767 18.3799 12.0273 18.1547 11.9285C17.9294 11.8296 17.734 11.6871 17.5688 11.501C17.4035 11.3148 17.2756 11.0893 17.1857 10.825C17.0959 10.5606 17.0508 10.2622 17.0508 9.92919V9.75263C17.0508 9.41966 17.0959 9.12075 17.1857 8.85543C17.2756 8.59011 17.4021 8.36461 17.5655 8.17797C17.7289 7.99133 17.9234 7.84884 18.1486 7.75048C18.3739 7.65212 18.6229 7.60223 18.8956 7.60223C19.1683 7.60223 19.4145 7.65164 19.6397 7.75048C19.865 7.84932 20.06 7.99181 20.2243 8.17797C20.3886 8.36413 20.5161 8.59011 20.6073 8.85543C20.6985 9.12075 20.7436 9.41966 20.7436 9.75263H20.7441ZM19.7114 9.92919V9.74687C19.7114 9.53145 19.6937 9.34145 19.6579 9.17737C19.6221 9.01328 19.5695 8.8751 19.4997 8.76331C19.4299 8.65152 19.3447 8.56756 19.2428 8.51046C19.1408 8.45337 19.0254 8.42506 18.896 8.42506C18.7667 8.42506 18.6429 8.45337 18.5424 8.51046C18.4418 8.56756 18.3576 8.65152 18.2901 8.76331C18.2226 8.8751 18.1714 9.0128 18.1379 9.17737C18.1044 9.34193 18.0872 9.53193 18.0872 9.74687V9.92919C18.0872 10.1427 18.1044 10.3313 18.1379 10.4958C18.1714 10.6604 18.2231 10.7995 18.2915 10.9128C18.3599 11.026 18.4451 11.1119 18.5465 11.1699C18.648 11.228 18.7667 11.2568 18.9021 11.2568C19.0375 11.2568 19.1469 11.228 19.2474 11.1699C19.3479 11.1119 19.4326 11.0265 19.5011 10.9128C19.5695 10.799 19.6221 10.6599 19.6579 10.4958C19.6937 10.3317 19.7114 10.1427 19.7114 9.92919Z" fill="white"/>
<path d="M23.033 8.78106V9.48059H20.988V8.78106H23.033ZM22.4238 12.0163H21.4404V8.51766C21.4404 8.26625 21.4897 8.05515 21.5884 7.88386C21.6871 7.71258 21.8262 7.58208 22.0063 7.49379C22.1864 7.40551 22.3991 7.36089 22.6444 7.36089C22.7295 7.36089 22.8096 7.36665 22.885 7.37865C22.9604 7.39064 23.0339 7.40551 23.1056 7.42327L23.1084 8.16502C23.0734 8.15494 23.0376 8.14822 23.0008 8.14391C22.9641 8.13959 22.9185 8.13815 22.8645 8.13815C22.77 8.13815 22.6895 8.15254 22.6239 8.18133C22.5583 8.21012 22.5085 8.2533 22.4745 8.30991C22.4405 8.36653 22.4238 8.4361 22.4238 8.51766V12.0163Z" fill="white"/>
<path d="M25.1882 8.78106V9.48059H23.1433V8.78106H25.1882ZM24.579 12.0163H23.5957V8.51766C23.5957 8.26625 23.645 8.05515 23.7437 7.88386C23.8423 7.71258 23.9815 7.58208 24.1616 7.49379C24.3417 7.40551 24.5544 7.36089 24.7996 7.36089C24.8848 7.36089 24.9648 7.36665 25.0402 7.37865C25.1156 7.39064 25.1892 7.40551 25.2608 7.42327L25.2636 8.16502C25.2287 8.15494 25.1929 8.14822 25.1561 8.14391C25.1194 8.13959 25.0737 8.13815 25.0198 8.13815C24.9253 8.13815 24.8448 8.15254 24.7792 8.18133C24.7135 8.21012 24.6637 8.2533 24.6298 8.30991C24.5958 8.36653 24.579 8.4361 24.579 8.51766V12.0163Z" fill="white"/>
<path d="M25.5303 7.94671C25.5303 7.80325 25.5805 7.68571 25.6811 7.59407C25.7816 7.50243 25.9119 7.45637 26.0725 7.45637C26.233 7.45637 26.3633 7.50243 26.4638 7.59407C26.5644 7.68571 26.6146 7.80325 26.6146 7.94671C26.6146 8.09017 26.5644 8.20771 26.4638 8.29935C26.3633 8.39099 26.233 8.43705 26.0725 8.43705C25.9119 8.43705 25.7816 8.39099 25.6811 8.29935C25.5805 8.20771 25.5303 8.09017 25.5303 7.94671ZM26.5686 8.78106V12.0167H25.588V8.78106H26.5686Z" fill="white"/>
<path d="M28.4947 11.299C28.5855 11.299 28.6632 11.2812 28.7284 11.2467C28.7935 11.2121 28.8424 11.1618 28.8764 11.097C28.9103 11.0322 28.9262 10.954 28.9243 10.8624H29.8439C29.8458 11.1056 29.7885 11.3182 29.6713 11.501C29.554 11.6838 29.3957 11.8248 29.1956 11.9256C28.9955 12.0263 28.7698 12.0767 28.5185 12.0767C28.2672 12.0767 28.0582 12.0355 27.8744 11.9525C27.6906 11.8695 27.5374 11.7538 27.4146 11.6056C27.2917 11.4573 27.2 11.2832 27.1391 11.0836C27.0781 10.884 27.0479 10.6681 27.0479 10.4349V10.3663C27.0479 10.1331 27.0781 9.91624 27.1391 9.71569C27.2 9.51514 27.2917 9.34098 27.4146 9.19224C27.5374 9.04351 27.6901 8.92788 27.873 8.84536C28.0559 8.76283 28.269 8.72109 28.5124 8.72109C28.7735 8.72109 29.0039 8.77195 29.204 8.87366C29.4041 8.97538 29.5614 9.12315 29.6754 9.31603C29.7895 9.5089 29.8458 9.74352 29.8434 10.0189H28.9238C28.9257 9.92152 28.9113 9.83372 28.8806 9.75599C28.8498 9.67827 28.8019 9.61589 28.7367 9.56888C28.6716 9.52186 28.5892 9.49883 28.4887 9.49883C28.3882 9.49883 28.3072 9.52186 28.2448 9.56744C28.1825 9.61302 28.1359 9.67635 28.1043 9.75743C28.0726 9.83852 28.0512 9.93063 28.0405 10.0343C28.0298 10.1379 28.0247 10.2487 28.0247 10.3663V10.4349C28.0247 10.5544 28.0303 10.6666 28.0405 10.7712C28.0508 10.8758 28.0726 10.9675 28.1057 11.0461C28.1387 11.1248 28.1857 11.1867 28.2476 11.2313C28.3095 11.276 28.3914 11.2985 28.4943 11.2985L28.4947 11.299Z" fill="white"/>
<path d="M30.2524 7.94671C30.2524 7.80325 30.3027 7.68571 30.4032 7.59407C30.5038 7.50243 30.6341 7.45637 30.7946 7.45637C30.9552 7.45637 31.0855 7.50243 31.186 7.59407C31.2865 7.68571 31.3368 7.80325 31.3368 7.94671C31.3368 8.09017 31.2865 8.20771 31.186 8.29935C31.0855 8.39099 30.9552 8.43705 30.7946 8.43705C30.6341 8.43705 30.5038 8.39099 30.4032 8.29935C30.3027 8.20771 30.2524 8.09017 30.2524 7.94671ZM31.2907 8.78106V12.0167H30.3101V8.78106H31.2907Z" fill="white"/>
<path d="M33.6406 10.04L33.6461 10.5783H33.2138C33.1231 10.5783 33.0458 10.5913 32.9834 10.6172C32.9211 10.6431 32.8703 10.6786 32.8326 10.7232C32.795 10.7679 32.768 10.8187 32.7512 10.8744C32.7345 10.93 32.7265 10.989 32.7265 11.0509C32.7265 11.1128 32.7405 11.1642 32.7684 11.2107C32.7963 11.2572 32.8345 11.2942 32.8829 11.3196C32.9313 11.345 32.9853 11.3585 33.0453 11.3585C33.1538 11.3585 33.2459 11.3369 33.3222 11.2942C33.3986 11.2515 33.4572 11.1987 33.4977 11.1373C33.5382 11.0759 33.5587 11.0178 33.5587 10.9641L33.7732 11.3767C33.7346 11.4564 33.6904 11.537 33.641 11.619C33.5917 11.7011 33.5307 11.7759 33.4581 11.845C33.3855 11.9141 33.2971 11.9697 33.1929 12.0124C33.0886 12.0551 32.962 12.0767 32.8131 12.0767C32.62 12.0767 32.4422 12.0359 32.2807 11.9539C32.1192 11.8719 31.9903 11.7581 31.8935 11.6113C31.7967 11.4645 31.7483 11.2956 31.7483 11.1047C31.7483 10.9372 31.7776 10.7875 31.8367 10.6561C31.8958 10.5246 31.9852 10.4128 32.1052 10.3212C32.2253 10.2295 32.378 10.1595 32.5637 10.112C32.7493 10.0645 32.9681 10.04 33.2194 10.04H33.6401H33.6406ZM33.5214 11.203V9.86922C33.5214 9.77758 33.5089 9.6989 33.4837 9.63317C33.4586 9.56744 33.419 9.5161 33.3646 9.47916C33.3101 9.44221 33.238 9.42398 33.1473 9.42398C33.0737 9.42398 33.0109 9.43694 32.9588 9.46284C32.9066 9.48875 32.8671 9.52762 32.8396 9.57943C32.8122 9.63125 32.7991 9.69698 32.7991 9.77662H31.8218C31.8218 9.62693 31.8539 9.48827 31.9191 9.35969C31.9842 9.23111 32.0769 9.11884 32.1974 9.02336C32.3179 8.92788 32.4631 8.85351 32.6325 8.80074C32.8019 8.74796 32.9909 8.72157 33.1994 8.72157C33.4488 8.72157 33.6717 8.76427 33.8681 8.85016C34.0645 8.93604 34.2195 9.06414 34.3335 9.23447C34.4475 9.40479 34.5048 9.61877 34.5048 9.87594V11.2006C34.5048 11.4117 34.5164 11.572 34.5397 11.6804C34.563 11.7889 34.596 11.8843 34.6384 11.9659V12.0168H33.6578C33.6112 11.917 33.5768 11.7951 33.5549 11.6502C33.5331 11.5053 33.5214 11.3566 33.5214 11.203Z" fill="white"/>
<path d="M36.0797 7.42326V12.0163H35.0991V7.42326H36.0797Z" fill="white"/>
<path d="M18.856 16.0071H17.8061V15.1968H18.856C18.9994 15.1968 19.1153 15.1718 19.2042 15.1219C19.293 15.072 19.3582 15.0029 19.4001 14.9142C19.442 14.8254 19.4625 14.7251 19.4625 14.6138C19.4625 14.4944 19.4415 14.3835 19.4001 14.2818C19.3587 14.1801 19.293 14.0981 19.2042 14.0352C19.1153 13.9724 18.9994 13.9412 18.856 13.9412H18.1887V17.4849H17.1704V13.1308H18.8556C19.1939 13.1308 19.4853 13.1946 19.7301 13.3222C19.9748 13.4499 20.1629 13.6245 20.2941 13.8471C20.4253 14.0698 20.4914 14.3231 20.4914 14.6081C20.4914 14.8931 20.4258 15.1344 20.2941 15.3436C20.1624 15.5528 19.9748 15.7159 19.7301 15.8325C19.4853 15.9491 19.1939 16.0076 18.8556 16.0076L18.856 16.0071Z" fill="white"/>
<path d="M22.7109 15.5082L22.7165 16.0465H22.2841C22.1934 16.0465 22.1161 16.0594 22.0537 16.0853C21.9914 16.1113 21.9407 16.1468 21.903 16.1914C21.8653 16.236 21.8383 16.2869 21.8215 16.3425C21.8048 16.3982 21.7969 16.4572 21.7969 16.5191C21.7969 16.581 21.8108 16.6323 21.8387 16.6788C21.8667 16.7254 21.9048 16.7623 21.9532 16.7878C22.0016 16.8132 22.0556 16.8266 22.1156 16.8266C22.2241 16.8266 22.3162 16.805 22.3925 16.7623C22.4689 16.7196 22.5275 16.6668 22.568 16.6054C22.6085 16.544 22.629 16.486 22.629 16.4322L22.8435 16.8448C22.8049 16.9245 22.7607 17.0051 22.7113 17.0871C22.662 17.1692 22.601 17.244 22.5284 17.3131C22.4558 17.3822 22.3674 17.4379 22.2632 17.4806C22.1589 17.5233 22.0323 17.5449 21.8834 17.5449C21.6903 17.5449 21.5125 17.5041 21.351 17.422C21.1895 17.34 21.0606 17.2263 20.9638 17.0795C20.867 16.9326 20.8186 16.7638 20.8186 16.5728C20.8186 16.4054 20.8479 16.2557 20.907 16.1242C20.9661 15.9927 21.0555 15.881 21.1756 15.7893C21.2956 15.6977 21.4483 15.6276 21.634 15.5801C21.8197 15.5326 22.0384 15.5082 22.2897 15.5082H22.7104H22.7109ZM22.5917 16.6712V15.3374C22.5917 15.2457 22.5792 15.167 22.554 15.1013C22.5289 15.0356 22.4894 14.9842 22.4349 14.9473C22.3805 14.9103 22.3083 14.8921 22.2176 14.8921C22.144 14.8921 22.0812 14.9051 22.0291 14.931C21.977 14.9569 21.9374 14.9957 21.9099 15.0476C21.8825 15.0994 21.8695 15.1651 21.8695 15.2448H20.8921C20.8921 15.0951 20.9242 14.9564 20.9894 14.8278C21.0546 14.6992 21.1472 14.587 21.2677 14.4915C21.3882 14.396 21.5334 14.3216 21.7028 14.2689C21.8722 14.2161 22.0612 14.1897 22.2697 14.1897C22.5191 14.1897 22.7421 14.2324 22.9385 14.3183C23.1348 14.4042 23.2898 14.5323 23.4038 14.7026C23.5179 14.8729 23.5751 15.0869 23.5751 15.3441V16.6688C23.5751 16.8799 23.5867 17.0401 23.61 17.1486C23.6333 17.257 23.6663 17.3525 23.7087 17.434V17.4849H22.7281C22.6816 17.3851 22.6471 17.2632 22.6252 17.1183C22.6034 16.9734 22.5917 16.8247 22.5917 16.6712Z" fill="white"/>
<path d="M25.104 15.0504V17.4844H24.1267V14.2487H25.0403L25.104 15.05V15.0504ZM26.032 14.2252L26.0148 15.1613C25.9762 15.1574 25.924 15.1522 25.858 15.1464C25.7919 15.1406 25.737 15.1373 25.6927 15.1373C25.5787 15.1373 25.4805 15.1507 25.3982 15.1776C25.3158 15.2045 25.2483 15.2443 25.1952 15.2971C25.1422 15.3498 25.1036 15.416 25.0794 15.4957C25.0552 15.5753 25.044 15.6679 25.0459 15.774L24.869 15.6545C24.869 15.4372 24.8899 15.2395 24.9314 15.061C24.9728 14.8825 25.0324 14.728 25.1096 14.5975C25.1869 14.467 25.2809 14.3663 25.3912 14.2953C25.5015 14.2242 25.6253 14.1892 25.7626 14.1892C25.811 14.1892 25.8589 14.1921 25.9064 14.1983C25.9538 14.2046 25.9957 14.2132 26.0325 14.2252H26.032Z" fill="white"/>
<path d="M28.1672 14.2492V14.9487H26.2759V14.2492H28.1672ZM26.6733 13.4446H27.6506V16.4289C27.6506 16.5148 27.6604 16.581 27.6795 16.6275C27.6986 16.674 27.7321 16.7071 27.7796 16.7263C27.827 16.7455 27.8903 16.7546 27.9694 16.7546C28.0257 16.7546 28.0718 16.7532 28.1086 16.7503C28.1453 16.7474 28.1803 16.7427 28.2128 16.7369V17.4575C28.1295 17.4854 28.0425 17.507 27.9517 17.5218C27.861 17.5367 27.7642 17.5444 27.6618 17.5444C27.4528 17.5444 27.2746 17.5103 27.1266 17.4427C26.9786 17.375 26.866 17.268 26.7887 17.1226C26.7115 16.9773 26.6729 16.7878 26.6729 16.5546V13.4446H26.6733Z" fill="white"/>
<path d="M29.5159 14.9396V17.4844H28.5386V14.2487H29.4554L29.5164 14.9396H29.5159ZM29.3995 15.7562L29.1706 15.762C29.1706 15.5149 29.1994 15.2942 29.2576 15.0994C29.3158 14.9046 29.3977 14.74 29.5043 14.6042C29.6104 14.4685 29.7379 14.3653 29.8859 14.2948C30.0339 14.2242 30.1986 14.1887 30.3806 14.1887C30.5258 14.1887 30.6584 14.2108 30.7794 14.2545C30.9004 14.2981 31.0047 14.3691 31.0926 14.467C31.1806 14.5649 31.2481 14.694 31.2955 14.8542C31.343 15.0145 31.3667 15.2126 31.3667 15.4477V17.4839H30.3834V15.4443C30.3834 15.3148 30.3662 15.2155 30.3313 15.1469C30.2964 15.0783 30.2461 15.0308 30.1805 15.0049C30.1148 14.979 30.0343 14.966 29.9399 14.966C29.8393 14.966 29.7542 14.9857 29.6848 15.026C29.6155 15.0663 29.5596 15.1214 29.5182 15.192C29.4768 15.2625 29.4466 15.346 29.4284 15.4415C29.4103 15.5369 29.4009 15.642 29.4009 15.7552L29.3995 15.7562Z" fill="white"/>
<path d="M33.4289 17.5444C33.1739 17.5444 32.9454 17.5031 32.7443 17.4201C32.5433 17.3371 32.3734 17.2234 32.2352 17.0775C32.097 16.9317 31.9913 16.7647 31.9192 16.5752C31.8471 16.3857 31.8103 16.1856 31.8103 15.974V15.8603C31.8103 15.6228 31.8424 15.4031 31.9062 15.2011C31.9699 14.9991 32.0649 14.8216 32.1905 14.6704C32.3162 14.5193 32.4739 14.4008 32.6634 14.3159C32.8528 14.231 33.0734 14.1887 33.3247 14.1887C33.5471 14.1887 33.7463 14.2257 33.9222 14.2996C34.0982 14.3735 34.2475 14.479 34.3704 14.6167C34.4933 14.7544 34.5868 14.9209 34.652 15.1162C34.7171 15.3114 34.7492 15.5307 34.7492 15.774V16.1837H32.1849V15.5528H33.7947V15.4751C33.7966 15.3676 33.7789 15.2759 33.7412 15.2001C33.7035 15.1243 33.6486 15.0668 33.5774 15.0269C33.5062 14.9871 33.4187 14.967 33.3163 14.967C33.2139 14.967 33.1222 14.9909 33.0538 15.0389C32.9854 15.0869 32.9319 15.1522 32.8942 15.2347C32.8565 15.3172 32.83 15.4127 32.8146 15.5202C32.7993 15.6276 32.7913 15.7413 32.7913 15.8613V15.975C32.7913 16.0945 32.8072 16.2034 32.8393 16.3008C32.8714 16.3982 32.9175 16.4816 32.9784 16.5503C33.0394 16.6189 33.1129 16.6726 33.199 16.71C33.2851 16.7474 33.3833 16.7666 33.4936 16.7666C33.6272 16.7666 33.7584 16.7407 33.8883 16.6889C34.0181 16.6371 34.1289 16.5512 34.222 16.4317L34.6659 16.9758C34.6022 17.0694 34.5119 17.1601 34.3946 17.2479C34.2773 17.3357 34.1377 17.4067 33.9753 17.4619C33.8129 17.517 33.6314 17.5439 33.4299 17.5439L33.4289 17.5444Z" fill="white"/>
<path d="M36.1323 15.0504V17.4844H35.155V14.2487H36.0686L36.1323 15.05V15.0504ZM37.0603 14.2252L37.0431 15.1613C37.0045 15.1574 36.9524 15.1522 36.8863 15.1464C36.8202 15.1406 36.7653 15.1373 36.7211 15.1373C36.607 15.1373 36.5088 15.1507 36.4265 15.1776C36.3441 15.2045 36.2766 15.2443 36.2236 15.2971C36.1705 15.3498 36.1319 15.416 36.1077 15.4957C36.0835 15.5753 36.0723 15.6679 36.0742 15.774L35.8973 15.6545C35.8973 15.4372 35.9183 15.2395 35.9597 15.061C36.0011 14.8825 36.0607 14.728 36.1379 14.5975C36.2152 14.467 36.3092 14.3663 36.4195 14.2953C36.5298 14.2242 36.6536 14.1892 36.7909 14.1892C36.8393 14.1892 36.8872 14.1921 36.9347 14.1983C36.9821 14.2046 37.024 14.2132 37.0608 14.2252H37.0603Z" fill="white"/>
<path d="M17.0024 21.3678V21.3049C17.0024 21.0674 17.0355 20.8491 17.1011 20.6486C17.1667 20.448 17.2635 20.2744 17.391 20.1266C17.5186 19.9788 17.6763 19.8637 17.8639 19.7811C18.0514 19.6986 18.2683 19.6569 18.5136 19.6569C18.7588 19.6569 18.9789 19.6981 19.1674 19.7811C19.3559 19.8641 19.5141 19.9788 19.6417 20.1266C19.7692 20.2744 19.866 20.448 19.9316 20.6486C19.9972 20.8491 20.0303 21.0674 20.0303 21.3049V21.3678C20.0303 21.6029 19.9972 21.8207 19.9316 22.0213C19.866 22.2218 19.7692 22.396 19.6417 22.5447C19.5141 22.6934 19.3564 22.8081 19.1688 22.8902C18.9813 22.9722 18.7644 23.013 18.5191 23.013C18.2739 23.013 18.0561 22.9722 17.8667 22.8902C17.6773 22.8081 17.5186 22.6934 17.391 22.5447C17.2635 22.396 17.1667 22.2218 17.1011 22.0213C17.0355 21.8207 17.0024 21.6029 17.0024 21.3678ZM17.9798 21.3049V21.3678C17.9798 21.4892 17.9886 21.6029 18.0058 21.7089C18.023 21.815 18.0524 21.9066 18.0928 21.9858C18.1333 22.0649 18.1887 22.1259 18.2581 22.1695C18.3274 22.2132 18.4149 22.2353 18.5191 22.2353C18.6234 22.2353 18.7072 22.2132 18.776 22.1695C18.8449 22.1259 18.8994 22.0644 18.9399 21.9858C18.9803 21.9071 19.0097 21.815 19.0269 21.7089C19.0441 21.6029 19.0529 21.4897 19.0529 21.3678V21.3049C19.0529 21.1874 19.0441 21.0761 19.0269 20.9715C19.0097 20.8669 18.9803 20.7743 18.9399 20.6932C18.8994 20.6121 18.844 20.5493 18.7746 20.5032C18.7053 20.4572 18.6178 20.4346 18.5136 20.4346C18.4093 20.4346 18.3255 20.4576 18.2567 20.5032C18.1878 20.5488 18.1333 20.6121 18.0928 20.6932C18.0524 20.7743 18.023 20.8664 18.0058 20.9715C17.9886 21.0766 17.9798 21.1874 17.9798 21.3049Z" fill="white"/>
<path d="M22.2703 19.7168V20.4164H20.2253V19.7168H22.2703ZM21.6611 22.9525H20.6777V19.4539C20.6777 19.2025 20.727 18.9914 20.8257 18.8201C20.9244 18.6488 21.0635 18.5183 21.2436 18.4301C21.4237 18.3418 21.6364 18.2972 21.8817 18.2972C21.9668 18.2972 22.0469 18.3029 22.1223 18.3149C22.1977 18.3269 22.2712 18.3418 22.3429 18.3595L22.3457 19.1013C22.3108 19.0912 22.2749 19.0845 22.2382 19.0802C22.2014 19.0759 22.1558 19.0744 22.1018 19.0744C22.0073 19.0744 21.9268 19.0888 21.8612 19.1176C21.7956 19.1464 21.7458 19.1896 21.7118 19.2462C21.6778 19.3028 21.6611 19.3724 21.6611 19.4539V22.9525Z" fill="white"/>
<path d="M25.7507 19.7169V20.4164H23.8594V19.7169H25.7507ZM24.2568 18.9127H25.2341V21.897C25.2341 21.9829 25.2439 22.0491 25.263 22.0956C25.2821 22.1422 25.3156 22.1753 25.363 22.1945C25.4105 22.2137 25.4738 22.2228 25.5529 22.2228C25.6092 22.2228 25.6553 22.2213 25.6921 22.2185C25.7288 22.2156 25.7637 22.2108 25.7963 22.205V22.9257C25.713 22.9535 25.626 22.9751 25.5352 22.99C25.4445 23.0048 25.3477 23.0125 25.2453 23.0125C25.0363 23.0125 24.8581 22.9784 24.7101 22.9108C24.5621 22.8431 24.4495 22.7362 24.3722 22.5908C24.295 22.4454 24.2564 22.2559 24.2564 22.0227V18.9127H24.2568Z" fill="white"/>
<path d="M27.0967 18.3595V22.9525H26.1194V18.3595H27.0967ZM26.9804 21.2243L26.7514 21.2301C26.7514 21.0027 26.7784 20.7935 26.8328 20.6021C26.8873 20.4106 26.9645 20.2441 27.0651 20.1026C27.1656 19.9611 27.2866 19.8512 27.4276 19.7735C27.5686 19.6957 27.7254 19.6569 27.8976 19.6569C28.0526 19.6569 28.1941 19.6799 28.3225 19.7255C28.451 19.7711 28.5622 19.8449 28.6562 19.9467C28.7502 20.0484 28.8224 20.1808 28.8736 20.3444C28.9248 20.508 28.9503 20.7071 28.9503 20.9427V22.952H27.967V20.9365C27.967 20.805 27.9493 20.7028 27.9135 20.6299C27.8776 20.557 27.8269 20.5061 27.7613 20.4773C27.6957 20.4485 27.6151 20.4341 27.5207 20.4341C27.4067 20.4341 27.3136 20.4538 27.2424 20.4941C27.1712 20.5344 27.1162 20.5896 27.0786 20.6601C27.0409 20.7306 27.0153 20.8141 27.0018 20.9096C26.9883 21.0051 26.9813 21.1101 26.9813 21.2234L26.9804 21.2243Z" fill="white"/>
<path d="M31.0124 23.0125C30.7574 23.0125 30.5289 22.9712 30.3278 22.8882C30.1268 22.8052 29.9569 22.6915 29.8187 22.5457C29.6805 22.4003 29.5748 22.2329 29.5027 22.0433C29.4306 21.8538 29.3938 21.6537 29.3938 21.4422V21.3285C29.3938 21.091 29.4259 20.8712 29.4897 20.6692C29.5534 20.4672 29.6484 20.2897 29.774 20.1386C29.8997 19.9874 30.0574 19.8689 30.2469 19.784C30.4363 19.6991 30.6569 19.6569 30.9082 19.6569C31.1306 19.6569 31.3298 19.6938 31.5057 19.7677C31.6817 19.8416 31.831 19.9471 31.9539 20.0848C32.0768 20.2225 32.1703 20.389 32.2355 20.5843C32.3006 20.7796 32.3327 20.9988 32.3327 21.2421V21.6518H29.7684V21.0209H31.3782V20.9432C31.3801 20.8357 31.3624 20.7441 31.3247 20.6683C31.287 20.5925 31.2321 20.5349 31.1609 20.4951C31.0897 20.4552 31.0022 20.4351 30.8998 20.4351C30.7974 20.4351 30.7057 20.4591 30.6373 20.5071C30.5689 20.555 30.5154 20.6203 30.4777 20.7028C30.44 20.7853 30.4135 20.8808 30.3981 20.9883C30.3828 21.0958 30.3748 21.2095 30.3748 21.3294V21.4431C30.3748 21.5626 30.3907 21.6715 30.4228 21.7689C30.4549 21.8663 30.501 21.9498 30.5619 22.0184C30.6229 22.087 30.6964 22.1407 30.7825 22.1782C30.8686 22.2156 30.9668 22.2348 31.0771 22.2348C31.2107 22.2348 31.3419 22.2089 31.4718 22.157C31.6016 22.1052 31.7124 22.0193 31.8054 21.8999L32.2494 22.444C32.1857 22.5375 32.0954 22.6282 31.9781 22.716C31.8608 22.8038 31.7212 22.8748 31.5588 22.93C31.3964 22.9852 31.2149 23.012 31.0134 23.012L31.0124 23.0125Z" fill="white"/>
<path d="M37.7826 18.5985V22.9525H36.7675L35.2736 20.2432V22.9525H34.2554V18.5985H35.2736L36.7675 21.3078V18.5985H37.7826Z" fill="white"/>
<path d="M40.1494 21.1015H39.0618L39.0562 20.4135H39.9381C40.0968 20.4135 40.2234 20.3953 40.3179 20.3583C40.4123 20.3214 40.4817 20.2672 40.5254 20.1952C40.5692 20.1232 40.5906 20.0335 40.5906 19.926C40.5906 19.8022 40.5682 19.7029 40.524 19.6271C40.4798 19.5513 40.4095 19.4961 40.3137 19.4611C40.2178 19.4261 40.0945 19.4088 39.9437 19.4088H39.4448V22.9525H38.4265V18.5985H39.9437C40.2048 18.5985 40.4379 18.6229 40.6427 18.6719C40.8475 18.7208 41.0225 18.7947 41.1663 18.8945C41.3101 18.9943 41.4199 19.119 41.4953 19.2697C41.5707 19.4203 41.6084 19.5969 41.6084 19.8003C41.6084 19.9779 41.5716 20.1443 41.4981 20.2998C41.4246 20.4552 41.3022 20.5814 41.1314 20.6779C40.9606 20.7743 40.7269 20.8247 40.4309 20.829L40.1494 21.101V21.1015ZM40.1089 22.9525H38.8151L39.1632 22.145H40.1089C40.248 22.145 40.3597 22.1225 40.444 22.0779C40.5282 22.0333 40.5892 21.9733 40.6269 21.8984C40.6646 21.8236 40.6837 21.7406 40.6837 21.649C40.6837 21.5372 40.666 21.4407 40.6301 21.3587C40.5943 21.2766 40.5375 21.2138 40.4603 21.1687C40.383 21.1236 40.2792 21.1015 40.1498 21.1015H39.294L39.2996 20.4135H40.3234L40.5613 20.6884C40.8437 20.6764 41.0676 20.7172 41.2328 20.8112C41.398 20.9053 41.5167 21.0286 41.5884 21.1821C41.66 21.3356 41.6959 21.4959 41.6959 21.6633C41.6959 21.9483 41.6363 22.1868 41.5176 22.3782C41.399 22.5697 41.2212 22.7131 40.9852 22.8091C40.7493 22.905 40.4575 22.9525 40.1094 22.9525H40.1089Z" fill="white"/>
<path d="M44.0508 19.5139L43.0209 22.953H41.9272L43.4789 18.5989H44.1723L44.0504 19.5139H44.0508ZM44.8629 21.3289V22.1393H42.6961V21.3289H44.8629ZM44.9034 22.9525L43.8707 19.5134L43.7371 18.5985H44.439L45.9994 22.9525H44.9029H44.9034Z" fill="white"/>
</g>
<defs>
<clipPath id="clip0_1002_2149">
<rect width="46" height="31" fill="white"/>
</clipPath>
</defs>
</svg>
