<svg width="1440" height="12" viewBox="0 0 1440 12" preserveAspectRatio="none" fill="none" xmlns="http://www.w3.org/2000/svg">

<g id="Homepage_Ui">

<g id="wavy-divider 1" clip-path="url(#clip0_703_56)">
<path id="Vector" d="M0 0H1440V7.4265C1439.92 7.455 1439.84 7.4853 1439.76 7.5172C1438.07 8.1997 1436.37 9.6725 1434.68 10.6087C1432.98 11.5448 1431.28 11.7755 1429.59 11.093C1427.89 10.4104 1426.2 8.9376 1424.5 8.0015C1422.8 7.0653 1421.11 6.8346 1419.41 7.5172C1417.72 8.1997 1416.02 9.6725 1414.32 10.6087C1412.63 11.5448 1410.93 11.7755 1409.24 11.093C1407.54 10.4104 1405.85 8.9376 1404.15 8.0015C1402.45 7.0653 1400.76 6.8346 1399.06 7.5172C1397.37 8.1997 1395.67 9.6725 1393.97 10.6087C1392.28 11.5448 1390.58 11.7755 1388.89 11.093C1387.19 10.4104 1385.5 8.9376 1383.8 8.0015C1382.1 7.0653 1380.41 6.8346 1378.71 7.5172C1377.02 8.1997 1375.32 9.6725 1373.62 10.6087C1371.93 11.5448 1370.23 11.7755 1368.54 11.093C1366.84 10.4104 1365.15 8.9376 1363.45 8.0015C1361.75 7.0653 1360.06 6.8346 1358.36 7.5172C1356.67 8.1997 1354.97 9.6725 1353.28 10.6087C1351.58 11.5448 1349.88 11.7755 1348.19 11.093C1346.49 10.4104 1344.8 8.9376 1343.1 8.0015C1341.4 7.0653 1339.71 6.8346 1338.01 7.5172C1336.32 8.1997 1334.62 9.6725 1332.93 10.6087C1331.23 11.5448 1329.53 11.7755 1327.84 11.093C1326.14 10.4104 1324.45 8.9376 1322.75 8.0015C1321.05 7.0653 1319.36 6.8346 1317.66 7.5172C1315.97 8.1997 1314.27 9.6725 1312.57 10.6087C1310.88 11.5448 1309.18 11.7755 1307.49 11.093C1305.79 10.4104 1304.1 8.9376 1302.4 8.0015C1300.7 7.0653 1299.01 6.8346 1297.31 7.5172C1295.62 8.1997 1293.92 9.6725 1292.22 10.6087C1290.53 11.5448 1288.83 11.7755 1287.14 11.093C1285.44 10.4104 1283.75 8.9376 1282.05 8.0015C1280.35 7.0653 1278.66 6.8346 1276.96 7.5172C1275.27 8.1997 1273.57 9.6725 1271.88 10.6087C1270.18 11.5448 1268.48 11.7755 1266.79 11.093C1265.09 10.4104 1263.4 8.9376 1261.7 8.0015C1260 7.0653 1258.31 6.8346 1256.61 7.5172C1254.92 8.1997 1253.22 9.6725 1251.53 10.6087C1249.83 11.5448 1248.13 11.7755 1246.44 11.093C1244.74 10.4104 1243.05 8.9376 1241.35 8.0015C1239.65 7.0653 1237.96 6.8346 1236.26 7.5172C1234.57 8.1997 1232.87 9.6725 1231.18 10.6087C1229.48 11.5448 1227.78 11.7755 1226.09 11.093C1224.39 10.4104 1222.7 8.9376 1221 8.0015C1219.3 7.0653 1217.61 6.8346 1215.91 7.5172C1214.22 8.1997 1212.52 9.6725 1210.82 10.6087C1209.13 11.5448 1207.43 11.7755 1205.74 11.093C1204.04 10.4104 1202.35 8.9376 1200.65 8.0015C1198.95 7.0653 1197.26 6.8346 1195.56 7.5172C1193.87 8.1997 1192.17 9.6725 1190.47 10.6087C1188.78 11.5448 1187.08 11.7755 1185.39 11.093C1183.69 10.4104 1182 8.9376 1180.3 8.0015C1178.6 7.0653 1176.91 6.8346 1175.21 7.5172C1173.52 8.1997 1171.82 9.6725 1170.12 10.6087C1168.43 11.5448 1166.73 11.7755 1165.04 11.093C1163.34 10.4104 1161.65 8.9376 1159.95 8.0015C1158.25 7.0653 1156.56 6.8346 1154.86 7.5172C1153.17 8.1997 1151.47 9.6725 1149.78 10.6087C1148.08 11.5448 1146.38 11.7755 1144.69 11.093C1142.99 10.4104 1141.3 8.9376 1139.6 8.0015C1137.9 7.0653 1136.21 6.8346 1134.51 7.5172C1132.82 8.1997 1131.12 9.6725 1129.43 10.6087C1127.73 11.5448 1126.03 11.7755 1124.34 11.093C1122.64 10.4104 1120.95 8.9376 1119.25 8.0015C1117.55 7.0653 1115.86 6.8346 1114.16 7.5172C1112.47 8.1997 1110.77 9.6725 1109.07 10.6087C1107.38 11.5448 1105.68 11.7755 1103.99 11.093C1102.29 10.4104 1100.6 8.9376 1098.9 8.0015C1097.2 7.0653 1095.51 6.8346 1093.81 7.5172C1092.12 8.1997 1090.42 9.6725 1088.72 10.6087C1087.03 11.5448 1085.33 11.7755 1083.64 11.093C1081.94 10.4104 1080.25 8.9376 1078.55 8.0015C1076.85 7.0653 1075.16 6.8346 1073.46 7.5172C1071.77 8.1997 1070.07 9.6725 1068.38 10.6087C1066.68 11.5448 1064.98 11.7755 1063.29 11.093C1061.59 10.4104 1059.9 8.9376 1058.2 8.0015C1056.5 7.0653 1054.81 6.8346 1053.11 7.5172C1051.42 8.1997 1049.72 9.6725 1048.03 10.6087C1046.33 11.5448 1044.63 11.7755 1042.94 11.093C1041.24 10.4104 1039.55 8.9376 1037.85 8.0015C1036.15 7.0653 1034.46 6.8346 1032.76 7.5172C1031.07 8.1997 1029.37 9.6725 1027.68 10.6087C1025.98 11.5448 1024.28 11.7755 1022.59 11.093C1020.89 10.4104 1019.2 8.9376 1017.5 8.0015C1015.8 7.0653 1014.11 6.8346 1012.41 7.5172C1010.72 8.1997 1009.02 9.6725 1007.33 10.6087C1005.63 11.5448 1003.93 11.7755 1002.24 11.093C1000.54 10.4104 998.846 8.9376 997.15 8.0015C995.454 7.0653 993.758 6.8346 992.062 7.5172C990.367 8.1997 988.671 9.6725 986.975 10.6087C985.279 11.5448 983.583 11.7755 981.888 11.093C980.192 10.4104 978.496 8.9376 976.8 8.0015C975.104 7.0653 973.408 6.8346 971.713 7.5172C970.017 8.1997 968.321 9.6725 966.625 10.6087C964.929 11.5448 963.233 11.7755 961.537 11.093C959.842 10.4104 958.146 8.9376 956.45 8.0015C954.754 7.0653 953.058 6.8346 951.362 7.5172C949.667 8.1997 947.971 9.6725 946.275 10.6087C944.579 11.5448 942.883 11.7755 941.188 11.093C939.492 10.4104 937.796 8.9376 936.1 8.0015C934.404 7.0653 932.708 6.8346 931.013 7.5172C929.317 8.1997 927.621 9.6725 925.925 10.6087C924.229 11.5448 922.533 11.7755 920.838 11.093C919.142 10.4104 917.446 8.9376 915.75 8.0015C914.054 7.0653 912.358 6.8346 910.662 7.5172C908.967 8.1997 907.271 9.6725 905.575 10.6087C903.879 11.5448 902.183 11.7755 900.487 11.093C898.792 10.4104 897.096 8.9376 895.4 8.0015C893.704 7.0653 892.008 6.8346 890.312 7.5172C888.617 8.1997 886.921 9.6725 885.225 10.6087C883.529 11.5448 881.833 11.7755 880.138 11.093C878.442 10.4104 876.746 8.9376 875.05 8.0015C873.354 7.0653 871.658 6.8346 869.963 7.5172C868.267 8.1997 866.571 9.6725 864.875 10.6087C863.179 11.5448 861.483 11.7755 859.787 11.093C858.092 10.4104 856.396 8.9376 854.7 8.0015C853.004 7.0653 851.308 6.8346 849.612 7.5172C847.917 8.1997 846.221 9.6725 844.525 10.6087C842.829 11.5448 841.133 11.7755 839.438 11.093C837.742 10.4104 836.046 8.9376 834.35 8.0015C832.654 7.0653 830.958 6.8346 829.263 7.5172C827.567 8.1997 825.871 9.6725 824.175 10.6087C822.479 11.5448 820.783 11.7755 819.088 11.093C817.392 10.4104 815.696 8.9376 814 8.0015C812.304 7.0653 810.608 6.8346 808.912 7.5172C807.217 8.1997 805.521 9.6725 803.825 10.6087C802.129 11.5448 800.433 11.7755 798.737 11.093C797.042 10.4104 795.346 8.9376 793.65 8.0015C791.954 7.0653 790.258 6.8346 788.562 7.5172C786.867 8.1997 785.171 9.6725 783.475 10.6087C781.779 11.5448 780.083 11.7755 778.388 11.093C776.692 10.4104 774.996 8.9376 773.3 8.0015C771.604 7.0653 769.908 6.8346 768.213 7.5172C766.517 8.1997 764.821 9.6725 763.125 10.6087C761.429 11.5448 759.733 11.7755 758.037 11.093C756.342 10.4104 754.646 8.9376 752.95 8.0015C751.254 7.0653 749.558 6.8346 747.862 7.5172C746.167 8.1997 744.471 9.6725 742.775 10.6087C741.079 11.5448 739.383 11.7755 737.688 11.093C735.992 10.4104 734.296 8.9376 732.6 8.0015C730.904 7.0653 729.208 6.8346 727.513 7.5172C725.817 8.1997 724.121 9.6725 722.425 10.6087C720.729 11.5448 719.033 11.7755 717.338 11.093C715.642 10.4104 713.946 8.9376 712.25 8.0015C710.554 7.0653 708.858 6.8346 707.162 7.5172C705.467 8.1997 703.771 9.6725 702.075 10.6087C700.379 11.5448 698.683 11.7755 696.987 11.093C695.292 10.4104 693.596 8.9376 691.9 8.0015C690.204 7.0653 688.508 6.8346 686.812 7.5172C685.117 8.1997 683.421 9.6725 681.725 10.6087C680.029 11.5448 678.333 11.7755 676.638 11.093C674.942 10.4104 673.246 8.9376 671.55 8.0015C669.854 7.0653 668.158 6.8346 666.463 7.5172C664.767 8.1997 663.071 9.6725 661.375 10.6087C659.679 11.5448 657.983 11.7755 656.287 11.093C654.592 10.4104 652.896 8.9376 651.2 8.0015C649.504 7.0653 647.808 6.8346 646.112 7.5172C644.417 8.1997 642.721 9.6725 641.025 10.6087C639.329 11.5448 637.633 11.7755 635.938 11.093C634.242 10.4104 632.546 8.9376 630.85 8.0015C629.154 7.0653 627.458 6.8346 625.763 7.5172C624.067 8.1997 622.371 9.6725 620.675 10.6087C618.979 11.5448 617.283 11.7755 615.588 11.093C613.892 10.4104 612.196 8.9376 610.5 8.0015C608.804 7.0653 607.108 6.8346 605.412 7.5172C603.717 8.1997 602.021 9.6725 600.325 10.6087C598.629 11.5448 596.933 11.7755 595.237 11.093C593.542 10.4104 591.846 8.9376 590.15 8.0015C588.454 7.0653 586.758 6.8346 585.062 7.5172C583.367 8.1997 581.671 9.6725 579.975 10.6087C578.279 11.5448 576.583 11.7755 574.888 11.093C573.192 10.4104 571.496 8.9376 569.8 8.0015C568.104 7.0653 566.408 6.8346 564.713 7.5172C563.017 8.1997 561.321 9.6725 559.625 10.6087C557.929 11.5448 556.233 11.7755 554.537 11.093C552.842 10.4104 551.146 8.9376 549.45 8.0015C547.754 7.0653 546.058 6.8346 544.362 7.5172C542.667 8.1997 540.971 9.6725 539.275 10.6087C537.579 11.5448 535.883 11.7755 534.188 11.093C532.492 10.4104 530.796 8.9376 529.1 8.0015C527.404 7.0653 525.708 6.8346 524.013 7.5172C522.317 8.1997 520.621 9.6725 518.925 10.6087C517.229 11.5448 515.533 11.7755 513.838 11.093C512.142 10.4104 510.446 8.9376 508.75 8.0015C507.054 7.0653 505.358 6.8346 503.663 7.5172C501.967 8.1997 500.271 9.6725 498.575 10.6087C496.879 11.5448 495.183 11.7755 493.487 11.093C491.792 10.4104 490.096 8.9376 488.4 8.0015C486.704 7.0653 485.008 6.8346 483.312 7.5172C481.617 8.1997 479.921 9.6725 478.225 10.6087C476.529 11.5448 474.833 11.7755 473.138 11.093C471.442 10.4104 469.746 8.9376 468.05 8.0015C466.354 7.0653 464.658 6.8346 462.962 7.5172C461.267 8.1997 459.571 9.6725 457.875 10.6087C456.179 11.5448 454.483 11.7755 452.788 11.093C451.092 10.4104 449.396 8.9376 447.7 8.0015C446.004 7.0653 444.308 6.8346 442.612 7.5172C440.917 8.1997 439.221 9.6725 437.525 10.6087C435.829 11.5448 434.133 11.7755 432.438 11.093C430.742 10.4104 429.046 8.9376 427.35 8.0015C425.654 7.0653 423.958 6.8346 422.263 7.5172C420.567 8.1997 418.871 9.6725 417.175 10.6087C415.479 11.5448 413.783 11.7755 412.087 11.093C410.392 10.4104 408.696 8.9376 407 8.0015C405.304 7.0653 403.608 6.8346 401.913 7.5172C400.217 8.1997 398.521 9.6725 396.825 10.6087C395.129 11.5448 393.433 11.7755 391.737 11.093C390.042 10.4104 388.346 8.9376 386.65 8.0015C384.954 7.0653 383.258 6.8346 381.562 7.5172C379.867 8.1997 378.171 9.6725 376.475 10.6087C374.779 11.5448 373.083 11.7755 371.388 11.093C369.692 10.4104 367.996 8.9376 366.3 8.0015C364.604 7.0653 362.908 6.8346 361.212 7.5172C359.517 8.1997 357.821 9.6725 356.125 10.6087C354.429 11.5448 352.733 11.7755 351.038 11.093C349.342 10.4104 347.646 8.9376 345.95 8.0015C344.254 7.0653 342.558 6.8346 340.862 7.5172C339.167 8.1997 337.471 9.6725 335.775 10.6087C334.079 11.5448 332.383 11.7755 330.688 11.093C328.992 10.4104 327.296 8.9376 325.6 8.0015C323.904 7.0653 322.208 6.8346 320.513 7.5172C318.817 8.1997 317.121 9.6725 315.425 10.6087C313.729 11.5448 312.033 11.7755 310.337 11.093C308.642 10.4104 306.946 8.9376 305.25 8.0015C303.554 7.0653 301.858 6.8346 300.163 7.5172C298.467 8.1997 296.771 9.6725 295.075 10.6087C293.379 11.5448 291.683 11.7755 289.987 11.093C288.292 10.4104 286.596 8.9376 284.9 8.0015C283.204 7.0653 281.508 6.8346 279.812 7.5172C278.117 8.1997 276.421 9.6725 274.725 10.6087C273.029 11.5448 271.333 11.7755 269.638 11.093C267.942 10.4104 266.246 8.9376 264.55 8.0015C262.854 7.0653 261.158 6.8346 259.462 7.5172C257.767 8.1997 256.071 9.6725 254.375 10.6087C252.679 11.5448 250.983 11.7755 249.288 11.093C247.592 10.4104 245.896 8.9376 244.2 8.0015C242.504 7.0653 240.808 6.8346 239.113 7.5172C237.417 8.1997 235.721 9.6725 234.025 10.6087C232.329 11.5448 230.633 11.7755 228.938 11.093C227.242 10.4104 225.546 8.9376 223.85 8.0015C222.154 7.0653 220.458 6.8346 218.762 7.5172C217.067 8.1997 215.371 9.6725 213.675 10.6087C211.979 11.5448 210.283 11.7755 208.587 11.093C206.892 10.4104 205.196 8.9376 203.5 8.0015C201.804 7.0653 200.108 6.8346 198.413 7.5172C196.717 8.1997 195.021 9.6725 193.325 10.6087C191.629 11.5448 189.933 11.7755 188.238 11.093C186.542 10.4104 184.846 8.9376 183.15 8.0015C181.454 7.0653 179.758 6.8346 178.062 7.5172C176.367 8.1997 174.671 9.6725 172.975 10.6087C171.279 11.5448 169.583 11.7755 167.887 11.093C166.192 10.4104 164.496 8.9376 162.8 8.0015C161.104 7.0653 159.408 6.8346 157.712 7.5172C156.017 8.1997 154.321 9.6725 152.625 10.6087C150.929 11.5448 149.233 11.7755 147.538 11.093C145.842 10.4104 144.146 8.9376 142.45 8.0015C140.754 7.0653 139.058 6.8346 137.363 7.5172C135.667 8.1997 133.971 9.6725 132.275 10.6087C130.579 11.5448 128.883 11.7755 127.188 11.093C125.492 10.4104 123.796 8.9376 122.1 8.0015C120.404 7.0653 118.708 6.8346 117.012 7.5172C115.317 8.1997 113.621 9.6725 111.925 10.6087C110.229 11.5448 108.533 11.7755 106.838 11.093C105.142 10.4104 103.446 8.9376 101.75 8.0015C100.054 7.0653 98.3583 6.8346 96.6625 7.5172C94.9667 8.1997 93.2708 9.6725 91.575 10.6087C89.8792 11.5448 88.1833 11.7755 86.4875 11.093C84.7917 10.4104 83.0958 8.9376 81.4 8.0015C79.7042 7.0653 78.0083 6.8346 76.3125 7.5172C74.6167 8.1997 72.9208 9.6725 71.225 10.6087C69.5292 11.5448 67.8333 11.7755 66.1375 11.093C64.4417 10.4104 62.7458 8.9376 61.05 8.0015C59.3542 7.0653 57.6583 6.8346 55.9625 7.5172C54.2667 8.1997 52.5708 9.6725 50.875 10.6087C49.1792 11.5448 47.4833 11.7755 45.7875 11.093C44.0917 10.4104 42.3958 8.9376 40.7 8.0015C39.0042 7.0653 37.3083 6.8346 35.6125 7.5172C33.9167 8.1997 32.2208 9.6725 30.525 10.6087C28.8292 11.5448 27.1333 11.7755 25.4375 11.093C23.7417 10.4104 22.0458 8.9376 20.35 8.0015C18.6542 7.0653 16.9583 6.8346 15.2625 7.5172C13.5667 8.1997 11.8708 9.6725 10.175 10.6087C8.4792 11.5448 6.7833 11.7755 5.0875 11.093C3.3917 10.4104 1.6958 8.9376 0 8.0015V0Z" fill="black"/>
</g>
</g>
<defs>
<clipPath id="clip0_703_56">
<rect width="1440" height="12" fill="white"/>
</clipPath>
</defs>
</svg>
