<svg xmlns="http://www.w3.org/2000/svg" viewBox="0 0 48 48" width="48" height="48"><circle cx="24" cy="24" r="24" fill="#3d5124"/><path d="M24 37v-6.5" stroke="#b9c9a2" stroke-width="2.4" stroke-linecap="round" fill="none"/><path d="M24 34c-2.9 1.7-6.2 1.3-8.2-.6 1.9-2 5-2.7 8.2-1.5Zm0 0c2.9 1.7 6.2 1.3 8.2-.6-1.9-2-5-2.7-8.2-1.5Z" fill="#7fa04f"/><g fill="#f4f6f0"><circle cx="24" cy="16.5" r="6"/><circle cx="17.8" cy="21.5" r="5.4"/><circle cx="30.2" cy="21.5" r="5.4"/><circle cx="20.2" cy="27" r="5.2"/><circle cx="27.8" cy="27" r="5.2"/><circle cx="24" cy="22.5" r="6.4"/></g><g stroke="#3d5124" stroke-width="1.6" fill="none" opacity=".45" stroke-linecap="round"><path d="M24 13v5.5M19 22.5l3.6 1.6M29 22.5l-3.6 1.6"/></g></svg>
